QRD.sfdir
StartChar: uni0002
Encoding: 2 2 54
Width: 418
VWidth: 0
Flags: MW
LayerCount: 3
Back
SplineSet
-1241 52.9999694824 m 5
 -1148 8.99996948242 l 5
 -1097 37.9999694824 l 6
 -1042.99204648 68.7103744234 -988.758338042 102.496106068 -951.712800461 152.372113928 c 4
 -914.66726288 202.248121789 -896.895841682 266.401993601 -905 327.999969482 c 4
 -911.370719565 376.422447762 -932.743316357 422.472083875 -964 459.999969482 c 4
 -1008.67646309 513.640119395 -1073.22078703 550.055465637 -1142 562 c 5
 -1185 531 l 1029
  Spiro
    -1241 53 {
    -1148 8.99997 v
    -1097 38 ]
    -905 328 o
    -964 460 o
    -1142 562 v
    -1185 531 v
    0 0 z
  EndSpiro
-557 477.999969482 m 5
 -704 557 l 5
 -760.150636318 534.62216406 -808.778712464 493.810764285 -840.557605555 442.393223949 c 4
 -872.336498645 390.975683612 -887.094108846 329.230456408 -882 268.999969482 c 4
 -875.886105079 196.711983653 -840.857368705 127.275084943 -786.352239709 79.3989581217 c 4
 -731.847110712 31.5228313003 -658.472828185 5.74086205683 -586 8.99996948242 c 5
 -505 66.9999694824 l 1029
  Spiro
    -557 478 {
    -704 557 v
    -882 269 o
    -586 8.99997 v
    -505 67 v
    0 0 z
  EndSpiro
EndSplineSet
Fore
SplineSet
-78.1677246094 6004 m 1
 -31.1677246094 6006.5 l 1
 -36.4119601486 5976.68293234 -46.4095104481 5947.70698147 -60.6677246094 5921 c 0
 -82.67106288 5879.78566973 -114.906815051 5844.08370765 -153.667724609 5818 c 1
 -160.167724609 5823 l 1
 -145.521744914 5846.5827586 -132.162016993 5870.96426205 -120.167724609 5896 c 0
 -103.462703956 5930.86846127 -89.4089352284 5967.00672371 -78.1677246094 6004 c 1
  Spiro
    -31.1677 6006.5 v
    -60.6677 5921 o
    -153.668 5818 v
    -160.168 5823 v
    -120.168 5896 o
    -78.1677 6004 v
    -78.1677 6004 z
  EndSpiro
168.165690104 6088.66666667 m 1
 7.83235677083 6132 l 1
 119.832356771 6207.33333333 l 1
 262.499023438 6162.66666667 l 1
 168.165690104 6088.66666667 l 1
  Spiro
    168.166 6088.67 v
    7.83236 6132 v
    119.832 6207.33 v
    262.499 6162.67 v
    168.166 6088.67 z
  EndSpiro
-101.500976562 5550 m 1
 -101.500976562 6063 l 1
 7.83235677083 6132 l 1
 31.4990234375 6146 l 1
 31.4990234375 5550 l 1
 -101.500976562 5550 l 1
  Spiro
    -101.501 5550 v
    -101.501 6063 v
    7.83236 6132 v
    31.499 6146 v
    31.499 5550 v
    0 0 z
  EndSpiro
-7176.5 4376.5 m 1
 -7089.5 4315.5 l 1025
  Spiro
    -7176.5 4376.5 {
    -7089.5 4315.5 v
    0 0 z
  EndSpiro
-7501.5 4314 m 1
 -7602.5 4329.5 l 1
 -7492.5 4443.5 l 1
 -7501.5 4314 l 1
  Spiro
    -7501.5 4314 v
    -7602.5 4329.5 v
    -7492.5 4443.5 v
    0 0 z
  EndSpiro
-7489 4479 m 0
 -7502.09640499 4444.8495333 -7504.08825299 4407.06526549 -7498 4371 c 0
 -7492.42473932 4337.97357073 -7480.98289878 4306.12097948 -7476 4273 c 0
 -7470.18331959 4234.33693233 -7474.8070537 4193.60756099 -7493 4159 c 1024
  Spiro
    -7489 4479 {
    -7498 4371 o
    -7476 4273 o
    -7493 4159 o
    0 0 z
  EndSpiro
-7331 4179 m 0
 -7331.95452294 4210.57022094 -7335.81349042 4242.02715603 -7342 4273 c 0
 -7351.40771799 4320.09986746 -7366.21227361 4365.97763208 -7376 4413 c 0
 -7387.34800802 4467.51830048 -7390.68556009 4523.99469645 -7382 4579 c 1
 -7286 4657 l 1
 -7244.98775822 4650.04118926 -7205.49769973 4634.24516586 -7171 4611 c 0
 -7136.92945599 4588.04265929 -7107.76225565 4557.84602834 -7086 4523 c 1024
  Spiro
    -7331 4179 {
    -7342 4273 o
    -7376 4413 o
    -7382 4579 v
    -7286 4657 v
    -7171 4611 o
    -7086 4523 v
    0 0 z
  EndSpiro
-7583 4059 m 0
 -7541.06888451 4057.33775707 -7499.42384939 4050.26471921 -7459 4039 c 0
 -7405.06980038 4023.97153128 -7353.43457329 4001.70531892 -7300 3985 c 0
 -7241.17781418 3966.61034489 -7179.60069488 3956.10702631 -7118 3958 c 1024
  Spiro
    -7583 4059 {
    -7459 4039 o
    -7300 3985 o
    -7118 3958 o
    0 0 z
  EndSpiro
-1293.01660156 22.681640625 m 1
 -1194.71875 91.5107421875 l 1
 -1101.71875 47.509765625 l 1
 -1050.71875 76.5107421875 l 2
 -1046.83789062 78.716796875 -1042.49316406 81.20703125 -1038.92285156 83.2734375 c 1
 -1025.96679688 95.216796875 -1014.21289062 107.939453125 -1003.72949219 122.053710938 c 0
 -966.684570312 171.928710938 -948.913085938 236.083007812 -957.016601562 297.681640625 c 0
 -962.170898438 336.854492188 -977.2265625 374.610351562 -999.262695312 407.345703125 c 0
 -1002.82910156 412.243164062 -1006.44921875 416.888671875 -1010.28125 421.489257812 c 0
 -1054.73730469 474.865234375 -1118.890625 511.16796875 -1187.26367188 523.310546875 c 1
 -1231.28125 492.489257812 l 1
 -1237.01660156 500.681640625 l 1
 -1194.01757812 531.680664062 l 1
 -1095.71875 600.509765625 l 1
 -1026.93945312 588.56640625 -962.395507812 552.150390625 -917.71875 498.510742188 c 0
 -912.930664062 492.762695312 -908.375 486.814453125 -904.0703125 480.688476562 c 0
 -904.022460938 480.620117188 -904.0703125 480.688476562 -904.022460938 480.620117188 c 2
 -903.970703125 480.547851562 l 2
 -903.922851562 480.479492188 -903.969726562 480.544921875 -903.921875 480.477539062 c 0
 -903.874023438 480.409179688 -903.919921875 480.474609375 -903.872070312 480.40625 c 0
 -903.82421875 480.337890625 -903.87109375 480.404296875 -903.823242188 480.3359375 c 0
 -903.775390625 480.267578125 -903.821289062 480.333984375 -903.7734375 480.265625 c 2
 -898.038085938 472.07421875 l 2
 -874.396484375 438.301757812 -858.35546875 399.153320312 -852.982421875 358.319335938 c 0
 -844.87890625 296.720703125 -862.650390625 232.56640625 -899.6953125 182.69140625 c 0
 -920.875976562 154.174804688 -947.674804688 130.918945312 -976.837890625 110.489257812 c 2
 -1075.13574219 41.66015625 l 2
 -1096.98046875 26.3583984375 -1120.15136719 12.6416015625 -1143.28125 -0.509765625 c 2
 -1194.28125 -29.5107421875 l 1
 -1287.28125 14.4892578125 l 1
 -1293.01660156 22.681640625 l 1
  Spiro
    -1293.02 22.6816 v
    -1194.72 91.5107 v
    -1101.72 47.5098 v
    -1050.72 76.5107 ]
    -1046.73 78.783 o
    -1042.7 81.0942 o
    -1038.92 83.2734 v
    -1026.38 95.4867 o
    -1014.62 108.394 o
    -1003.73 122.054 o
    -973.377 176.007 o
    -957.285 235.916 o
    -957.017 297.682 o
    -965.352 336.211 o
    -979.679 373.106 o
    -999.263 407.346 o
    -1002.85 412.162 o
    -1006.52 416.871 o
    -1010.28 421.489 o
    -1060.67 468.87 o
    -1120.93 503.405 o
    -1187.26 523.311 v
    -1231.28 492.489 v
    -1237.02 500.682 v
    -1194.02 531.681 v
    -1095.72 600.51 v
    -1028.99 580.705 o
    -968.383 546.099 o
    -917.719 498.511 o
    -913.013 492.703 o
    -908.454 486.748 o
    -904.07 480.688 o
    -904.022 480.62 v
    -903.971 480.548 ]
    -903.947 480.514 o
    -903.945 480.511 o
    -903.922 480.478 o
    -903.898 480.444 o
    -903.896 480.44 o
    -903.872 480.406 o
    -903.849 480.373 o
    -903.847 480.369 o
    -903.823 480.336 o
    -903.8 480.303 o
    -903.797 480.299 o
    -903.773 480.266 [
    -898.038 472.074 ]
    -877.062 436.683 o
    -861.786 398.415 o
    -852.982 358.319 o
    -853.251 296.554 o
    -869.343 236.645 o
    -899.695 182.691 o
    -922.604 155.863 o
    -948.611 131.929 o
    -976.838 110.489 [
    -1075.14 41.6602 ]
    -1097.35 26.8633 o
    -1120.21 12.8542 o
    -1143.28 -0.509766 [
    -1194.28 -29.5107 v
    -1287.28 14.4893 v
    0 0 z
  EndSpiro
-877.22265625 90.7802734375 m 1
 -883.0078125 99.0419921875 l 2
 -911.749023438 140.106445312 -929.791015625 188.712890625 -934.017578125 238.680664062 c 0
 -939.111328125 298.912109375 -924.353515625 360.65625 -892.57421875 412.07421875 c 0
 -872.265625 444.932617188 -845.077148438 473.459960938 -813.440429688 495.61328125 c 2
 -715.142578125 564.442382812 l 2
 -697.2734375 576.954101562 -677.986328125 587.432617188 -657.71875 595.509765625 c 1
 -510.71875 516.509765625 l 1
 -504.983398438 508.318359375 l 1
 -603.28125 439.489257812 l 1
 -750.28125 518.489257812 l 2
 -751.8359375 517.870117188 -753.83203125 517.048828125 -755.0703125 516.528320312 c 1
 -767.591796875 503.08203125 -778.859375 488.375 -788.540039062 472.711914062 c 0
 -820.3203125 421.293945312 -835.077148438 359.548828125 -829.983398438 299.318359375 c 0
 -825.897460938 251.01953125 -808.783203125 203.782226562 -781.755859375 163.73046875 c 0
 -769.59375 146.990234375 -755.625 131.572265625 -740.071289062 117.909179688 c 0
 -686.0546875 70.462890625 -613.340820312 44.732421875 -541.666992188 47.4296875 c 1
 -458.71875 105.510742188 l 1
 -452.983398438 97.318359375 l 1
 -533.983398438 39.318359375 l 1
 -632.28125 -29.5107421875 l 1
 -704.75390625 -32.76953125 -778.127929688 -6.9873046875 -832.633789062 40.888671875 c 0
 -849.333007812 55.556640625 -864.204101562 72.2490234375 -876.975585938 90.427734375 c 2
 -877.0234375 90.4951171875 l 1
 -877.07421875 90.568359375 l 1
 -877.22265625 90.7802734375 l 1
  Spiro
    -877.223 90.7803 v
    -883.008 99.042 ]
    -908.046 142.346 o
    -925.314 189.444 o
    -934.018 238.681 o
    -932.607 298.918 o
    -918.555 357.71 o
    -892.574 412.074 o
    -870.087 443.384 o
    -843.476 471.437 o
    -813.44 495.613 [
    -715.143 564.442 ]
    -696.836 576.252 o
    -677.624 586.655 o
    -657.719 595.51 v
    -510.719 516.51 v
    -504.983 508.318 v
    -603.281 439.489 v
    -750.281 518.489 ]
    -751.937 517.822 o
    -753.625 517.13 o
    -755.07 516.528 v
    -767.15 502.687 o
    -778.353 488.03 o
    -788.54 472.712 o
    -814.521 418.347 o
    -828.573 359.555 o
    -829.983 299.318 o
    -821.682 251.647 o
    -805.343 205.906 o
    -781.756 163.73 o
    -769.013 147.463 o
    -755.074 132.126 o
    -740.071 117.909 o
    -680.618 77.9823 o
    -612.886 53.9442 o
    -541.667 47.4297 v
    -458.719 105.511 v
    -452.983 97.3184 v
    -533.983 39.3184 v
    -632.281 -29.5107 v
    -704.251 -23.3618 o
    -772.636 0.666968 o
    -832.634 40.8887 o
    -848.698 56.1956 o
    -863.528 72.7815 o
    -876.976 90.4277 [
    -877.023 90.4951 v
    -877.074 90.5684 v
    0 0 z
  EndSpiro
EndSplineSet
EndChar
StartChar: exclam
Encoding: 33 33 209
Width: 212
VWidth: 0
Flags: MW
LayerCount: 3
Fore
SplineSet
195 195 m 1
 187.928710938 202.071289062 l 1
 429.504882812 537.2890625 l 5
 492.928710938 600.071289062 l 5
 500 593 l 5
 258.423828125 257.782226562 l 1
 195 195 l 1
188.192382812 64.970703125 m 17
 180.90234375 75.380859375 172.7890625 85.21484375 163.95703125 94.353515625 c 0
 151.59375 107.146484375 137.81640625 118.571289062 122.95703125 128.354492188 c 1
 24.6591796875 59.525390625 l 1
 30.39453125 51.333984375 l 1
 45.25390625 41.55078125 59.03125 30.1259765625 71.39453125 17.3330078125 c 0
 79.0810546875 9.37890625 86.294921875 0.794921875 92.7763671875 -8.06640625 c 0
 93.7529296875 -9.525390625 94.7138671875 -10.9951171875 95.6591796875 -12.474609375 c 2
 101.39453125 -20.666015625 l 9
 188.192382812 64.970703125 l 17
EndSplineSet
EndChar
StartChar: quotedbl
Encoding: 34 34 231
Width: 316
VWidth: 0
Flags: MW
LayerCount: 3
Fore
SplineSet
194 613 m 25
 194 412 l 25
 303 452.333007812 l 25
 303 613 l 25
 194 613 l 25
14 613 m 25
 14 412 l 25
 123 452.333007812 l 25
 123 613 l 25
 14 613 l 25
EndSplineSet
EndChar
StartChar: numbersign
Encoding: 35 35 236
Width: 527
VWidth: 0
Flags: MW
LayerCount: 3
Fore
SplineSet
28 111.071289062 m 5
 28 195.923828125 l 5
 445 195.923828125 l 5
 445 188.853515625 l 5
 445 104 l 5
 28 104 l 5
 28 111.071289062 l 5
92 295.109375 m 1
 92 379.961914062 l 1
 510 379.961914062 l 1
 510 372.890625 l 1
 510 288.038085938 l 1
 92 288.038085938 l 1
 92 295.109375 l 1
472.890625 470 m 1
 479.961914062 470 l 1
 323.961914062 -20 l 1
 239.108398438 -20 l 1
 232.038085938 -20 l 1
 388.038085938 470 l 1
 472.890625 470 l 1
292.890625 470 m 1
 299.961914062 470 l 1
 143.961914062 -20 l 1
 59.109375 -20 l 1
 52.0380859375 -20 l 1
 208.038085938 470 l 1
 292.890625 470 l 1
EndSplineSet
EndChar
StartChar: dollar
Encoding: 36 36 245
Width: 439
VWidth: 0
InSpiro: 1
Flags: HWO
LayerCount: 3
Back
SplineSet
356.6796875 410 m 4
 311.263671875 431.564453125 264.3828125 449.208007812 216.375976562 454 c 4
 187.44921875 456.88671875 157.498046875 454.123046875 131.09375 437.897460938 c 4
 117.891601562 429.784179688 105.751953125 418.260742188 96.224609375 403.484375 c 4
 86.697265625 388.708007812 79.869140625 370.654296875 77.142578125 351.405273438 c 4
 74.4150390625 332.15625 75.865234375 311.838867188 81.3935546875 293.719726562 c 4
 86.9228515625 275.600585938 96.4677734375 259.859375 108.254882812 248.442382812 c 4
 120.04296875 237.024414062 133.934570312 229.948242188 148.1796875 226.266601562 c 4
 162.424804688 222.583984375 177.009765625 222.220703125 191.51171875 222 c 6
 257.223632812 221 l 6
 271.49609375 220.783203125 285.881835938 220.3515625 299.80078125 216.086914062 c 4
 313.720703125 211.822265625 327.114257812 203.651367188 337.940429688 191.081054688 c 4
 348.765625 178.509765625 356.857421875 161.645507812 360.745117188 143.086914062 c 4
 364.6328125 124.528320312 364.319335938 104.48046875 360.231445312 86 c 4
 352.79296875 52.3642578125 333.162109375 25.107421875 309.91015625 9.453125 c 4
 286.657226562 -6.2001953125 260.096679688 -11.3154296875 234.13671875 -10 c 4
 179.911132812 -7.2529296875 127.372070312 20.0419921875 81.400390625 59 c 1028
  Spiro
    356.68 410 {
    216.376 454 o
    191.512 222 [
    257.224 221 ]
    360.232 86 o
    234.136 -10 o
    81.4 59 o
    0 0 z
  EndSpiro
EndSplineSet
Fore
SplineSet
243.669921875 577.461914062 m 1
 252.330078125 572.461914062 l 1
 252.330078125 -111.5390625 l 1
 192.330078125 -165.461914062 l 1
 183.669921875 -160.461914062 l 1
 183.669921875 523.538085938 l 1
 243.669921875 577.461914062 l 1
  Spiro
    243.67 577.462 v
    252.33 572.462 v
    252.33 -111.539 v
    192.33 -165.462 v
    183.67 -160.462 v
    183.67 523.538 v
    0 0 z
  EndSpiro
408.697265625 440.319335938 m 1
 310.3984375 371.490234375 l 1
 264.982421875 393.053710938 218.1015625 410.698242188 170.094726562 415.489257812 c 0
 159.727539062 416.524414062 148.924804688 416.80859375 138.80078125 416.055664062 c 1
 134.1484375 405.290039062 130.873046875 393.821289062 129.16015625 381.724609375 c 0
 126.432617188 362.475585938 127.881835938 342.157226562 133.41015625 324.038085938 c 0
 136.440429688 314.110351562 140.78125 304.715820312 145.862304688 296.65625 c 0
 148.59375 293.140625 151.481445312 289.91015625 154.536132812 286.952148438 c 0
 166.32421875 275.534179688 180.215820312 268.458984375 194.4609375 264.77734375 c 0
 208.706054688 261.094726562 223.291015625 260.731445312 237.79296875 260.510742188 c 2
 303.504882812 259.510742188 l 2
 317.77734375 259.293945312 332.163085938 258.862304688 346.08203125 254.59765625 c 0
 360.001953125 250.333007812 373.395507812 242.162109375 384.221679688 229.591796875 c 0
 386.134765625 227.369140625 387.962890625 225.013671875 389.697265625 222.537109375 c 2
 395.43359375 214.345703125 l 1
 395.48046875 214.279296875 l 1
 395.55078125 214.178710938 l 2
 403.61328125 202.60546875 409.57421875 188.625 412.762695312 173.40625 c 0
 416.649414062 154.846679688 416.3359375 134.798828125 412.248046875 116.318359375 c 0
 404.981445312 83.4560546875 386.075195312 56.6826171875 363.525390625 40.8701171875 c 2
 265.2265625 -27.958984375 l 2
 265.12109375 -28.033203125 264.98828125 -28.1259765625 264.98828125 -28.1259765625 c 2
 264.38671875 -28.5439453125 264.100585938 -28.7392578125 263.62890625 -29.056640625 c 0
 240.375976562 -44.7109375 213.815429688 -49.826171875 187.85546875 -48.5107421875 c 0
 133.629882812 -45.763671875 81.0908203125 -18.46875 35.119140625 20.4892578125 c 1
 29.3837890625 28.6806640625 l 1
 127.681640625 97.5107421875 l 1
 173.653320312 58.552734375 226.192382812 31.2578125 280.41796875 28.509765625 c 0
 286.638671875 28.1953125 292.934570312 28.2509765625 299.142578125 28.7294921875 c 1
 302.874023438 36.82421875 306.110351562 46.166015625 308.21484375 55.6806640625 c 0
 312.301757812 74.1611328125 312.615234375 94.208984375 308.728515625 112.768554688 c 0
 305.90625 126.2421875 300.915039062 138.7265625 294.196289062 149.482421875 c 0
 293.458984375 150.422851562 292.506835938 151.586914062 291.659179688 152.571289062 c 0
 280.833007812 165.141601562 267.439453125 173.311523438 253.51953125 177.577148438 c 0
 239.600585938 181.840820312 225.21484375 182.2734375 210.942382812 182.489257812 c 2
 145.23046875 183.490234375 l 2
 130.728515625 183.7109375 116.143554688 184.073242188 101.8984375 187.755859375 c 0
 87.6533203125 191.438476562 73.76171875 198.513671875 61.9736328125 209.931640625 c 0
 57.818359375 213.956054688 54.01171875 218.428710938 50.44921875 223.493164062 c 2
 50.3779296875 223.594726562 l 1
 50.3310546875 223.662109375 l 1
 44.5947265625 231.854492188 l 2
 38.1708984375 241.03515625 32.939453125 251.723632812 29.3759765625 263.400390625 c 0
 23.84765625 281.51953125 22.3984375 301.837890625 25.1259765625 321.086914062 c 0
 27.8515625 340.334960938 34.6806640625 358.389648438 44.2080078125 373.165039062 c 0
 52.455078125 385.95703125 62.66015625 396.310546875 73.8173828125 404.125 c 2
 172.116210938 472.954101562 l 2
 173.84765625 474.166992188 175.6015625 475.318359375 177.375 476.408203125 c 0
 203.779296875 492.6328125 233.73046875 495.397460938 262.657226562 492.509765625 c 0
 310.6640625 487.71875 357.544921875 470.075195312 402.9609375 448.510742188 c 1
 408.697265625 440.319335938 l 1
  Spiro
    408.697 440.319 v
    310.398 371.49 v
    264.553 391.399 o
    217.666 406.757 o
    170.095 415.489 o
    159.634 416.263 o
    149.099 416.473 o
    138.801 416.056 v
    134.618 405.07 o
    131.384 393.598 o
    129.16 381.725 o
    127.821 362.26 o
    129.248 342.75 o
    133.41 324.038 o
    136.852 314.327 o
    141.054 305.122 o
    145.862 296.656 o
    148.643 293.239 o
    151.54 289.998 o
    154.536 286.952 o
    166.948 276.955 o
    180.412 269.619 o
    194.461 264.777 o
    208.789 262.085 o
    223.294 260.896 o
    237.793 260.511 [
    303.505 259.511 ]
    317.779 259.089 o
    332.043 257.717 o
    346.082 254.598 o
    359.738 249.02 o
    372.628 240.704 o
    384.222 229.592 o
    386.104 227.328 o
    387.934 224.97 o
    389.697 222.537 [
    395.434 214.346 v
    395.48 214.279 v
    395.551 214.179 ]
    402.881 201.859 o
    408.68 188.155 o
    412.763 173.406 o
    415.264 154.483 o
    415.061 135.189 o
    412.248 116.318 o
    401.412 85.6944 o
    384.545 60.1332 o
    363.525 40.8701 [
    265.227 -27.959 ]
    265.118 -28.0352 o
    265.027 -28.0992 o
    264.988 -28.126 v
    264.474 -28.4822 o
    264.057 -28.7675 o
    263.629 -29.0566 o
    239.443 -41.341 o
    213.845 -47.5339 o
    187.855 -48.5107 o
    134.425 -38.0759 o
    83.0494 -14.0741 o
    35.1191 20.4893 v
    29.3838 28.6807 v
    127.682 97.5107 v
    175.612 62.9474 o
    226.988 38.9453 o
    280.418 28.5098 o
    286.651 28.3207 o
    292.918 28.3902 o
    299.143 28.7295 v
    302.682 37.1913 o
    305.759 46.2727 o
    308.215 55.6807 o
    311.027 74.5512 o
    311.23 93.8453 o
    308.729 112.769 o
    305.204 125.872 o
    300.317 138.19 o
    294.196 149.482 o
    293.4 150.481 o
    292.529 151.543 o
    291.659 152.571 o
    280.065 163.683 o
    267.175 171.999 o
    253.52 177.577 o
    239.481 180.696 o
    225.217 182.068 o
    210.942 182.489 [
    145.23 183.49 ]
    130.731 183.875 o
    116.227 185.064 o
    101.898 187.756 o
    87.8498 192.598 o
    74.3851 199.935 o
    61.9736 209.932 o
    57.9346 214.106 o
    54.0932 218.625 o
    50.4492 223.493 [
    50.3779 223.595 v
    50.3311 223.662 v
    44.5947 231.854 ]
    38.5916 241.508 o
    33.4732 252.083 o
    29.376 263.4 o
    25.2138 282.112 o
    23.787 301.622 o
    25.126 321.087 o
    29.162 339.842 o
    35.6397 357.391 o
    44.208 373.165 o
    53.0611 385.129 o
    63.0252 395.477 o
    73.8174 404.125 [
    172.116 472.954 ]
    173.853 474.145 o
    175.61 475.299 o
    177.375 476.408 o
    204.764 488.427 o
    233.587 493.226 o
    262.657 492.51 o
    310.229 483.778 o
    357.116 468.419 o
    402.961 448.511 v
    0 0 z
  EndSpiro
EndSplineSet
EndChar
StartChar: percent
Encoding: 37 37 223
Width: 328
VWidth: 0
Flags: MW
LayerCount: 3
Fore
SplineSet
12.052734375 207.052734375 m 4
 11.400390625 210.810546875 13.994140625 214.49609375 17.75 215.149414062 c 6
 307.549804688 265.549804688 l 6
 311.307617188 266.202148438 314.993164062 263.608398438 315.646484375 259.852539062 c 4
 316.299804688 256.095703125 313.706054688 252.409179688 309.94921875 251.755859375 c 6
 20.1494140625 201.35546875 l 6
 16.392578125 200.703125 12.70703125 203.296875 12.052734375 207.052734375 c 4
82.38671875 423.833984375 m 4
 82.38671875 383.170898438 100.844726562 347.25390625 129.143554688 325.4921875 c 4
 145.874023438 314.078125 165.842773438 307.393554688 187.065429688 307.393554688 c 4
 197.76953125 307.393554688 208.071289062 309.0625 217.8984375 312.20703125 c 5
 230.740234375 331.7890625 238.4296875 356.048828125 238.4296875 382.138671875 c 4
 238.4296875 422.803710938 219.970703125 458.721679688 191.673828125 480.481445312 c 4
 174.94140625 491.895507812 154.973632812 498.580078125 133.75 498.580078125 c 4
 123.045898438 498.580078125 112.745117188 496.912109375 102.916992188 493.767578125 c 5
 90.076171875 474.185546875 82.38671875 449.924804688 82.38671875 423.833984375 c 4
19 382.138671875 m 4
 19 422.568359375 37.2822265625 458.350585938 65.2841796875 480.1171875 c 6
 123.635742188 525.4609375 l 6
 141.651367188 539.431640625 163.482421875 547.573242188 187.06640625 547.573242188 c 4
 209.399414062 547.573242188 230.180664062 540.256835938 247.517578125 527.697265625 c 6
 252.552734375 524.048828125 l 6
 252.594726562 524.017578125 252.5546875 524.047851562 252.595703125 524.016601562 c 4
 252.637695312 523.986328125 252.59765625 524.015625 252.638671875 523.985351562 c 6
 252.68359375 523.953125 l 6
 252.725585938 523.922851562 252.68359375 523.953125 252.725585938 523.922851562 c 4
 282.306640625 502.404296875 301.81640625 465.598632812 301.81640625 423.833984375 c 4
 301.81640625 383.40625 283.534179688 347.624023438 255.53125 325.856445312 c 6
 197.180664062 280.512695312 l 6
 179.1640625 266.541992188 157.33203125 258.400390625 133.75 258.400390625 c 4
 111.416992188 258.400390625 90.6357421875 265.716796875 73.298828125 278.278320312 c 6
 68.2626953125 281.926757812 l 6
 68.2216796875 281.956054688 68.26171875 281.927734375 68.2197265625 281.95703125 c 4
 68.177734375 281.98828125 68.21875 281.958984375 68.1767578125 281.989257812 c 6
 68.1328125 282.021484375 l 6
 68.0908203125 282.051757812 68.1328125 282.021484375 68.0908203125 282.051757812 c 4
 38.509765625 303.5703125 19 340.375976562 19 382.138671875 c 4
80.236328125 84.2333984375 m 4
 80.236328125 43.5693359375 98.6943359375 7.65234375 126.993164062 -14.1083984375 c 4
 143.724609375 -25.5224609375 163.692382812 -32.20703125 184.916015625 -32.20703125 c 4
 195.620117188 -32.20703125 205.920898438 -30.5390625 215.749023438 -27.3935546875 c 5
 228.58984375 -7.8125 236.279296875 16.4482421875 236.279296875 42.5390625 c 4
 236.279296875 83.2021484375 217.821289062 119.119140625 189.5234375 140.880859375 c 4
 172.791015625 152.294921875 152.823242188 158.979492188 131.599609375 158.979492188 c 4
 120.896484375 158.979492188 110.595703125 157.310546875 100.767578125 154.166015625 c 5
 87.9267578125 134.583984375 80.236328125 110.32421875 80.236328125 84.2333984375 c 4
16.849609375 42.5390625 m 4
 16.849609375 82.966796875 35.1318359375 118.75 63.134765625 140.516601562 c 6
 121.485351562 185.860351562 l 6
 139.501953125 199.831054688 161.333007812 207.97265625 184.916015625 207.97265625 c 4
 207.249023438 207.97265625 228.030273438 200.65625 245.368164062 188.096679688 c 6
 250.403320312 184.446289062 l 6
 250.444335938 184.416992188 250.404296875 184.446289062 250.446289062 184.416015625 c 4
 250.48828125 184.384765625 250.447265625 184.415039062 250.489257812 184.384765625 c 6
 250.533203125 184.3515625 l 6
 250.575195312 184.322265625 250.533203125 184.3515625 250.575195312 184.322265625 c 4
 280.15625 162.802734375 299.666015625 125.997070312 299.666015625 84.2333984375 c 4
 299.666015625 43.8056640625 281.384765625 8.0224609375 253.381835938 -13.744140625 c 6
 195.030273438 -59.087890625 l 6
 177.014648438 -73.05859375 155.182617188 -81.2001953125 131.599609375 -81.2001953125 c 4
 109.266601562 -81.2001953125 88.4853515625 -73.8837890625 71.1484375 -61.32421875 c 6
 66.11328125 -57.6748046875 l 6
 66.0712890625 -57.64453125 66.111328125 -57.673828125 66.0703125 -57.6435546875 c 4
 66.0283203125 -57.61328125 66.068359375 -57.6416015625 66.02734375 -57.6123046875 c 6
 65.982421875 -57.580078125 l 6
 65.9404296875 -57.5498046875 65.982421875 -57.580078125 65.9404296875 -57.5498046875 c 4
 36.359375 -36.03125 16.849609375 0.775390625 16.849609375 42.5390625 c 4
EndSplineSet
EndChar
StartChar: quotesingle
Encoding: 39 39 230
Width: 146
VWidth: 0
Flags: MW
LayerCount: 3
Fore
SplineSet
14 613 m 25
 14 412 l 25
 123 452.333007812 l 25
 123 613 l 25
 14 613 l 25
EndSplineSet
EndChar
StartChar: parenleft
Encoding: 40 40 220
Width: 248
VWidth: 0
InSpiro: 1
Flags: MW
LayerCount: 3
Fore
SplineSet
86.716796875 57.74609375 m 1
 80.7509765625 66.267578125 l 2
 80.6787109375 66.3701171875 80.7490234375 66.2705078125 80.677734375 66.373046875 c 0
 32.6025390625 135.223632812 5.79296875 219.111328125 7.3662109375 303.15234375 c 0
 9.4541015625 414.643554688 60.931640625 524.314453125 145.366210938 597.153320312 c 1
 210.8984375 643.0390625 l 1
 216.633789062 634.84765625 l 1
 132.19921875 562.008789062 80.7216796875 452.338867188 78.6337890625 340.84765625 c 0
 77.0888671875 258.301757812 102.938476562 175.874023438 149.408203125 107.744140625 c 0
 171.228515625 77.400390625 197.301757812 50.001953125 226.8984375 27.0390625 c 1
 232.633789062 18.84765625 l 1
 167.1015625 -27.0390625 l 1
 136.211914062 -3.0712890625 109.202148438 25.6552734375 86.7890625 57.64453125 c 2
 86.716796875 57.74609375 l 1
  Spiro
    86.7168 57.7461 v
    80.751 66.2676 ]
    80.7157 66.3177 o
    80.7123 66.3229 o
    80.6777 66.373 o
    39.9878 139.608 o
    14.9738 219.796 o
    7.36621 303.152 o
    25.2755 412.634 o
    72.5866 513.427 o
    145.366 597.153 v
    210.898 643.039 v
    216.634 634.848 v
    143.854 551.122 o
    96.5431 450.329 o
    78.6338 340.848 o
    85.9535 258.947 o
    110.095 180.039 o
    149.408 107.744 o
    172.595 78.4656 o
    198.53 51.3995 o
    226.898 27.0391 v
    232.634 18.8477 v
    167.102 -27.0391 v
    137.56 -1.56741 o
    110.682 26.8279 o
    86.7891 57.6445 [
    0 0 z
  EndSpiro
EndSplineSet
EndChar
StartChar: parenright
Encoding: 41 41 221
Width: 248
VWidth: 0
Flags: MW
LayerCount: 3
Fore
SplineSet
153.217773438 558.25390625 m 1
 159.18359375 549.732421875 l 2
 159.255859375 549.629882812 159.185546875 549.729492188 159.256835938 549.626953125 c 0
 207.33203125 480.776367188 234.141601562 396.888671875 232.568359375 312.84765625 c 0
 230.48046875 201.356445312 179.002929688 91.685546875 94.568359375 18.8466796875 c 1
 29.0361328125 -27.0390625 l 1
 23.30078125 -18.84765625 l 1
 107.735351562 53.9912109375 159.212890625 163.661132812 161.30078125 275.15234375 c 0
 162.845703125 357.698242188 136.99609375 440.125976562 90.5263671875 508.255859375 c 0
 68.7060546875 538.599609375 42.6328125 565.998046875 13.0361328125 588.9609375 c 1
 7.30078125 597.15234375 l 1
 72.8330078125 643.0390625 l 1
 103.72265625 619.071289062 130.732421875 590.344726562 153.145507812 558.35546875 c 2
 153.217773438 558.25390625 l 1
  Spiro
    153.218 558.254 v
    159.183 549.732 ]
    159.219 549.682 o
    159.222 549.677 o
    159.257 549.627 o
    199.947 476.392 o
    224.961 396.204 o
    232.568 312.848 o
    214.659 203.366 o
    167.348 102.573 o
    94.5682 18.8467 v
    29.036 -27.0391 v
    23.3007 -18.8477 v
    96.0803 64.8781 o
    143.391 165.671 o
    161.301 275.152 o
    153.981 357.053 o
    129.84 435.961 o
    90.5262 508.256 o
    67.3399 537.534 o
    41.404 564.6 o
    13.036 588.961 v
    7.30066 597.152 v
    72.8329 643.039 v
    102.374 617.567 o
    129.252 589.172 o
    153.145 558.355 [
    0 0 z
  EndSpiro
EndSplineSet
EndChar
StartChar: asterisk
Encoding: 42 42 222
Width: 428
VWidth: 0
Flags: MW
LayerCount: 3
Fore
SplineSet
404 621 m 0
 404 610.106445312 394.893554688 601 384 601 c 2
 42 601 l 2
 31.1064453125 601 22 610.106445312 22 621 c 0
 22 631.893554688 31.1064453125 641 42 641 c 2
 384 641 l 2
 394.893554688 641 404 631.893554688 404 621 c 0
213 430 m 0
 202.106445312 430 193 439.106445312 193 450 c 2
 193 792 l 2
 193 802.893554688 202.106445312 812 213 812 c 0
 223.893554688 812 233 802.893554688 233 792 c 2
 233 450 l 2
 233 439.106445312 223.893554688 430 213 430 c 0
70.607421875 478.607421875 m 0
 62.9052734375 486.310546875 62.9052734375 499.189453125 70.607421875 506.892578125 c 2
 327.107421875 763.392578125 l 2
 334.810546875 771.094726562 347.689453125 771.094726562 355.392578125 763.392578125 c 0
 363.094726562 755.689453125 363.094726562 742.810546875 355.392578125 735.107421875 c 2
 98.892578125 478.607421875 l 2
 91.189453125 470.905273438 78.310546875 470.905273438 70.607421875 478.607421875 c 0
70.607421875 763.392578125 m 0
 78.310546875 771.094726562 91.189453125 771.094726562 98.892578125 763.392578125 c 2
 355.392578125 506.892578125 l 2
 363.094726562 499.189453125 363.094726562 486.310546875 355.392578125 478.607421875 c 0
 347.689453125 470.905273438 334.810546875 470.905273438 327.107421875 478.607421875 c 2
 70.607421875 735.107421875 l 2
 62.9052734375 742.810546875 62.9052734375 755.689453125 70.607421875 763.392578125 c 0
EndSplineSet
EndChar
StartChar: plus
Encoding: 43 43 227
Width: 492
VWidth: 0
Flags: MW
LayerCount: 3
Fore
SplineSet
218.1015625 3.9609375 m 1
 212.366210938 12.15234375 l 1
 212.365234375 398.15234375 l 1
 277.897460938 444.0390625 l 1
 283.633789062 435.846679688 l 1
 283.633789062 49.8466796875 l 1
 218.1015625 3.9609375 l 1
19.3662109375 205.153320312 m 5
 84.8984375 251.0390625 l 5
 470.8984375 251.0390625 l 5
 476.633789062 242.84765625 l 5
 411.1015625 196.9609375 l 5
 25.1015625 196.9609375 l 5
 19.3662109375 205.153320312 l 5
EndSplineSet
EndChar
StartChar: comma
Encoding: 44 44 72
Width: 214
VWidth: 0
Flags: MW
LayerCount: 3
Fore
SplineSet
104.124023438 143.78125 m 17
 19.271484375 58.9287109375 l 1
 103 0 l 1
 48.162109375 -61.609375 l 1
 55.2333984375 -68.6806640625 l 9
 196.1953125 79.2099609375 l 1
 104.124023438 143.78125 l 17
EndSplineSet
EndChar
StartChar: hyphen
Encoding: 45 45 228
Width: 302
VWidth: 0
Flags: MW
LayerCount: 3
Fore
SplineSet
19.3662109375 205.153320312 m 5
 84.8984375 251.0390625 l 5
 280.8984375 251.0390625 l 5
 286.633789062 242.84765625 l 5
 221.1015625 196.9609375 l 5
 25.1015625 196.9609375 l 5
 19.3662109375 205.153320312 l 5
EndSplineSet
EndChar
StartChar: period
Encoding: 46 46 74
Width: 172
VWidth: 0
Flags: MW
LayerCount: 3
Fore
SplineSet
156.7109375 70.7109375 m 5
 86 0 l 5
 15.2900390625 70.7109375 l 5
 86 141.420898438 l 5
 156.7109375 70.7109375 l 5
EndSplineSet
EndChar
StartChar: slash
Encoding: 47 47 206
Width: 296
VWidth: 0
Flags: MW
LayerCount: 3
Fore
SplineSet
279.749023438 644.8203125 m 1
 286.8203125 637.749023438 l 1
 70.8203125 24.7490234375 l 1
 14.251953125 -31.8193359375 l 1
 7.1806640625 -24.748046875 l 1
 223.180664062 588.251953125 l 1
 279.749023438 644.8203125 l 1
EndSplineSet
EndChar
StartChar: zero
Encoding: 48 48 172
Width: 440
VWidth: 0
Flags: MW
LayerCount: 3
Back
SplineSet
67.01953125 304.819335938 m 4
 67.01953125 473.080078125 160.642578125 609.638671875 276 609.638671875 c 4
 391.357421875 609.638671875 484.98046875 473.080078125 484.98046875 304.819335938 c 4
 484.98046875 136.55859375 391.357421875 0 276 0 c 4
 160.642578125 0 67.01953125 136.55859375 67.01953125 304.819335938 c 4
EndSplineSet
Fore
SplineSet
108.552734375 268.301757812 m 4
 108.552734375 190.889648438 134.920898438 122.514648438 175.34765625 81.0869140625 c 4
 199.249023438 59.359375 227.775390625 46.6337890625 258.09375 46.6337890625 c 4
 273.385742188 46.6337890625 288.1015625 49.8095703125 302.141601562 55.796875 c 5
 320.486328125 93.0751953125 331.470703125 139.258789062 331.470703125 188.926757812 c 4
 331.470703125 266.338867188 305.1015625 334.71484375 264.676757812 376.140625 c 4
 240.7734375 397.869140625 212.248046875 410.594726562 181.928710938 410.594726562 c 4
 166.637695312 410.594726562 151.921875 407.418945312 137.881835938 401.431640625 c 5
 119.538085938 364.154296875 108.552734375 317.969726562 108.552734375 268.301757812 c 4
18 188.926757812 m 4
 18 265.890625 44.1171875 334.009765625 84.12109375 375.447265625 c 6
 167.479492188 461.767578125 l 6
 193.216796875 488.36328125 224.404296875 503.862304688 258.094726562 503.862304688 c 4
 289.999023438 503.862304688 319.686523438 489.934570312 344.454101562 466.024414062 c 6
 351.647460938 459.077148438 l 6
 351.70703125 459.01953125 351.649414062 459.076171875 351.708984375 459.017578125 c 4
 351.768554688 458.959960938 351.7109375 459.016601562 351.770507812 458.958007812 c 6
 351.833984375 458.896484375 l 6
 351.893554688 458.838867188 351.833984375 458.896484375 351.893554688 458.838867188 c 4
 394.15234375 417.874023438 422.0234375 347.806640625 422.0234375 268.301757812 c 4
 422.0234375 191.337890625 395.90625 123.21875 355.90234375 81.7822265625 c 6
 272.543945312 -4.5390625 l 6
 246.806640625 -31.134765625 215.618164062 -46.6337890625 181.928710938 -46.6337890625 c 4
 150.024414062 -46.6337890625 120.336914062 -32.7060546875 95.5693359375 -8.794921875 c 6
 88.3759765625 -1.8486328125 l 6
 88.31640625 -1.791015625 88.3740234375 -1.8466796875 88.314453125 -1.7890625 c 4
 88.2548828125 -1.7314453125 88.3125 -1.787109375 88.2529296875 -1.7294921875 c 6
 88.189453125 -1.66796875 l 6
 88.1298828125 -1.6103515625 88.189453125 -1.66796875 88.1298828125 -1.6103515625 c 4
 45.87109375 39.3544921875 18 109.421875 18 188.926757812 c 4
EndSplineSet
EndChar
StartChar: one
Encoding: 49 49 173
Width: 130
VWidth: 0
Flags: MW
LayerCount: 3
Back
SplineSet
140 613 m 1
 140 0 l 1029
EndSplineSet
Fore
SplineSet
103.852539062 505.711914062 m 1
 110.923828125 498.640625 l 1
 110.923828125 38.890625 l 1
 26.0712890625 -45.9619140625 l 1
 19 -38.890625 l 1
 19 420.859375 l 1
 103.852539062 505.711914062 l 1
EndSplineSet
EndChar
StartChar: two
Encoding: 50 50 174
Width: 423
VWidth: 0
Flags: MW
LayerCount: 3
Back
SplineSet
68 308 m 0
 46.447265625 334.912109375 32.4501953125 367.809570312 28 402 c 0
 20.8037109375 457.293945312 39.51953125 515.3984375 77.578125 556.151367188 c 0
 115.635742188 596.903320312 172.356445312 619.592773438 228 616 c 0
 273.500976562 613.0625 317.7265625 592.743164062 349.327148438 559.874023438 c 0
 380.928710938 527.004882812 399.341796875 482.064453125 401.001953125 436.498046875 c 0
 402.661132812 390.932617188 387.880859375 345.63671875 363.482421875 307.118164062 c 0
 339.083007812 268.599609375 305.561523438 236.865234375 272 206 c 2
 48 0 l 1
 420 0 l 1025
  Spiro
    68 308 {
    28 402 o
    228 616 o
    272 206 [
    48 0 v
    420 0 v
    0 0 z
  EndSpiro
EndSplineSet
Fore
SplineSet
56.208984375 185.038085938 m 5
 49.1376953125 192.109375 l 6
 32.9736328125 212.29296875 22.4755859375 236.966796875 19.1376953125 262.609375 c 4
 13.740234375 304.080078125 27.77734375 347.658203125 56.3212890625 378.22265625 c 4
 57.376953125 379.352539062 58.451171875 380.46484375 59.544921875 381.557617188 c 6
 144.397460938 466.41015625 l 6
 172.862304688 494.87109375 213.80078125 510.556640625 253.990234375 507.961914062 c 4
 287.241210938 505.815429688 319.58203125 491.29296875 343.142578125 467.747070312 c 6
 350.213867188 460.67578125 l 6
 350.272460938 460.6171875 350.21875 460.670898438 350.27734375 460.611328125 c 4
 350.336914062 460.552734375 350.283203125 460.606445312 350.341796875 460.546875 c 6
 350.408203125 460.48046875 l 6
 350.467773438 460.420898438 350.411132812 460.477539062 350.469726562 460.418945312 c 4
 351.00390625 459.8828125 351.532226562 459.341796875 352.056640625 458.796875 c 4
 375.7578125 434.145507812 389.567382812 400.439453125 390.813476562 366.263671875 c 4
 392.057617188 332.08984375 380.971679688 298.118164062 362.672851562 269.229492188 c 4
 351.12109375 250.9921875 336.842773438 234.783203125 321.55078125 219.485351562 c 6
 236.698242188 134.631835938 l 6
 236.426757812 134.361328125 236.088867188 134.0234375 236.088867188 134.0234375 c 6
 226.965820312 124.936523438 218.302734375 116.901367188 209.208984375 108.538085938 c 6
 141.165039062 45.9619140625 l 5
 397.990234375 45.9619140625 l 5
 405.061523438 38.890625 l 5
 320.208007812 -45.9619140625 l 1
 41.208984375 -45.9619140625 l 1
 34.1376953125 -38.890625 l 1
 118.990234375 45.9619140625 l 5
 259.092773438 174.806640625 l 5
 262.857421875 179.725585938 267.120117188 185.717773438 270.749023438 191.448242188 c 4
 289.047851562 220.336914062 300.133789062 254.307617188 298.889648438 288.482421875 c 4
 297.672851562 321.854492188 284.46484375 354.798828125 261.780273438 379.26953125 c 4
 238.678710938 400.685546875 207.767578125 414.000976562 176.208984375 416.038085938 c 4
 156.71875 417.295898438 137.2265625 414.305664062 118.728515625 407.546875 c 5
 111.125976562 386.6953125 108.124023438 362.962890625 111.061523438 340.390625 c 4
 114.399414062 314.749023438 124.897460938 290.07421875 141.061523438 269.890625 c 5
 56.208984375 185.038085938 l 5
EndSplineSet
EndChar
StartChar: three
Encoding: 51 51 175
Width: 414
VWidth: 0
Flags: MW
LayerCount: 3
Back
SplineSet
50.6396484375 613 m 1
 392.080078125 613 l 1
 91.1201171875 364.1953125 l 1
 129.650390625 389.288085938 177.33984375 400.794921875 223.477539062 396.141601562 c 0
 269.615234375 391.489257812 313.837890625 370.717773438 346.3203125 338.544921875 c 0
 382.349609375 302.858398438 403.487304688 253.436523438 404.400390625 203.455078125 c 0
 405.190429688 160.141601562 390.987304688 116.717773438 364.721679688 81.712890625 c 0
 338.456054688 46.70703125 300.283203125 20.2998046875 257.666015625 7.5693359375 c 0
 215.047851562 -5.162109375 168.215820312 -4.1533203125 126.2109375 10.3740234375 c 0
 84.2060546875 24.9013671875 47.2568359375 52.869140625 22.48046875 88.884765625 c 1024
  Spiro
    50.64 613 {
    392.08 613 v
    91.12 364.195 v
    346.32 338.545 o
    404.4 203.455 o
    22.48 88.8846 o
    0 0 z
  EndSpiro
EndSplineSet
Fore
SplineSet
35.7109375 6.51953125 m 2
 35.65234375 6.578125 35.7099609375 6.5205078125 35.6513671875 6.5791015625 c 2
 35.58984375 6.640625 l 2
 35.5302734375 6.7001953125 35.58984375 6.640625 35.5302734375 6.7001953125 c 0
 29.0556640625 13.1982421875 23.173828125 20.251953125 18 27.7734375 c 1
 102.852539062 112.625976562 l 1
 109.923828125 105.5546875 l 2
 114.22265625 99.3056640625 118.91015625 93.4951171875 124.1796875 87.8701171875 c 0
 140.119140625 72.9208984375 159.637695312 61.0087890625 180.650390625 53.7421875 c 0
 212.154296875 42.8466796875 247.278320312 42.0908203125 279.2421875 51.638671875 c 0
 284.26953125 53.140625 288.89453125 54.7724609375 293.970703125 56.85546875 c 1
 300.944335938 74.3798828125 304.79296875 94.322265625 304.440429688 113.700195312 c 0
 303.788085938 149.357421875 289.521484375 184.44921875 264.833984375 210.942382812 c 0
 240.969726562 233.213867188 208.91015625 247.807617188 175.818359375 251.14453125 c 0
 141.21484375 254.633789062 105.44921875 246.00390625 76.55078125 227.184570312 c 1
 69.4794921875 234.255859375 l 1
 154.333007812 319.108398438 l 1
 268.859375 413.788085938 l 1
 46.1904296875 413.788085938 l 1
 39.119140625 420.859375 l 1
 123.971679688 505.711914062 l 1
 380.052734375 505.711914062 l 1
 387.124023438 498.640625 l 1
 302.271484375 413.788085938 l 1
 215.595703125 342.1328125 l 5
 228.083984375 343.9921875 240.963867188 344.342773438 253.600585938 343.068359375 c 4
 288.203125 339.579101562 321.372070312 324 345.732421875 299.870117188 c 0
 345.88671875 299.717773438 346.040039062 299.565429688 346.192382812 299.412109375 c 2
 353.526367188 292.078125 l 2
 380.107421875 265.37109375 395.684570312 228.6328125 396.364257812 191.482421875 c 0
 396.956054688 158.997070312 386.303710938 126.428710938 366.604492188 100.17578125 c 0
 362.341796875 94.4951171875 357.662109375 89.1162109375 352.620117188 84.078125 c 2
 267.766601562 -0.775390625 l 2
 249.506835938 -19.0224609375 226.5078125 -32.8037109375 201.459960938 -40.28515625 c 0
 169.497070312 -49.8330078125 134.372070312 -49.0771484375 102.868164062 -38.181640625 c 0
 80.24609375 -30.357421875 59.578125 -17.3349609375 42.8427734375 -0.6123046875 c 0
 42.783203125 -0.5537109375 42.8427734375 -0.6123046875 42.783203125 -0.5537109375 c 2
 35.7109375 6.51953125 l 2
EndSplineSet
EndChar
StartChar: four
Encoding: 52 52 176
Width: 438
VWidth: 0
Flags: MW
LayerCount: 3
Back
SplineSet
368 514 m 1
 368 0 l 1025
  Spiro
    368 514 {
    368 0 v
    0 0 z
  EndSpiro
232 613 m 0
 235.774414062 542.796875 217.345703125 471.564453125 180 412 c 0
 145.421875 356.849609375 94.82421875 311.874023438 36 284 c 1
 450 284 l 1025
  Spiro
    232 613 {
    180 412 o
    36 284 v
    450 284 v
    0 0 z
  EndSpiro
EndSplineSet
Fore
SplineSet
351.852539062 431.461914062 m 1
 358.923828125 424.390625 l 1
 358.923828125 38.890625 l 1
 274.0703125 -45.9619140625 l 1
 267 -38.890625 l 1
 267 346.609375 l 1
 351.852539062 431.461914062 l 1
249.852539062 505.711914062 m 1
 256.923828125 498.640625 l 1
 259.754882812 445.989257812 245.93359375 392.564453125 217.923828125 347.890625 c 0
 207.653320312 331.508789062 195.498046875 316.325195312 181.821289062 302.66015625 c 2
 138.123046875 258.961914062 l 1
 413.353515625 258.961914062 l 1
 420.423828125 251.891601562 l 1
 335.571289062 167.038085938 l 1
 25.0712890625 167.038085938 l 1
 18 174.109375 l 1
 102.853515625 258.961914062 l 1
 111.252929688 262.942382812 119.369140625 267.352539062 127.331054688 272.254882812 c 1
 154.310546875 316.30859375 167.787109375 369.033203125 165 420.859375 c 1
 249.852539062 505.711914062 l 1
EndSplineSet
EndChar
StartChar: five
Encoding: 53 53 177
Width: 404
VWidth: 0
Flags: MW
LayerCount: 3
Back
SplineSet
22.48 88.8846258545 m 0
 44.6061885257 56.6768012015 76.3558501994 31.1716954437 112.574070863 16.503611741 c 0
 148.792291527 1.83552803839 189.335774971 -1.93809494571 227.647200438 5.75260504067 c 0
 265.958625904 13.4433050271 301.88515781 32.5594977391 329.749125609 59.9549624373 c 0
 357.613093408 87.3504271355 377.316878248 122.901239073 386 161 c 0
 399.920317336 222.077900014 384.534360248 288.906766003 346.32 338.54493454 c 0
 310.413998224 385.184683475 255.153789649 416.317652778 196.716989045 423.363749525 c 0
 138.280188441 430.409846272 77.3111417351 413.328849354 31 377 c 1
 50.64 613 l 1
 332.08 613 l 1025
  Spiro
    22.48 88.8846 {
    386 161 o
    346.32 338.545 o
    31 377 v
    50.64 613 v
    332.08 613 v
    0 0 z
  EndSpiro
EndSplineSet
Fore
SplineSet
332.047851562 315.436523438 m 1
 339.181640625 308.302734375 l 2
 344.044921875 303.434570312 348.6015625 298.258789062 352.803710938 292.799804688 c 0
 381.463867188 255.5703125 393.00390625 205.44921875 382.563476562 159.640625 c 0
 376.153320312 131.517578125 361.737304688 105.245117188 341.359375 84.8330078125 c 2
 256.505859375 -0.01953125 l 2
 256.1796875 -0.3466796875 255.8515625 -0.671875 255.521484375 -0.99609375 c 0
 234.625 -21.5419921875 207.6796875 -35.8798828125 178.946289062 -41.6474609375 c 0
 150.212890625 -47.4150390625 119.8046875 -44.5849609375 92.6416015625 -33.583984375 c 0
 74.0419921875 -26.05078125 57.013671875 -14.7080078125 42.7978515625 -0.5498046875 c 0
 42.7392578125 -0.4912109375 42.7978515625 -0.5498046875 42.7392578125 -0.4912109375 c 2
 42.677734375 -0.4296875 l 2
 42.6181640625 -0.37109375 42.6767578125 -0.4287109375 42.6171875 -0.3701171875 c 0
 42.55859375 -0.310546875 42.6162109375 -0.3681640625 42.5576171875 -0.3095703125 c 2
 35.486328125 6.76171875 l 2
 29.03515625 13.21484375 23.16796875 20.25 18 27.771484375 c 1
 102.852539062 112.625 l 1
 109.923828125 105.553710938 l 2
 114.147460938 99.4052734375 118.90234375 93.515625 123.95703125 88.1123046875 c 0
 137.431640625 75.494140625 153.28125 65.2822265625 170.422851562 58.33984375 c 0
 197.586914062 47.3388671875 227.994140625 44.5087890625 256.728515625 50.2763671875 c 0
 265.756835938 52.0888671875 274.911132812 54.8740234375 283.189453125 58.193359375 c 1
 286.213867188 65.6357421875 288.803710938 73.8056640625 290.639648438 81.859375 c 0
 301.080078125 127.666992188 289.540039062 177.7890625 260.879882812 215.018554688 c 0
 257.6875 219.165039062 254.208984375 223.236328125 250.681640625 226.98828125 c 0
 224.861328125 251.288085938 191.037109375 267.305664062 155.749023438 271.560546875 c 0
 111.920898438 276.845703125 66.1943359375 264.03515625 31.4609375 236.788085938 c 1
 24.3896484375 243.859375 l 1
 39.1201171875 420.858398438 l 1
 123.97265625 505.711914062 l 1
 335.051757812 505.711914062 l 1
 342.123046875 498.640625 l 1
 257.270507812 413.788085938 l 1
 123.982421875 413.788085938 l 1
 117.401367188 334.709960938 l 1
 150.752929688 357.637695312 193.03125 368.368164062 233.530273438 363.484375 c 0
 270.37109375 359.04296875 305.529296875 341.8359375 331.796875 315.686523438 c 2
 331.85546875 315.627929688 l 1
 331.921875 315.561523438 l 1
 332.047851562 315.436523438 l 1
EndSplineSet
EndChar
StartChar: six
Encoding: 54 54 178
Width: 415
VWidth: 0
Flags: MW
LayerCount: 3
Back
SplineSet
268 613 m 0
 200.562366231 573.372017856 141.644703445 519.042830184 97.7002488707 454.335053763 c 0
 53.7557942967 389.627277341 24.1902708365 313.688324774 22 235.5 c 0
 20.1614702839 169.868135594 39.646156155 101.884714954 84.547392004 53.980635418 c 0
 106.998009928 30.0285956501 135.464610524 11.5791494639 166.832120866 1.89360615365 c 0
 198.199631207 -7.79193715665 232.303498698 -8.54764642616 264 0 c 0
 305.563371538 11.2084611735 342.26823305 38.3863191935 366.694686339 73.8333477739 c 0
 391.121139629 109.280376354 403.623791687 152.453491166 404 195.5 c 0
 404.434106644 245.171351778 388.880981779 295.0125551 359.552777798 335.103552684 c 0
 330.224573816 375.194550268 286.585198807 405.160266305 238 415.5 c 0
 184.983796454 426.782724773 126.941147917 413.486772687 85.1389141473 378.981831468 c 0
 43.3366803773 344.476890249 19.1216714294 289.627007504 22 235.5 c 1024
  Spiro
    268 613 {
    22 235.5 o
    264 0 o
    404 195.5 o
    238 415.5 o
    22 235.5 o
    0 0 z
  EndSpiro
EndSplineSet
Fore
SplineSet
68.4482421875 -1.8798828125 m 2
 68.3896484375 -1.8203125 68.4482421875 -1.8798828125 68.3896484375 -1.8203125 c 0
 67.26953125 -0.7001953125 66.16796875 0.4384765625 65.0849609375 1.59375 c 0
 31.4091796875 37.5224609375 16.7958984375 88.5107421875 18.1748046875 137.733398438 c 1
 18.1728515625 137.763671875 l 2
 17.814453125 144.506835938 18.017578125 151.234375 18.748046875 157.935546875 c 0
 19.4853515625 164.704101562 20.548828125 170.630859375 22.3310546875 177.20703125 c 0
 24.109375 187.108398438 26.349609375 196.459960938 29.1650390625 206.137695312 c 0
 39.0546875 240.129882812 55.033203125 272.533203125 74.9501953125 301.860351562 c 0
 88.671875 322.065429688 104.33984375 340.920898438 121.604492188 358.193359375 c 2
 206.45703125 443.045898438 l 2
 230.662109375 467.26171875 258.006835938 488.365234375 287.52734375 505.711914062 c 1
 294.598632812 498.640625 l 1
 209.74609375 413.788085938 l 1
 197.6171875 406.661132812 185.513671875 398.640625 174.608398438 390.608398438 c 1
 171.8125 386.78515625 169.404296875 383.3671875 166.874023438 379.641601562 c 0
 152.34375 358.247070312 139.873046875 335.12109375 130.340820312 310.954101562 c 1
 141.525390625 322.138671875 l 2
 144.345703125 324.962890625 147.299804688 327.654296875 150.381835938 330.198242188 c 0
 181.733398438 356.077148438 225.265625 366.048828125 265.02734375 357.586914062 c 0
 293.328125 351.564453125 319.390625 336.662109375 339.92578125 316.220703125 c 2
 339.984375 316.162109375 l 1
 340.048828125 316.09765625 l 1
 347.3046875 308.841796875 l 2
 353.091796875 303.049804688 358.436523438 296.817382812 363.263671875 290.21875 c 0
 385.259765625 260.150390625 396.923828125 222.76953125 396.598632812 185.515625 c 0
 396.31640625 153.23046875 386.939453125 120.850585938 368.620117188 94.2666015625 c 0
 363.807617188 87.2822265625 358.454101562 80.82421875 352.30078125 74.626953125 c 2
 352.30078125 74.626953125 352.143554688 74.46875 352.016601562 74.341796875 c 2
 267.1640625 -10.5107421875 l 2
 250.432617188 -27.2353515625 229.565429688 -39.8076171875 206.74609375 -45.9619140625 c 0
 182.973632812 -52.373046875 157.395507812 -51.8056640625 133.870117188 -44.5419921875 c 0
 111.967773438 -37.7783203125 91.951171875 -25.318359375 75.705078125 -9.1357421875 c 0
 75.646484375 -9.0771484375 75.705078125 -9.1357421875 75.646484375 -9.0771484375 c 2
 75.5830078125 -9.013671875 l 2
 75.5234375 -8.955078125 75.5810546875 -9.01171875 75.521484375 -8.953125 c 0
 75.462890625 -8.8935546875 68.4482421875 -1.8798828125 68.4482421875 -1.8798828125 c 2
114.247070312 254.952148438 m 0
 113.013671875 248.274414062 112.190429688 242.43359375 111.465820312 235.6796875 c 0
 110.748046875 228.987304688 110.287109375 222.262695312 110.098632812 215.515625 c 0
 108.72265625 166.413085938 123.421875 115.299804688 156.877929688 79.5146484375 c 0
 172.546875 64.8740234375 191.234375 53.6875 211.65234375 47.3818359375 c 0
 235.176757812 40.1181640625 260.754882812 39.55078125 284.52734375 45.9619140625 c 0
 287.575195312 46.7841796875 290.818359375 47.8037109375 293.625976562 48.7880859375 c 1
 300.768554688 67.416015625 304.499023438 87.65234375 304.674804688 107.734375 c 0
 305 144.987304688 293.3359375 182.368164062 271.33984375 212.4375 c 0
 267.491210938 217.697265625 263.219726562 222.827148438 258.8125 227.518554688 c 0
 238.8515625 246.280273438 214.029296875 259.962890625 187.245117188 265.663085938 c 0
 163.818359375 270.6484375 138.8671875 269.154296875 116.296875 261.938476562 c 1
 115.4921875 259.447265625 114.89453125 257.43359375 114.247070312 254.952148438 c 0
EndSplineSet
EndChar
StartChar: seven
Encoding: 55 55 179
Width: 435
VWidth: 0
Flags: MW
LayerCount: 3
Back
SplineSet
62 613 m 1
 472 613 l 1
 405.195061588 503.772923071 346.958050032 389.307072772 298 271 c 0
 261.419092647 182.602278575 230.014288217 92.0628955908 204 0 c 1024
  Spiro
    62 613 {
    472 613 v
    298 271 o
    204 0 o
    0 0 z
  EndSpiro
EndSplineSet
Fore
SplineSet
18 420.859375 m 1
 102.852539062 505.711914062 l 1
 410.352539062 505.711914062 l 1
 417.423828125 498.640625 l 1
 367.3203125 416.720703125 323.642578125 330.87109375 286.923828125 242.140625 c 0
 259.48828125 175.842773438 235.934570312 107.9375 216.423828125 38.890625 c 1
 131.571289062 -45.9619140625 l 1
 124.5 -38.890625 l 1
 144.010742188 30.1552734375 167.564453125 98.0615234375 195 164.359375 c 0
 230.666015625 250.544921875 272.828125 333.891601562 321.197265625 413.788085938 c 1
 25.0712890625 413.788085938 l 1
 18 420.859375 l 1
EndSplineSet
EndChar
StartChar: eight
Encoding: 56 56 180
Width: 452
VWidth: 0
Flags: MW
LayerCount: 3
Back
SplineSet
226 329 m 0
 170.890828616 328.802075811 114.303701915 314.464867064 71.2252961466 280.094663382 c 0
 49.6860932624 262.909561541 32.0106681751 240.616443711 21.6177398356 215.096803692 c 0
 11.224811496 189.577163673 8.38138288396 160.975721343 14 133.99987793 c 0
 18.6230477712 111.803915793 28.843250152 90.8741063707 43.0105278904 73.1732152246 c 0
 57.1778056289 55.4723240785 75.1735677403 40.989157102 94.9824187126 29.9599808389 c 0
 134.600120657 7.90162831277 180.655655596 -0.846201004987 226 -1 c 0
 271.684693472 -1.15495339133 318.148488172 7.39389459013 358.168104729 29.428992022 c 0
 378.177913007 40.4465407379 396.370434008 54.9685505263 410.692991609 72.7630201955 c 0
 425.01554921 90.5574898647 435.346291856 111.636474621 440 133.99987793 c 0
 445.648419424 161.143368185 442.735491314 189.928012581 432.198670702 215.572682916 c 0
 421.661850089 241.21735325 403.774666566 263.575621509 382.014127044 280.755628054 c 0
 338.493048 315.115641146 281.449573139 329.199146749 226 329 c 0
  Spiro
    226 329 o
    14 134 o
    226 -1 o
    440 134 o
    258 613 z
  EndSpiro
240 613 m 0
 193.644062774 614.863028592 145.681229792 606.111591898 106.806673087 580.791389832 c 0
 87.369394735 568.131288799 70.5637762063 551.167559067 59.2727015771 530.904351482 c 0
 47.981626948 510.641143897 42.4309665678 487.143431719 44 463.99987793 c 0
 45.402259939 443.316266186 52.4263197104 423.112526509 63.6952400441 405.71167704 c 0
 74.9641603778 388.310827571 90.3405160404 373.725553039 107.747578277 362.466231922 c 0
 142.561702752 339.94758969 184.558135819 330.297845931 226 329 c 0
 269.731609983 327.630445488 314.71432421 335.438344661 352.267463063 357.89031904 c 0
 371.04403249 369.11630623 387.682822114 384.155819796 399.726825004 402.418468623 c 0
 411.770827893 420.681117451 419.042304559 442.144325609 420 463.99987793 c 0
 420.94931125 485.664094754 415.685211984 507.495272599 405.416481489 526.594818574 c 0
 395.147750993 545.694364549 380.041854549 562.018122759 362.452643468 574.701148264 c 0
 327.274221304 600.067199275 283.335028463 611.258380661 240 613 c 0
  Spiro
    240 613 o
    44 464 o
    226 329 o
    420 464 o
    258 613 z
  EndSpiro
EndSplineSet
Fore
SplineSet
50.70703125 6.1455078125 m 2
 50.6484375 6.2041015625 50.70703125 6.1455078125 50.6484375 6.2041015625 c 0
 47.552734375 9.302734375 44.62109375 12.5654296875 41.8818359375 15.98828125 c 0
 31.2568359375 29.2646484375 23.591796875 44.9609375 20.1240234375 61.609375 c 0
 15.91015625 81.8408203125 18.04296875 103.291992188 25.8369140625 122.431640625 c 0
 31.6953125 136.815429688 40.5302734375 149.723632812 51.6953125 161.00390625 c 0
 51.6953125 161.004882812 51.9013671875 161.211914062 52.06640625 161.376953125 c 2
 136.919921875 246.229492188 l 2
 140.392578125 249.701171875 144.0625 252.974609375 147.895507812 256.033203125 c 0
 180.204101562 281.810546875 222.64453125 292.563476562 263.9765625 292.711914062 c 0
 305.564453125 292.861328125 348.346679688 282.298828125 380.987304688 256.528320312 c 0
 384.9453125 253.403320312 388.732421875 250.05078125 392.311523438 246.489257812 c 2
 392.370117188 246.430664062 l 1
 392.431640625 246.369140625 l 1
 399.623046875 239.177734375 l 2
 410.693359375 228.10546875 419.75390625 215.03515625 425.697265625 200.5703125 c 0
 433.599609375 181.336914062 435.784179688 159.748046875 431.547851562 139.390625 c 0
 428.057617188 122.619140625 420.309570312 106.80859375 409.567382812 93.4638671875 c 0
 407.013671875 90.291015625 404.481445312 87.44921875 401.359375 84.287109375 c 0
 401.359375 84.2861328125 401.114257812 84.0400390625 400.916992188 83.8427734375 c 2
 316.064453125 -1.009765625 l 2
 307.008789062 -10.05859375 296.546875 -17.7099609375 285.321289062 -23.890625 c 0
 255.306640625 -40.416015625 220.458007812 -46.828125 186.1953125 -46.7119140625 c 0
 152.1875 -46.5966796875 117.64453125 -40.0361328125 87.9306640625 -23.4921875 c 0
 77.00390625 -17.4072265625 66.8125 -9.921875 57.9580078125 -1.10546875 c 0
 57.8984375 -1.0458984375 57.9580078125 -1.10546875 57.8984375 -1.0458984375 c 2
 57.837890625 -0.986328125 l 2
 57.779296875 -0.927734375 57.837890625 -0.9853515625 57.7783203125 -0.9267578125 c 0
 57.7197265625 -0.8681640625 50.70703125 6.1455078125 50.70703125 6.1455078125 c 2
186.1953125 200.788085938 m 0
 161.657226562 200.700195312 136.387695312 196.747070312 113.741210938 188.37890625 c 1
 109.354492188 172.41796875 108.68359375 155.543945312 112.047851562 139.391601562 c 0
 115.515625 122.743164062 123.180664062 107.046875 133.805664062 93.7705078125 c 0
 135.50390625 91.6484375 137.452148438 89.3935546875 139.171875 87.5283203125 c 0
 147.262695312 80.0654296875 156.157226562 73.7529296875 165.712890625 68.431640625 c 0
 195.426757812 51.8876953125 229.96875 45.3271484375 263.9765625 45.2119140625 c 0
 289.239257812 45.1259765625 315.072265625 48.68359375 338.563476562 57.044921875 c 1
 338.990234375 58.71484375 339.30078125 60.0576171875 339.624023438 61.609375 c 0
 343.860351562 81.966796875 341.67578125 103.555664062 333.7734375 122.7890625 c 0
 328.46484375 135.708007812 320.59765625 147.591796875 311.146484375 157.8125 c 0
 308.602539062 160.168945312 305.935546875 162.44921875 303.206054688 164.604492188 c 0
 270.565429688 190.375 227.782226562 200.9375 186.1953125 200.788085938 c 0
78.212890625 241.41015625 m 1
 71.08203125 248.541015625 l 2
 65.9541015625 253.672851562 61.33984375 259.302734375 57.3955078125 265.393554688 c 0
 48.943359375 278.443359375 43.67578125 293.596679688 42.6240234375 309.108398438 c 0
 41.447265625 326.466796875 45.6103515625 344.088867188 54.078125 359.287109375 c 0
 58.5546875 367.321289062 64.080078125 374.552734375 70.759765625 381.307617188 c 0
 70.759765625 381.307617188 70.9521484375 381.501953125 71.107421875 381.65625 c 2
 155.959960938 466.508789062 l 2
 161.612304688 472.15625 167.888671875 477.196289062 174.58203125 481.555664062 c 0
 203.737304688 500.545898438 239.709960938 507.109375 274.4765625 505.711914062 c 0
 306.978515625 504.405273438 339.932617188 496.012695312 366.31640625 476.987304688 c 0
 371.283203125 473.40625 375.986328125 469.4375 380.330078125 465.116210938 c 2
 380.389648438 465.057617188 l 1
 380.450195312 464.997070312 l 1
 387.640625 457.807617188 l 2
 394.733398438 450.709960938 400.861328125 442.668945312 405.610351562 433.836914062 c 0
 413.311523438 419.51171875 417.259765625 403.139648438 416.547851562 386.890625 c 0
 415.829101562 370.499023438 410.375976562 354.40234375 401.342773438 340.704101562 c 0
 397.573242188 334.989257812 393.204101562 329.6953125 388.369140625 324.853515625 c 2
 303.516601562 240.000976562 l 2
 296.763671875 233.239257812 289.1015625 227.362304688 280.895507812 222.456054688 c 0
 252.731445312 205.6171875 218.994140625 199.760742188 186.1953125 200.788085938 c 0
 155.114257812 201.76171875 123.615234375 208.999023438 97.505859375 225.887695312 c 0
 90.63671875 230.330078125 84.189453125 235.463867188 78.3916015625 241.232421875 c 0
 78.33203125 241.291015625 78.3916015625 241.232421875 78.33203125 241.291015625 c 2
 78.2724609375 241.350585938 l 1
 78.212890625 241.41015625 l 1
196.694335938 413.788085938 m 0
 176.186523438 414.612304688 154.969726562 412.583984375 135.5234375 407.024414062 c 1
 134.4140625 400.189453125 134.090820312 393.631835938 134.547851562 386.890625 c 0
 135.599609375 371.37890625 140.8671875 356.225585938 149.319335938 343.17578125 c 0
 152.358398438 338.482421875 155.90234375 333.943359375 159.599609375 329.888671875 c 0
 164.560546875 325.359375 169.7265625 321.408203125 175.287109375 317.811523438 c 0
 201.397460938 300.922851562 232.895507812 293.685546875 263.9765625 292.711914062 c 0
 284 292.084960938 304.716796875 294.115234375 323.657226562 299.471679688 c 1
 324.1875 302.8828125 324.481445312 305.8515625 324.624023438 309.109375 c 0
 325.3359375 325.357421875 321.387695312 341.73046875 313.686523438 356.0546875 c 0
 309.727539062 363.41796875 304.708984375 370.345703125 299.134765625 376.44921875 c 0
 295.766601562 379.530273438 292.227539062 382.400390625 288.53515625 385.063476562 c 0
 262.151367188 404.088867188 229.196289062 412.481445312 196.694335938 413.788085938 c 0
EndSplineSet
EndChar
StartChar: nine
Encoding: 57 57 181
Width: 415
VWidth: 0
Flags: MW
LayerCount: 3
Back
SplineSet
158 0 m 4
 225.4375 39.6279296875 284.35546875 93.95703125 328.299804688 158.665039062 c 4
 372.244140625 223.373046875 401.809570312 299.311523438 404 377.5 c 4
 405.838867188 443.131835938 386.353515625 511.115234375 341.452148438 559.01953125 c 4
 319.001953125 582.971679688 290.53515625 601.420898438 259.16796875 611.106445312 c 4
 227.80078125 620.791992188 193.696289062 621.547851562 162 613 c 4
 120.436523438 601.791992188 83.7314453125 574.61328125 59.3056640625 539.166992188 c 4
 34.87890625 503.719726562 22.3759765625 460.546875 22 417.5 c 4
 21.5654296875 367.829101562 37.119140625 317.987304688 66.447265625 277.896484375 c 4
 95.775390625 237.805664062 139.415039062 207.83984375 188 197.5 c 4
 241.016601562 186.216796875 299.05859375 199.513671875 340.861328125 234.018554688 c 4
 382.663085938 268.5234375 406.877929688 323.373046875 404 377.5 c 1028
  Spiro
    158 0 {
    404 377.5 o
    162 613 o
    22 417.5 o
    188 197.5 o
    404 377.5 o
    0 0 z
  EndSpiro
EndSplineSet
Fore
SplineSet
339.083007812 468.702148438 m 1
 346.21484375 461.5703125 l 2
 347.334960938 460.44921875 348.436523438 459.310546875 349.51953125 458.155273438 c 0
 383.196289062 422.227539062 397.809570312 371.239257812 396.430664062 322.015625 c 1
 396.432617188 321.986328125 l 2
 396.791015625 315.243164062 396.586914062 308.514648438 395.857421875 301.814453125 c 0
 395.119140625 295.045898438 394.056640625 289.125 392.275390625 282.547851562 c 0
 390.497070312 272.647460938 388.255859375 263.290039062 385.440429688 253.612304688 c 0
 375.55078125 219.620117188 359.572265625 187.216796875 339.655273438 157.889648438 c 0
 325.93359375 137.685546875 310.266601562 118.829101562 293.000976562 101.556640625 c 2
 208.1484375 16.7041015625 l 2
 183.943359375 -7.5107421875 156.598632812 -28.6142578125 127.078125 -45.9619140625 c 1
 120.006835938 -38.890625 l 1
 204.859375 45.9619140625 l 1
 216.98828125 53.0888671875 229.091796875 61.109375 239.997070312 69.142578125 c 1
 242.79296875 72.9638671875 245.201171875 76.3828125 247.731445312 80.1083984375 c 0
 262.26171875 101.502929688 274.732421875 124.627929688 284.264648438 148.794921875 c 1
 273.081054688 137.611328125 l 2
 270.260742188 134.787109375 267.305664062 132.095703125 264.224609375 129.551757812 c 0
 232.872070312 103.672851562 189.340820312 93.7001953125 149.578125 102.163085938 c 0
 121.278320312 108.186523438 95.21484375 123.087890625 74.6796875 143.529296875 c 0
 74.62109375 143.587890625 74.6806640625 143.529296875 74.62109375 143.587890625 c 2
 74.556640625 143.65234375 l 1
 74.43359375 143.775390625 l 1
 67.30078125 150.908203125 l 2
 61.513671875 156.700195312 56.169921875 162.932617188 51.3427734375 169.53125 c 0
 29.3466796875 199.599609375 17.6806640625 236.981445312 18.0068359375 274.234375 c 0
 18.2890625 306.51953125 27.666015625 338.8984375 45.986328125 365.483398438 c 0
 50.798828125 372.467773438 56.15234375 378.92578125 62.3056640625 385.124023438 c 2
 62.3056640625 385.124023438 62.462890625 385.282226562 62.5888671875 385.408203125 c 2
 147.442382812 470.260742188 l 2
 164.172851562 486.986328125 185.040039062 499.55859375 207.859375 505.711914062 c 0
 231.631835938 512.123046875 257.209960938 511.555664062 280.736328125 504.291992188 c 0
 302.637695312 497.529296875 322.654296875 485.068359375 338.899414062 468.885742188 c 2
 338.958007812 468.826171875 l 1
 339.021484375 468.763671875 l 1
 339.083007812 468.702148438 l 1
300.359375 204.8046875 m 0
 301.592773438 211.482421875 302.415039062 217.31640625 303.139648438 224.0703125 c 0
 303.857421875 230.762695312 304.317382812 237.487304688 304.506835938 244.234375 c 0
 305.8828125 293.341796875 291.189453125 344.443359375 257.721679688 380.23828125 c 0
 242.064453125 394.87109375 223.3671875 406.064453125 202.954101562 412.368164062 c 0
 179.428710938 419.631835938 153.850585938 420.19921875 130.078125 413.788085938 c 0
 127.030273438 412.965820312 123.787109375 411.946289062 120.98046875 410.961914062 c 1
 113.8359375 392.333007812 110.106445312 372.09765625 109.930664062 352.015625 c 0
 109.604492188 314.762695312 121.270507812 277.381835938 143.266601562 247.313476562 c 0
 147.115234375 242.052734375 151.385742188 236.923828125 155.793945312 232.23046875 c 0
 175.751953125 213.471679688 200.577148438 199.787109375 227.359375 194.086914062 c 0
 250.787109375 189.100585938 275.739257812 190.595703125 298.307617188 197.810546875 c 1
 299.112304688 200.302734375 299.711914062 202.322265625 300.359375 204.8046875 c 0
EndSplineSet
EndChar
StartChar: colon
Encoding: 58 58 188
Width: 230
VWidth: 0
Flags: MW
LayerCount: 3
Fore
SplineSet
33.30859375 413.750976562 m 1
 117.059570312 499.69140625 l 1
 203 415.940429688 l 1
 119.248046875 330 l 1
 33.30859375 413.750976562 l 1
  Spiro
    33.3083 413.751 v
    117.059 499.691 v
    203 415.94 v
    119.248 330 v
    0 0 z
  EndSpiro
33.30859375 83.7509765625 m 1
 117.059570312 169.69140625 l 1
 203 85.9404296875 l 1
 119.248046875 0 l 1
 33.30859375 83.7509765625 l 1
  Spiro
    33.3083 83.7512 v
    117.059 169.691 v
    203 85.9401 v
    119.248 3.55476e-05 v
    0 0 z
  EndSpiro
EndSplineSet
EndChar
StartChar: semicolon
Encoding: 59 59 212
Width: 188
VWidth: 0
Flags: MW
LayerCount: 3
Fore
SplineSet
166.7109375 91.2900390625 m 1
 58.31640625 -14.11328125 l 1
 46.31640625 -1.61328125 l 1
 81.81640625 35.38671875 l 1
 25.2900390625 91.2900390625 l 1
 96 162 l 1
 166.7109375 91.2900390625 l 1
166.7109375 415.290039062 m 1
 96 344.579101562 l 1
 25.2900390625 415.290039062 l 1
 96 486 l 1
 166.7109375 415.290039062 l 1
EndSplineSet
EndChar
StartChar: less
Encoding: 60 60 224
Width: 434
VWidth: 0
Flags: MW
LayerCount: 3
Fore
SplineSet
405.765625 22.6044921875 m 1
 349.197265625 -33.9638671875 l 1
 16.7216796875 186.255859375 l 1
 9.650390625 193.327148438 l 1
 66.21875 249.895507812 l 1
 398.694335938 470.115234375 l 1
 405.765625 463.043945312 l 1
 349.196289062 406.475585938 l 1
 89.509765625 234.467773438 l 1
 398.694335938 29.67578125 l 1
 405.765625 22.6044921875 l 1
EndSplineSet
EndChar
StartChar: equal
Encoding: 61 61 229
Width: 396
VWidth: 0
Flags: MW
LayerCount: 3
Fore
SplineSet
19.3662109375 175.153320312 m 1
 84.8984375 221.0390625 l 1
 370.8984375 221.0390625 l 1
 376.633789062 212.84765625 l 1
 311.1015625 166.9609375 l 1
 25.1015625 166.9609375 l 1
 19.3662109375 175.153320312 l 1
19.3662109375 275.153320312 m 1
 84.8984375 321.0390625 l 1
 370.8984375 321.0390625 l 1
 376.633789062 312.84765625 l 1
 311.1015625 266.9609375 l 1
 25.1015625 266.9609375 l 1
 19.3662109375 275.153320312 l 1
EndSplineSet
EndChar
StartChar: greater
Encoding: 62 62 234
Width: 420
VWidth: 0
Flags: MW
LayerCount: 3
Fore
SplineSet
9.6494140625 -26.8935546875 m 1
 66.2177734375 29.6748046875 l 1
 325.90625 201.682617188 l 1
 16.7216796875 406.475585938 l 1
 9.650390625 413.545898438 l 1
 66.21875 470.115234375 l 1
 398.694335938 249.895507812 l 1
 405.765625 242.82421875 l 1
 349.197265625 186.255859375 l 1
 16.720703125 -33.96484375 l 1
 9.6494140625 -26.8935546875 l 1
EndSplineSet
EndChar
StartChar: at
Encoding: 64 64 238
Width: 574
VWidth: 0
Flags: MW
LayerCount: 3
Back
SplineSet
315.51953125 108.540039062 m 5
 181.51953125 0 l 5
 155.033203125 13.091796875 132.0234375 33.169921875 115.54296875 57.69140625 c 4
 99.060546875 82.2119140625 89.099609375 111.186523438 87.71875 140.700195312 c 4
 86.666015625 163.19921875 90.646484375 185.986328125 99.822265625 206.556640625 c 4
 108.998046875 227.125976562 123.416015625 245.334960938 141.369140625 258.936523438 c 4
 159.3203125 272.5390625 180.6328125 281.389648438 202.69140625 285.944335938 c 4
 224.748046875 290.5 247.435546875 290.780273438 269.958984375 290.780273438 c 6
 318.19921875 290.780273438 l 5
 318.19921875 0 l 5
 374.984375 13.4765625 426.361328125 48.7607421875 459.078125 97.08984375 c 4
 491.79296875 145.419921875 505.59765625 206.704101562 494.5 264 c 4
 483.921875 318.60546875 449.599609375 368.36328125 401.646484375 396.544921875 c 4
 377.669921875 410.635742188 350.806640625 419.469726562 323.369140625 424.008789062 c 4
 295.931640625 428.547851562 267.990234375 428.799804688 240.1796875 428.799804688 c 6
 81.01953125 428.799804688 l 1029
  Spiro
    315.52 108.54 {
    181.52 0 v
    87.72 140.7 o
    269.96 290.78 [
    318.2 290.78 v
    318.2 0 v
    494.5 264 o
    240.18 428.8 [
    81.02 428.8 v
    0 0 z
  EndSpiro
EndSplineSet
Fore
SplineSet
407.060546875 66.771484375 m 0
 442.654296875 113.022460938 453.58203125 176.384765625 442.482421875 233.680664062 c 0
 437.4921875 259.440429688 427.13671875 284.252929688 412.685546875 306.020507812 c 0
 397.2421875 326.952148438 377.8046875 344.846679688 355.365234375 358.034179688 c 0
 331.388671875 372.125 304.525390625 380.959960938 277.087890625 385.498046875 c 0
 249.65234375 390.037109375 221.708984375 390.2890625 193.8984375 390.290039062 c 2
 34.73828125 390.290039062 l 1
 29.001953125 398.481445312 l 1
 127.30078125 467.310546875 l 1
 286.4609375 467.310546875 l 2
 314.271484375 467.310546875 342.21484375 467.057617188 369.650390625 462.51953125 c 0
 397.087890625 457.98046875 423.951171875 449.145507812 447.927734375 435.0546875 c 0
 471.6953125 421.087890625 492.11328125 401.819335938 507.951171875 379.2890625 c 2
 507.998046875 379.220703125 l 1
 508.05078125 379.1484375 l 1
 508.1484375 379.0078125 l 1
 513.93359375 370.74609375 l 2
 529.921875 347.900390625 541.208984375 321.719726562 546.515625 294.318359375 c 0
 557.615234375 237.022460938 543.810546875 175.73828125 511.095703125 127.409179688 c 0
 495.09375 103.770507812 474.626953125 83.2529296875 451.248046875 66.8818359375 c 2
 352.94921875 -1.947265625 l 2
 328.529296875 -19.0478515625 300.9296875 -31.625 271.91796875 -38.509765625 c 1
 266.18359375 -30.318359375 l 1
 266.18359375 56.7626953125 l 1
 233.537109375 30.3193359375 l 1
 135.23828125 -38.5107421875 l 1
 109.7109375 -25.892578125 87.416015625 -6.7861328125 71.078125 16.5322265625 c 2
 65.193359375 24.939453125 l 2
 65.14453125 25.0078125 65.19140625 24.9404296875 65.14453125 25.0087890625 c 0
 64.59765625 25.7919921875 64.05859375 26.580078125 63.525390625 27.3720703125 c 0
 47.04296875 51.8935546875 37.083984375 80.8681640625 35.703125 110.380859375 c 0
 34.650390625 132.879882812 38.630859375 155.66796875 47.806640625 176.237304688 c 0
 56.982421875 196.806640625 71.3984375 215.015625 89.3515625 228.618164062 c 0
 90.654296875 229.604492188 91.97265625 230.56640625 93.310546875 231.502929688 c 2
 191.607421875 300.33203125 l 2
 191.798828125 300.465820312 192.0390625 300.6328125 192.0390625 300.6328125 c 2
 209.263671875 312.571289062 228.740234375 320.27734375 248.97265625 324.455078125 c 0
 271.029296875 329.010742188 293.716796875 329.290039062 316.240234375 329.290039062 c 2
 364.48046875 329.290039062 l 1
 370.216796875 321.098632812 l 1
 370.216796875 39.9501953125 l 1
 370.216796875 39.9501953125 391.333984375 46.3330078125 407.060546875 66.771484375 c 0
  Spiro
    508.148 379.008 v
    513.934 370.746 ]
    528.295 346.892 o
    539.272 321.208 o
    546.517 294.318 o
    549.541 236.379 o
    537.266 179.374 o
    511.096 127.409 o
    493.682 104.87 o
    473.578 84.5781 o
    451.249 66.8818 [
    352.95 -1.94727 ]
    327.562 -17.4828 o
    300.366 -29.7814 o
    271.919 -38.5098 v
    266.184 -30.3184 v
    266.184 56.7627 v
    233.537 30.3193 v
    135.239 -38.5107 v
    110.913 -23.8308 o
    89.2813 -5.27759 o
    71.0791 16.5322 [
    65.1934 24.9395 ]
    65.1701 24.9726 o
    65.1678 24.9756 o
    65.1445 25.0088 o
    64.6012 25.7928 o
    64.0606 26.5822 o
    63.5264 27.3721 o
    49.3062 53.2059 o
    39.8606 81.2212 o
    35.7031 110.381 o
    36.3318 132.861 o
    40.3624 155.043 o
    47.8066 176.237 o
    58.6538 195.918 o
    72.6564 213.58 o
    89.3516 228.618 o
    90.6586 229.595 o
    91.9808 230.559 o
    93.3105 231.503 [
    191.608 300.332 ]
    191.805 300.469 o
    191.97 300.585 o
    192.039 300.633 v
    209.94 311.177 o
    229.067 319.082 o
    248.973 324.455 o
    271.188 327.731 o
    293.715 329.05 o
    316.241 329.29 [
    364.481 329.29 v
    370.217 321.099 v
    370.218 39.9502 v
    377.581 42.0367 o
    384.873 44.3626 o
    391.916 46.8584 v
    397.217 53.3233 o
    402.269 59.9636 o
    407.062 66.7715 o
    433.232 118.736 o
    445.507 175.741 o
    442.482 233.681 o
    435.759 259.022 o
    425.713 283.339 o
    412.687 306.021 o
    395.967 325.859 o
    376.748 343.356 o
    355.366 358.034 o
    330.539 370.398 o
    304.223 379.5 o
    277.089 385.498 o
    249.535 388.755 o
    221.702 390.057 o
    193.898 390.29 [
    34.7393 390.29 v
    29.0029 398.481 v
    127.302 467.311 v
    286.461 467.311 ]
    314.264 467.078 o
    342.097 465.776 o
    369.651 462.52 o
    396.785 456.52 o
    423.101 447.418 o
    447.929 435.055 o
    470.512 419.413 o
    490.651 400.636 o
    507.952 379.289 [
    507.999 379.221 v
    508.051 379.148 v
    0 0 z
  EndSpiro
266.18359375 80.2119140625 m 2
 266.181640625 252.26953125 l 1
 223.677734375 252.26953125 l 2
 201.431640625 252.26953125 178.98828125 251.9921875 157.21484375 247.598632812 c 1
 155.359375 244.265625 153.4609375 240.510742188 151.83984375 236.875 c 0
 142.6640625 216.305664062 138.68359375 193.517578125 139.736328125 171.018554688 c 0
 141.087890625 142.120117188 150.666015625 113.73828125 166.537109375 89.548828125 c 0
 180.65625 70.615234375 199.0546875 54.4248046875 219.73828125 42.771484375 c 1
 263.501953125 78.2216796875 l 2
 264.322265625 78.794921875 265.140625 79.3681640625 266.18359375 80.2119140625 c 2
  Spiro
    266.184 80.2119 [
    266.183 252.27 v
    223.679 252.27 ]
    201.421 252.036 o
    179.158 250.76 o
    157.216 247.599 v
    155.359 244.149 o
    153.54 240.527 o
    151.84 236.875 o
    144.396 215.681 o
    140.366 193.499 o
    139.736 171.019 o
    143.753 142.457 o
    152.848 114.973 o
    166.538 89.5488 o
    181.993 71.613 o
    199.91 55.8563 o
    219.738 42.7715 v
    263.503 78.2217 ]
    264.33 78.8043 o
    265.208 79.449 o
    0 0 z
  EndSpiro
EndSplineSet
EndChar
StartChar: A
Encoding: 65 65 13
Width: 664
VWidth: 0
Flags: MW
LayerCount: 3
Back
SplineSet
6.1904296875 597.262695312 m 1
 196.190429688 747.262695312 l 1
 263.916992188 759.045898438 336.53515625 738.622070312 388.190429688 693.262695312 c 0
 409.353515625 674.678710938 427.07421875 652.1875 440.190429688 627.262695312 c 0
 474.740234375 561.607421875 485.3125 486.21875 498.24609375 413.163085938 c 0
 511.178710938 340.108398438 514.72265625 265.368164062 532.190429688 193.262695312 c 0
 539.263671875 164.064453125 550.043945312 135.766601562 564.190429688 109.262695312 c 0
 575.965820312 87.2001953125 590.069335938 66.380859375 606.190429688 47.2626953125 c 1024
  Spiro
    6.19043 597.263 {
    196.19 747.263 v
    388.19 693.263 o
    440.19 627.263 ]
    532.19 193.263 [
    564.19 109.263 o
    606.19 47.2627 o
    0 0 z
  EndSpiro
EndSplineSet
Fore
SplineSet
562.901367188 5.5078125 m 1
 556.418945312 13.2333984375 l 2
 540.545898438 32.1572265625 526.64453125 52.7353515625 515.013671875 74.525390625 c 0
 500.868164062 101.029296875 490.086914062 129.327148438 483.013671875 158.525390625 c 0
 465.544921875 230.630859375 462.001953125 305.37109375 449.069335938 378.426757812 c 0
 436.13671875 451.481445312 425.563476562 526.870117188 391.013671875 592.525390625 c 0
 384.124023438 605.619140625 375.962890625 618.041015625 366.700195312 629.578125 c 0
 360.103515625 637.100585938 352.979492188 644.24609375 345.44140625 650.865234375 c 0
 293.786132812 696.224609375 221.16796875 716.6484375 153.44140625 704.865234375 c 1
 -36.55859375 554.865234375 l 1
 -42.986328125 562.525390625 l 1
 48.939453125 639.66015625 l 1
 238.939453125 789.66015625 l 1
 306.665039062 801.443359375 379.284179688 781.01953125 430.939453125 735.66015625 c 0
 439.723632812 727.946289062 447.916015625 719.55859375 455.430664062 710.603515625 c 2
 462.020507812 702.75 l 1
 462.127929688 702.62109375 l 2
 472.60546875 690.090820312 481.760742188 676.454101562 489.3671875 662 c 0
 523.916015625 596.344726562 534.489257812 520.955078125 547.421875 447.900390625 c 0
 560.35546875 374.845703125 563.8984375 300.104492188 581.366210938 227.999023438 c 0
 588.440429688 198.801757812 599.220703125 170.50390625 613.3671875 144 c 0
 624.883789062 122.423828125 638.608398438 102.069335938 654.295898438 83.2763671875 c 2
 655.3671875 82 l 1
 563.44140625 4.865234375 l 1
 563.171875 5.1865234375 l 1
 562.901367188 5.5078125 l 1
  Spiro
    562.901 5.50781 v
    556.419 13.2334 ]
    541.229 32.6723 o
    527.377 53.1766 o
    515.014 74.5254 o
    502.014 101.567 o
    491.301 129.689 o
    483.014 158.525 o
    469.334 231.276 o
    459.726 305.043 o
    449.069 378.427 o
    435.962 451.739 o
    418.525 524.143 o
    391.014 592.525 o
    383.714 605.375 o
    375.581 617.766 o
    366.7 629.578 o
    359.939 636.962 o
    352.83 644.083 o
    345.441 650.865 o
    287.819 687.616 o
    221.773 706.191 o
    153.441 704.865 v
    -36.5586 554.865 v
    -42.9863 562.525 v
    48.9395 639.66 v
    238.939 789.66 v
    307.27 790.986 o
    373.317 772.41 o
    430.939 735.66 o
    439.515 727.734 o
    447.701 719.357 o
    455.431 710.604 [
    462.021 702.75 v
    462.128 702.621 ]
    472.147 689.746 o
    481.261 676.157 o
    489.367 662 o
    516.878 593.618 o
    534.315 521.213 o
    547.422 447.9 o
    558.08 374.517 o
    567.687 300.75 o
    581.366 227.999 o
    589.654 199.163 o
    600.367 171.041 o
    613.367 144 o
    625.598 122.864 o
    639.286 102.557 o
    654.296 83.2764 [
    655.367 82 v
    563.441 4.86523 v
    563.172 5.18652 v
    0 0 z
  EndSpiro
200.013671875 568.525390625 m 2
 291.939453125 645.66015625 l 1
 298.3671875 638 l 1
 298.3671875 342 l 1
 206.44140625 264.865234375 l 1
 155.442382812 228.865234375 l 1
 149.013671875 236.525390625 l 1
 165.668945312 250.500976562 185.139648438 266.8828125 200.013671875 279.364257812 c 1
 200.013671875 521.726592616 l 2
 198.185092023 520.191358329 196.361356038 518.660589569 194.54296875 517.134765625 c 0
 194.357421875 516.756835938 194.176757812 516.37890625 194 516 c 0
 156.540039062 435.729492188 185.235351562 373.416992188 146 294 c 0
 130.749023438 263.129882812 95.7177734375 229.578125 66.609375 205.168945312 c 2
 29.85546875 174.328125 l 1
 127.029296875 152.764648438 205.75 127.850585938 277.571289062 93.66015625 c 1
 284 85.9990234375 l 1
 192.07421875 8.865234375 l 1
 116.506835938 44.8388671875 33.3505859375 70.5322265625 -70.92578125 92.865234375 c 1
 -77.353515625 100.525390625 l 1
 6.9111328125 171.232421875 l 2
 23.4296875 188.14453125 38.912109375 206.845703125 47.646484375 224.525390625 c 0
 86.8818359375 303.943359375 58.1859559211 366.255147659 95.646484375 446.525390625 c 0
 102.41015625 461.018554688 120.605209377 501.893885729 200.013671875 568.525390625 c 2
EndSplineSet
Substitution2: "'salt' Stylistic Alternatives in Latin lookup 3-1" A.alt
EndChar
StartChar: glyph85
Encoding: 66 66 59
Width: 803
VWidth: 0
Flags: MW
LayerCount: 3
Fore
SplineSet
584.137695312 584.97265625 m 5
 577.006835938 592.104492188 l 6
 546.103515625 623.021484375 521.111328125 659.861328125 504.036132812 700.109375 c 4
 487.028320312 740.196289062 477.807617188 783.5703125 477.036132812 827.109375 c 5
 561.888671875 911.961914062 l 5
 568.959960938 904.890625 l 5
 569.731445312 861.3515625 578.953125 817.978515625 595.959960938 777.890625 c 4
 612.381835938 739.184570312 636.280273438 703.452148438 665.474609375 673.393554688 c 4
 676.604492188 662.584960938 688.4140625 652.579101562 700.899414062 643.412109375 c 4
 701.560546875 642.92578125 702.223632812 642.442382812 702.888671875 641.961914062 c 6
 709.959960938 634.890625 l 5
 579.584960938 504.140625 l 5
 494.731445312 419.288085938 l 5
 487.661132812 426.359375 l 5
 617.010742188 556.080078125 l 5
 605.583007812 564.884765625 594.715820312 574.42578125 584.498046875 584.61328125 c 6
 584.439453125 584.671875 l 5
 584.377929688 584.733398438 l 5
 584.137695312 584.97265625 l 5
281.107421875 163.038085938 m 5
 274.036132812 170.109375 l 5
 303.711914062 199.895507812 325.1171875 237.614257812 336.620117188 278.057617188 c 4
 348.122070312 318.5 349.270507812 361.0625 349.244140625 403.109375 c 6
 349.036132812 732.109375 l 5
 433.888671875 816.961914062 l 5
 447.889648438 826.961914062 l 5
 454.959960938 819.891601562 l 5
 440.962890625 805.893554688 l 5
 441.16796875 480.891601562 l 6
 441.194335938 438.844726562 440.045898438 396.28125 428.543945312 355.838867188 c 4
 417.041015625 315.396484375 395.635742188 277.676757812 365.959960938 247.891601562 c 6
 281.107421875 163.038085938 l 5
37.0888671875 59.8974609375 m 5
 31.0712890625 67.8837890625 l 5
 34.9375 71.4794921875 38.9833984375 74.86328125 43.1865234375 78.03125 c 6
 139.0234375 150.249023438 l 6
 139.141601562 150.337890625 139.2890625 150.44921875 139.2890625 150.44921875 c 6
 172.91015625 175.639648438 216.1484375 187.033203125 257.908203125 183.102539062 c 4
 310.576171875 178.14453125 358.2734375 151.078125 403.440429688 123.5390625 c 4
 448.608398438 96.0009765625 494.84765625 70.2099609375 542.908203125 48.1025390625 c 6
 581.775390625 30.22265625 l 5
 589.071289062 36.8837890625 l 6
 613.033203125 58.7626953125 636.887695312 81.04296875 656.443359375 106.935546875 c 4
 675.999023438 132.828125 691.15625 162.239257812 699.131835938 193.69140625 c 4
 707.107421875 225.143554688 707.874023438 258.381835938 701.483398438 290.193359375 c 4
 695.09375 322.004882812 681.693359375 352.3125 663.071289062 378.883789062 c 4
 662.400390625 379.840820312 661.645507812 380.900390625 661.010742188 381.780273438 c 4
 631.469726562 419.39453125 590.916992188 448.614257812 546.153320312 465.145507812 c 5
 496.333007812 423.75 l 5
 491.958007812 428.125 l 5
 538.071289062 473.883789062 l 5
 620.668945312 549.998046875 l 5
 681.333333333 531.666666667 723.537774121 498.472420963 753.629882812 458.349609375 c 4
 753.6796875 458.283203125 753.629882812 458.349609375 753.6796875 458.283203125 c 6
 753.736328125 458.208984375 l 6
 753.786132812 458.142578125 753.73828125 458.206054688 753.7890625 458.138671875 c 4
 753.838867188 458.072265625 753.791992188 458.135742188 753.841796875 458.069335938 c 4
 753.891601562 458.002929688 753.844726562 458.065429688 753.89453125 457.999023438 c 6
 759.913085938 450.012695312 l 6
 761.623046875 447.743164062 763.293945312 445.443359375 764.92578125 443.115234375 c 4
 783.547851562 416.543945312 796.948242188 386.236328125 803.337890625 354.424804688 c 4
 809.728515625 322.61328125 808.961914062 289.375 800.986328125 257.922851562 c 4
 793.010742188 226.470703125 777.853515625 197.059570312 758.297851562 171.166992188 c 4
 738.7421875 145.274414062 714.887695312 122.994140625 690.92578125 101.115234375 c 6
 598.92578125 17.1162109375 l 5
 503.08984375 -55.1015625 l 5
 453.08984375 -32.1015625 l 6
 405.029296875 -9.994140625 358.791015625 15.796875 313.622070312 43.3349609375 c 4
 268.455078125 70.8740234375 220.7578125 97.9404296875 168.08984375 102.8984375 c 4
 131.573242188 106.334960938 94.0771484375 98.126953125 62.4755859375 79.0283203125 c 5
 37.0888671875 59.8974609375 l 5
137.036132812 444.108398438 m 5
 225.958007812 532.5 l 5
 306.958984375 467.5 l 5
 330.958984375 448.5 l 5
 242.036132812 360.109375 l 5
 144.107421875 437.038085938 l 5
 137.036132812 444.108398438 l 5
23.037109375 614.109375 m 5
 107.889648438 698.961914062 l 5
 203.889648438 643.961914062 l 5
 298.889648438 733.961914062 l 5
 305.959960938 726.890625 l 6
 305.998046875 725.991210938 306.036132812 725.090820312 306.076171875 724.19140625 c 4
 308.168945312 676.71484375 313.096679688 629.3984375 319.448242188 582.301757812 c 4
 325.919921875 534.3125 334.546875 486.311523438 333.959960938 437.890625 c 4
 333.629882812 410.576171875 329.92578125 383.3046875 322.9609375 356.890625 c 4
 307.959960938 300.010742188 277.471679688 247.341796875 235.892578125 205.756835938 c 6
 151.0390625 120.903320312 l 6
 150.901367188 120.765625 150.728515625 120.59375 150.728515625 120.59375 c 4
 143.340820312 113.23046875 135.948242188 106.517578125 128.107421875 100.038085938 c 5
 121.036132812 107.109375 l 5
 164.946289062 151.01953125 l 5
 195.547851562 187.982421875 218.666992188 232.20703125 231.036132812 279.109375 c 4
 238.001953125 305.522460938 241.706054688 332.794921875 242.036132812 360.109375 c 4
 242.623046875 408.530273438 233.99609375 456.530273438 227.524414062 504.520507812 c 4
 221.640625 548.1484375 216.9765625 591.986328125 214.66015625 635.9296875 c 5
 126.107421875 552.038085938 l 5
 30.107421875 607.038085938 l 5
 23.037109375 614.109375 l 5
EndSplineSet
EndChar
StartChar: C
Encoding: 67 67 51
Width: 624
VWidth: 0
Flags: MW
LayerCount: 3
Fore
SplineSet
85.806640625 44.205078125 m 5
 78.6826171875 51.609375 l 6
 78.625 51.669921875 78.6806640625 51.6123046875 78.623046875 51.671875 c 4
 40.7978515625 91.123046875 18.0009765625 144.44140625 12.7333984375 199.021484375 c 4
 7.330078125 255.021484375 18.9716796875 312.224609375 43.517578125 362.84765625 c 4
 60.9052734375 398.709960938 88.6181640625 439.32421875 119.323242188 464.703125 c 6
 198.852539062 530.436523438 l 6
 198.852539062 530.436523438 221.599609375 529.024414062 234.944335938 538.565429688 c 5
 241.877929688 531.359375 l 5
 173.76171875 498.086914062 l 5
 159.67578125 479.908203125 147.094726562 459.83203125 136.919921875 438.84765625 c 4
 112.373046875 388.225585938 100.732421875 331.021484375 106.135742188 275.021484375 c 4
 111.255859375 221.966796875 132.90625 170.159179688 168.868164062 131.034179688 c 4
 172.428710938 127.501953125 176.245117188 123.965820312 180.110351562 120.641601562 c 4
 226.8046875 80.4853515625 289.416992188 61.5263671875 351.001953125 61.3447265625 c 4
 443.78515625 61.072265625 535.024414062 98.6025390625 605.916992188 158.461914062 c 5
 612.850585938 151.256835938 l 5
 526.381835938 68.05078125 l 5
 455.490234375 8.19140625 364.250976562 -29.33984375 271.467773438 -29.06640625 c 4
 209.881835938 -28.884765625 147.270507812 -9.92578125 100.576171875 30.23046875 c 4
 95.447265625 34.6416015625 90.541015625 39.287109375 85.865234375 44.14453125 c 6
 85.806640625 44.205078125 l 5
577.5546875 549.435546875 m 5
 477.952148438 482.509765625 l 5
 426.579101562 516.936523438 368.702148438 544.034179688 307.232421875 550.8046875 c 4
 291.876953125 552.49609375 275.98828125 552.637695312 260.9296875 550.694335938 c 5
 257.063476562 543.337890625 253.873046875 535.63671875 251.356445312 527.729492188 c 4
 245.018554688 507.810546875 242.803710938 486.756835938 242.885742188 465.85546875 c 4
 243.200195312 385.653320312 266.786132812 307.509765625 283.341796875 229.034179688 c 5
 183.737304688 162.108398438 l 5
 178.16015625 170.408203125 l 5
 161.60546875 248.883789062 138.018554688 327.02734375 137.704101562 407.228515625 c 4
 137.623046875 428.130859375 139.838867188 449.18359375 146.17578125 469.102539062 c 4
 152.512695312 489.020507812 171.797851562 500.87890625 186.56640625 515.669921875 c 4
 192.061523438 521.173828125 192.686523438 525.732421875 198.852539062 530.436523438 c 6
 295.515625 604.173828125 l 6
 307.020507812 612.950195312 320.965820312 618.244140625 334.9609375 621.997070312 c 4
 356.469726562 627.764648438 379.124023438 628.470703125 401.258789062 626.032226562 c 4
 462.728515625 619.260742188 520.60546875 592.1640625 571.978515625 557.737304688 c 5
 577.5546875 549.435546875 l 5
EndSplineSet
Substitution2: "'salt' Stylistic Alternatives in Latin lookup 3-1" C.alt
EndChar
StartChar: D
Encoding: 68 68 34
Width: 650
VWidth: 0
Flags: MW
LayerCount: 3
Fore
SplineSet
64.0244140625 161.59765625 m 1
 58.2890625 169.790039062 l 1
 38.298828125 208.240234375 30.1728515625 252.755859375 35.2880859375 295.7890625 c 0
 42.541015625 356.805664062 77.4365234375 413.751953125 127.659179688 448.946289062 c 2
 225.958007812 517.775390625 l 2
 234.118164062 523.471679688 242.146484375 528.3046875 250.586914062 532.619140625 c 1
 256.322265625 524.426757812 l 1
 253.724609375 485.424804688 255.067382812 446.161132812 260.322265625 407.426757812 c 0
 264.971679688 373.166992188 272.677734375 339.322265625 283.322265625 306.426757812 c 1
 185.024414062 237.59765625 l 1
 179.288085938 245.7890625 l 1
 168.64453125 278.684570312 160.9375 312.529296875 156.288085938 346.7890625 c 0
 153.6484375 366.251953125 151.990234375 385.928710938 151.333007812 405.505859375 c 1
 145.530273438 390.018554688 141.315429688 373.190429688 139.322265625 356.426757812 c 0
 134.20703125 313.393554688 142.333007812 268.877929688 162.322265625 230.426757812 c 1
 64.0244140625 161.59765625 l 1
  Spiro
    64.0247 161.598 v
    58.2893 169.79 v
    42.3168 209.941 o
    34.5323 252.584 o
    35.2883 295.789 o
    51.275 354.738 o
    83.0406 407.204 o
    127.659 448.946 [
    225.958 517.775 ]
    234.086 523.192 o
    242.272 528.124 o
    250.587 532.619 v
    256.323 524.427 v
    255.037 485.406 o
    256.375 446.269 o
    260.323 407.427 o
    265.98 373.359 o
    273.671 339.585 o
    283.323 306.427 v
    185.025 237.598 v
    179.288 245.789 v
    169.637 278.948 o
    161.946 312.721 o
    156.288 346.789 o
    153.979 366.292 o
    152.322 385.927 o
    151.333 405.506 v
    146.088 389.64 o
    142.029 373.143 o
    139.323 356.427 o
    138.566 313.222 o
    146.351 270.578 o
    162.323 230.427 v
    0 0 z
  EndSpiro
618.267578125 167 m 9
 394.415039062 -22.853515625 l 17
 326.276367188 -28.2373046875 257.193359375 -21.4306640625 191.415039062 -2.853515625 c 0
 124.630859375 16.0078125 61.29296875 46.99609375 5.4150390625 88.146484375 c 1
 -1.65625 95.2177734375 l 1
 83.1962890625 180.0703125 l 1
 139.07421875 138.919921875 202.413085938 107.931640625 269.197265625 89.0703125 c 0
 334.974609375 70.4931640625 404.057617188 63.6865234375 472.196289062 69.0703125 c 1
 528.534179688 111.626953125 l 1
 535.236328125 180.217773438 l 2
 540.0625 229.600585938 544.763671875 279.743164062 535.860351562 328.555664062 c 0
 528.135742188 370.91015625 509.038085938 411.55078125 479.487304688 442.671875 c 0
 477.21484375 444.828125 474.751953125 447.053710938 472.307617188 449.146484375 c 0
 433.272460938 482.57421875 382.482421875 499.290039062 331.744140625 507.461914062 c 0
 281.006835938 515.633789062 229.529296875 517.96484375 178.306640625 522.146484375 c 2
 -17.6923828125 538.146484375 l 2
 -45.69140625 540.431640625 -73.775390625 543.171875 -101.022460938 550.008789062 c 0
 -128.270507812 556.844726562 -154.572265625 567.568359375 -178.584960938 582.146484375 c 1
 -185.65625 589.217773438 l 1
 -100.803710938 674.0703125 l 1
 -76.7900390625 659.4921875 -50.48828125 648.768554688 -23.2412109375 641.932617188 c 0
 4.0068359375 635.095703125 32.08984375 632.35546875 60.08984375 630.0703125 c 2
 256.088867188 614.0703125 l 2
 307.310546875 609.888671875 358.788085938 607.557617188 409.526367188 599.385742188 c 0
 460.264648438 591.213867188 511.0546875 574.499023438 550.08984375 541.0703125 c 0
 553.806640625 537.887695312 557.390625 534.564453125 560.840820312 531.115234375 c 2
 567.912109375 524.043945312 l 2
 567.970703125 523.984375 567.916015625 524.040039062 567.974609375 523.981445312 c 0
 568.033203125 523.922851562 567.977539062 523.977539062 568.037109375 523.918945312 c 2
 568.100585938 523.854492188 l 2
 568.159179688 523.795898438 568.102539062 523.852539062 568.161132812 523.793945312 c 0
 599.548828125 492.29296875 619.78125 450.219726562 627.784179688 406.337890625 c 0
 636.6875 357.524414062 631.985351562 307.381835938 627.16015625 258 c 2
 618.267578125 167 l 9
EndSplineSet
EndChar
StartChar: E
Encoding: 69 69 56
Width: 642
VWidth: 0
Flags: MW
LayerCount: 3
Back
SplineSet
472.60546875 418.5 m 1
 559.60546875 357.5 l 1025
  Spiro
    472.606 418.5 {
    559.606 357.5 v
    0 0 z
  EndSpiro
147.60546875 356 m 1
 46.60546875 371.5 l 1
 156.60546875 485.5 l 1
 147.60546875 356 l 1
  Spiro
    147.606 356 v
    46.6056 371.5 v
    156.606 485.5 v
    0 0 z
  EndSpiro
198.99609375 566.961914062 m 5
 206.067382812 559.890625 l 5
 192.970703125 525.741210938 190.979492188 487.956054688 197.067382812 451.890625 c 4
 202.642578125 418.864257812 214.084960938 387.01171875 219.067382812 353.890625 c 4
 224.883789062 315.228515625 220.260742188 274.498046875 202.067382812 239.890625 c 5
 117.21484375 155.038085938 l 5
 110.143554688 162.109375 l 5
 128.336914062 196.716796875 132.959960938 237.446289062 127.143554688 276.109375 c 4
 122.161132812 309.23046875 110.71875 341.083007812 105.143554688 374.109375 c 4
 99.0556640625 410.174804688 101.046875 447.958984375 114.143554688 482.109375 c 5
 198.99609375 566.961914062 l 5
318.10546875 221 m 0
 317.151367188 252.5703125 313.291992188 284.02734375 307.10546875 315 c 0
 297.698242188 362.099609375 282.893554688 407.977539062 273.10546875 455 c 0
 261.7578125 509.518554688 258.419921875 565.995117188 267.10546875 621 c 1
 363.10546875 699 l 1
 404.118164062 692.041015625 443.607421875 676.245117188 478.10546875 653 c 0
 512.17578125 630.04296875 541.34375 599.845703125 563.10546875 565 c 1024
  Spiro
    318.106 221 {
    307.106 315 o
    273.106 455 o
    267.106 621 v
    363.106 699 v
    478.106 653 o
    563.106 565 v
    0 0 z
  EndSpiro
66.10546875 101 m 0
 108.037109375 99.337890625 149.681640625 92.2646484375 190.10546875 81 c 0
 244.036132812 65.9716796875 295.670898438 43.705078125 349.10546875 27 c 0
 407.927734375 8.6103515625 469.504882812 -1.892578125 531.10546875 0 c 1024
  Spiro
    66.1056 101 {
    190.106 81 o
    349.106 27 o
    531.106 0 o
    0 0 z
  EndSpiro
EndSplineSet
Fore
SplineSet
198.99609375 566.961914062 m 5
 206.067382812 559.890625 l 5
 192.970703125 525.741210938 190.979492188 487.956054688 197.067382812 451.890625 c 4
 202.642578125 418.864257812 214.084960938 387.01171875 219.067382812 353.890625 c 4
 224.883789062 315.228515625 220.260742188 274.498046875 202.067382812 239.890625 c 5
 117.21484375 155.038085938 l 1
 110.143554688 162.109375 l 1
 128.336914062 196.716796875 132.959960938 237.446289062 127.143554688 276.109375 c 4
 122.161132812 309.23046875 110.71875 341.083007812 105.143554688 374.109375 c 4
 99.0556640625 410.174804688 101.046875 447.958984375 114.143554688 482.109375 c 5
 198.99609375 566.961914062 l 5
426.288085938 379.609375 m 1
 511.140625 464.461914062 l 1
 598.140625 403.461914062 l 1
 605.211914062 396.390625 l 1
 520.359375 311.538085938 l 1
 433.359375 372.538085938 l 1
 426.288085938 379.609375 l 1
147.25 356 m 5
 46.25 371.5 l 5
 156.25 485.5 l 5
 147.25 356 l 5
  Spiro
    147.25 356 v
    46.2495 371.5 v
    156.25 485.5 v
    0 0 z
  EndSpiro
560.166015625 663.073242188 m 1
 567.475585938 655.764648438 l 1
 567.53515625 655.704101562 l 1
 567.59375 655.645507812 l 2
 583.1796875 640.004882812 597.015625 622.620117188 608.711914062 603.890625 c 1
 523.859375 519.038085938 l 1
 516.788085938 526.109375 l 1
 505.876953125 543.581054688 493.1796875 559.796875 478.815429688 574.658203125 c 0
 466.547851562 586.515625 453.080078125 597.455078125 438.858398438 607.038085938 c 0
 404.360351562 630.283203125 364.87109375 646.079101562 323.859375 653.038085938 c 5
 310.314453125 642.033203125 l 5
 304.8671875 592.962890625 308.592773438 542.506835938 318.711914062 493.890625 c 4
 328.499023438 446.868164062 343.303710938 400.991210938 352.711914062 353.890625 c 4
 358.897460938 322.91796875 362.756835938 291.4609375 363.711914062 259.890625 c 5
 278.859375 175.038085938 l 1
 271.788085938 182.109375 l 1
 270.833007812 213.678710938 266.973632812 245.13671875 260.788085938 276.109375 c 4
 251.379882812 323.208984375 236.575195312 369.086914062 226.788085938 416.109375 c 4
 215.440429688 470.626953125 212.102539062 527.104492188 220.788085938 582.109375 c 5
 305.640625 666.961914062 l 5
 401.640625 744.961914062 l 1
 442.65234375 738.002929688 482.142578125 722.20703125 516.640625 698.961914062 c 0
 532.236328125 688.453125 546.805664062 676.426757812 560.107421875 663.1328125 c 2
 560.166015625 663.073242188 l 1
19.7880859375 62.109375 m 1
 104.640625 146.961914062 l 1
 146.572265625 145.299804688 188.216796875 138.2265625 228.640625 126.961914062 c 0
 282.571289062 111.93359375 334.205078125 89.6669921875 387.640625 72.9619140625 c 0
 446.462890625 54.572265625 508.0390625 44.0693359375 569.640625 45.9619140625 c 1
 576.711914062 38.890625 l 1
 491.859375 -45.9619140625 l 1
 430.2578125 -47.8544921875 368.680664062 -37.3515625 309.859375 -18.9619140625 c 0
 256.423828125 -2.2568359375 204.7890625 20.009765625 150.859375 35.0380859375 c 0
 110.434570312 46.302734375 68.791015625 53.3759765625 26.859375 55.0380859375 c 1
 19.7880859375 62.109375 l 1
EndSplineSet
Substitution2: "'salt' Stylistic Alternatives in Latin lookup 3-1" E.alt
EndChar
StartChar: G
Encoding: 71 71 42
Width: 701
VWidth: 0
Flags: MW
LayerCount: 3
Fore
SplineSet
187.096679688 191.072265625 m 1
 200.108398438 204.083984375 213.846679688 217.87109375 226.385742188 230.41015625 c 1
 216.510742188 277.15625 209.397460938 324.486328125 205.096679688 372.072265625 c 0
 202.270507812 403.326171875 200.657226562 434.69140625 200.262695312 466.0703125 c 0
 200.010742188 485.98046875 199.016601562 505.87109375 198.813476562 525.78125 c 0
 198.612304688 545.689453125 200.604492188 566.064453125 209.096679688 584.072265625 c 0
 214.547851562 595.6328125 222.399414062 605.90234375 231.463867188 614.95703125 c 2
 316.315429688 699.810546875 l 2
 318.778320312 702.26953125 321.331054688 704.640625 323.948242188 706.923828125 c 0
 339.817382812 720.763671875 357.858398438 732.04296875 376.948242188 740.923828125 c 0
 425.612304688 763.56640625 482.014648438 766.533203125 534.342773438 754.6015625 c 0
 586.672851562 742.669921875 635.208007812 718.396484375 683.948242188 695.923828125 c 0
 739.006835938 670.5390625 795.430664062 647.78125 853.950195312 631.923828125 c 1
 861.020507812 624.853515625 l 1
 776.166992188 540 l 1
 717.649414062 555.857421875 661.225585938 578.615234375 606.166992188 604 c 0
 557.424804688 626.47265625 508.891601562 650.74609375 456.561523438 662.677734375 c 0
 404.231445312 674.609375 347.829101562 671.642578125 299.166992188 649 c 0
 297.981445312 648.44921875 296.797851562 647.88671875 295.620117188 647.31640625 c 1
 291.665039062 633.2734375 290.588867188 618.275390625 290.737304688 603.5625 c 0
 290.940429688 583.654296875 291.934570312 563.76171875 292.186523438 543.853515625 c 0
 292.581054688 512.47265625 294.194335938 481.109375 297.020507812 449.853515625 c 0
 301.424804688 401.13671875 308.774414062 352.68359375 319.020507812 304.853515625 c 1
 234.166992188 220 l 1
 194.166992188 184 l 1
 187.096679688 191.072265625 l 1
  Spiro
    187.097 191.072 v
    200.266 204.254 o
    213.532 217.543 o
    226.387 230.41 v
    217.442 277.292 o
    210.328 324.632 o
    205.097 372.072 o
    202.678 403.329 o
    201.063 434.731 o
    200.263 466.071 o
    199.821 485.956 o
    199.224 505.897 o
    198.815 525.781 o
    199.502 545.721 o
    202.617 565.4 o
    209.097 584.072 o
    215.298 595.195 o
    222.857 605.505 o
    231.464 614.957 [
    316.317 699.811 ]
    318.806 702.239 o
    321.357 704.615 o
    323.949 706.925 o
    340.484 719.904 o
    358.269 731.248 o
    376.949 740.925 o
    427.702 757.175 o
    481.148 761.389 o
    534.344 754.602 o
    585.507 739.099 o
    635.178 718.451 o
    683.949 695.925 o
    739.434 671.597 o
    796.16 649.904 o
    853.95 631.925 v
    861.021 624.854 v
    776.168 540.001 v
    718.378 557.98 o
    661.652 579.673 o
    606.168 604.001 o
    557.396 626.528 o
    507.725 647.175 o
    456.563 662.678 o
    403.366 669.465 o
    349.92 665.251 o
    299.168 649.001 o
    297.984 648.447 o
    296.799 647.884 o
    295.621 647.317 v
    292.567 633.016 o
    291.058 618.31 o
    290.738 603.562 o
    291.147 583.678 o
    291.745 563.738 o
    292.187 543.854 o
    292.987 512.514 o
    294.602 481.111 o
    297.021 449.854 o
    302.399 401.287 o
    309.751 352.83 o
    319.021 304.854 v
    234.168 220.001 v
    194.168 184.001 v
    0 0 z
  EndSpiro
107.725585938 95.18359375 m 1
 100.590820312 102.318359375 l 2
 49.6416015625 153.298828125 17.0712890625 223.07421875 15.0947265625 295.072265625 c 0
 13.7705078125 343.34765625 26.1357421875 391.685546875 48.9775390625 434.23828125 c 0
 71.8193359375 476.7890625 104.889648438 512.81640625 138.422851562 547.572265625 c 2
 161.094726562 571.072265625 l 1
 245.948242188 655.923828125 l 1
 253.018554688 648.853515625 l 1
 230.346679688 625.353515625 l 2
 196.813476562 590.59765625 163.743164062 554.5703125 140.901367188 512.01953125 c 0
 118.059570312 469.466796875 105.694335938 421.12890625 107.018554688 372.853515625 c 0
 108.950195312 302.4921875 140.120117188 234.26171875 189.071289062 183.603515625 c 0
 191.641601562 181.119140625 194.254882812 178.681640625 196.913085938 176.294921875 c 0
 254.403320312 124.630859375 330.700195312 94.58203125 407.948242188 91.923828125 c 0
 446.055664062 90.61328125 484.497070312 96.005859375 520.370117188 108.92578125 c 0
 535.500976562 114.375 551.403320312 122.05859375 564.333007812 129.6328125 c 1
 570.596679688 140.728515625 575.872070312 152.373046875 580.016601562 164.42578125 c 0
 590.202148438 194.04296875 593.489257812 226.060546875 589.094726562 257.0703125 c 0
 583.602539062 295.822265625 565.780273438 332.849609375 538.940429688 361.22265625 c 0
 538.165039062 361.95703125 537.381835938 362.68359375 536.592773438 363.404296875 c 0
 504.430664062 392.779296875 461.694335938 410.33984375 418.166992188 412 c 0
 418.141601562 412.001953125 405.504882812 399.33984375 404.166992188 398 c 2
 397.094726562 405.072265625 l 1
 495.948242188 503.923828125 l 1
 539.475585938 502.263671875 582.211914062 484.703125 614.375976562 455.328125 c 0
 616.303710938 453.56640625 618.192382812 451.763671875 620.040039062 449.921875 c 2
 620.166992188 449.796875 l 1
 627.364257812 442.599609375 l 2
 656.217773438 413.744140625 675.290039062 375.279296875 681.018554688 334.853515625 c 0
 685.413085938 303.841796875 682.125976562 271.82421875 671.940429688 242.20703125 c 0
 661.754882812 212.587890625 644.737304688 185.421875 623.018554688 162.853515625 c 0
 622.022460938 161.818359375 621.016601562 160.79296875 620.000976562 159.77734375 c 2
 535.149414062 74.923828125 l 2
 509.217773438 48.984375 477.110351562 29.43359375 442.588867188 17.001953125 c 0
 406.715820312 4.08203125 368.272460938 -1.310546875 330.166992188 0 c 0
 252.918945312 2.658203125 176.622070312 32.70703125 119.131835938 84.37109375 c 0
 115.348632812 87.76953125 111.651367188 91.26953125 108.047851562 94.86328125 c 2
 107.725585938 95.18359375 l 1
  Spiro
    107.727 95.1846 v
    100.591 102.319 ]
    56.2585 158.889 o
    26.7969 224.498 o
    15.0959 295.072 o
    18.2079 343.105 o
    29.7634 390.02 o
    48.9787 434.238 o
    74.8397 474.771 o
    105.439 512.234 o
    138.423 547.572 [
    161.096 571.072 v
    245.948 655.925 v
    253.02 648.854 v
    230.347 625.354 ]
    197.362 590.016 o
    166.764 552.552 o
    140.903 512.02 o
    121.687 467.801 o
    110.132 420.886 o
    107.02 372.854 o
    118.253 303.842 o
    146.509 239.487 o
    189.072 183.604 o
    191.654 181.138 o
    194.273 178.697 o
    196.913 176.295 o
    259.944 132.087 o
    331.754 103.479 o
    407.949 91.9248 o
    446.022 92.8759 o
    483.787 98.4931 o
    520.371 108.926 o
    535.605 115.027 o
    550.566 122.117 o
    564.333 129.633 v
    570.257 140.895 o
    575.505 152.527 o
    580.017 164.426 o
    587.869 194.686 o
    590.959 225.883 o
    589.096 257.071 o
    579.629 294.955 o
    562.632 330.256 o
    538.941 361.223 o
    538.164 361.954 o
    537.38 362.683 o
    536.594 363.404 o
    501.307 388.669 o
    461.027 405.204 o
    418.167 412.001 o
    414.83 408.675 o
    408.38 402.22 o
    404.167 398.001 [
    397.096 405.072 v
    495.948 503.925 v
    538.809 497.128 o
    579.089 480.593 o
    614.376 455.328 o
    616.289 453.555 o
    618.181 451.75 o
    620.041 449.923 [
    620.168 449.798 v
    627.364 442.601 ]
    652.804 410.859 o
    670.989 374.304 o
    681.02 334.854 o
    682.883 303.664 o
    679.793 272.468 o
    671.941 242.207 o
    659.571 213.513 o
    643.073 186.85 o
    623.02 162.854 o
    621.518 161.308 o
    620.002 159.777 [
    535.15 74.9248 ]
    507.328 51.1635 o
    476.134 31.7632 o
    442.589 17.002 o
    406.005 6.5693 o
    368.24 0.952048 o
    330.167 0.000976562 o
    253.973 11.5547 o
    182.162 40.1631 o
    119.132 84.3711 o
    115.382 87.8001 o
    111.679 91.3048 o
    108.048 94.8633 [
    0 0 z
  EndSpiro
EndSplineSet
Substitution2: "'salt' Stylistic Alternatives in Latin lookup 3-1" G.alt
EndChar
StartChar: H
Encoding: 72 72 60
Width: 623
VWidth: 0
Flags: MW
LayerCount: 3
Back
SplineSet
86.25 428 m 5
 9.25 375.5 l 5
 94.25 371 l 5
 10.75 329 l 5
 100.75 325 l 5
 20.25 281 l 5
 115.25 268.5 l 5
 22.25 221 l 5
 114.25 205 l 5
 157.25 258 l 5
 99.25 448 l 5
 86.25 428 l 5
  Spiro
    86.2499 428 v
    9.24994 375.5 v
    94.2499 371 v
    10.7499 329 v
    100.75 325 v
    20.2499 281 v
    115.25 268.5 v
    22.2499 221 v
    114.25 205 v
    157.25 258 v
    99.2499 448 v
    0 0 z
  EndSpiro
117.25 690 m 5
 117.25 0 l 1029
  Spiro
    117.25 690 {
    117.25 2.84217e-14 v
    0 0 z
  EndSpiro
139.25 365.999023438 m 5
 263.25 475.999023438 l 5
 323.120117188 490.313476562 388.584960938 476.961914062 439.25 441.999023438 c 4
 472.504882812 419.05078125 499.612304688 387.70703125 519.536132812 352.557617188 c 4
 539.459960938 317.407226562 552.9140625 278.264648438 556.25 237.999023438 c 4
 558.840820312 206.72265625 554.466796875 174.498046875 540.63671875 146.326171875 c 4
 526.805664062 118.155273438 503.416015625 96.0224609375 479.25 75.9990234375 c 6
 409.25 17.9990234375 l 5
 351.25 71.9990234375 l 1029
  Spiro
    139.25 365.999 {
    263.25 475.999 v
    439.25 441.999 o
    556.25 237.999 o
    479.25 75.999 [
    409.25 17.999 v
    351.25 71.999 v
    0 0 z
  EndSpiro
EndSplineSet
Fore
SplineSet
86.25 428 m 1
 99.25 448 l 1
 157.25 258 l 1
 114.25 205 l 1
 22.25 221 l 1
 115.25 268.5 l 1
 20.25 281 l 1
 100.75 325 l 1
 10.75 329 l 1
 94.25 371 l 1
 9.25 375.5 l 1
 86.25 428 l 1
  Spiro
    99.2499 448 v
    157.25 258 v
    114.25 205 v
    22.2499 221 v
    115.25 268.5 v
    20.2499 281 v
    100.75 325 v
    10.7499 329 v
    94.2499 371 v
    9.24994 375.5 v
    86.2499 428 v
    0 0 z
  EndSpiro
57.25 695 m 1
 177.25 695 l 1
 177.25 5 l 1
 177.25 -5 l 1
 57.25 -5 l 5
 57.25 685 l 5
 57.25 695 l 1
532.282226562 438.297851562 m 1
 538.873046875 430.443359375 l 1
 538.926757812 430.377929688 l 1
 538.98046875 430.314453125 l 2
 550.173828125 416.9296875 560.112304688 402.466796875 568.712890625 387.294921875 c 0
 588.63671875 352.14453125 602.090820312 313.001953125 605.426757812 272.736328125 c 0
 608.017578125 241.459960938 603.643554688 209.235351562 589.8125 181.0625 c 0
 576.581054688 154.111328125 554.599609375 132.6875 531.560546875 113.348632812 c 2
 439.634765625 36.21484375 l 1
 439.166015625 35.8212890625 l 2
 437.981445312 34.8291015625 437.431640625 34.3720703125 436.501953125 33.6015625 c 2
 366.500976562 -24.3984375 l 1
 308.501953125 29.6015625 l 1
 302.073242188 37.2626953125 l 1
 393.999023438 114.396484375 l 1
 451.91796875 60.4716796875 l 1
 467.616210938 75.4072265625 481.86328125 92.0419921875 491.459960938 111.588867188 c 0
 505.290039062 139.760742188 509.6640625 171.985351562 507.073242188 203.26171875 c 0
 503.737304688 243.52734375 490.283203125 282.669921875 470.359375 317.8203125 c 0
 462.508789062 331.670898438 453.530273438 344.947265625 443.51953125 357.32421875 c 0
 429.708984375 373.184570312 413.890625 387.6015625 396.500976562 399.6015625 c 0
 347.700195312 433.278320312 285.244140625 446.908203125 227.129882812 435.069335938 c 1
 188.426757812 400.736328125 l 1
 96.501953125 323.6015625 l 1
 90.0732421875 331.26171875 l 1
 214.07421875 441.262695312 l 1
 305.999023438 518.396484375 l 1
 365.868164062 532.7109375 431.333984375 519.359375 481.999023438 484.396484375 c 0
 500.760742188 471.44921875 517.56640625 455.830078125 532.228515625 438.362304688 c 2
 532.282226562 438.297851562 l 1
EndSplineSet
Substitution2: "'salt' Stylistic Alternatives in Latin lookup 3-1" H.alt
EndChar
StartChar: I
Encoding: 73 73 126
Width: 503
VWidth: 0
Flags: HMW
LayerCount: 3
Fore
SplineSet
132.75 403.681640625 m 1
 231.047851562 472.510742188 l 1
 319.047851562 398.510742188 l 1
 324.783203125 390.319335938 l 1
 226.485351562 321.489257812 l 1
 138.485351562 395.490234375 l 1
 132.75 403.681640625 l 1
462.838867188 790.134765625 m 1
 468.57421875 781.943359375 l 1
 453.211914062 743.794921875 443.848632812 703.296875 440.21484375 662.330078125 c 0
 436.58203125 621.364257812 438.959960938 580.129882812 441.959960938 539.112304688 c 2
 453.958984375 375.111328125 l 2
 457.803710938 322.6015625 463.55859375 269.125 451.9140625 217.77734375 c 0
 446.08984375 192.103515625 435.5546875 167.473632812 420.615234375 145.796875 c 0
 405.678710938 124.12109375 386.447265625 105.810546875 366.958984375 88.111328125 c 2
 362.783203125 84.318359375 l 1
 264.485351562 15.4892578125 l 1
 258.75 23.6806640625 l 1
 262.924804688 27.4736328125 l 2
 282.4140625 45.173828125 301.64453125 63.4833984375 316.581054688 85.1591796875 c 0
 331.520507812 106.8359375 342.055664062 131.465820312 347.879882812 157.139648438 c 0
 359.524414062 208.487304688 353.76953125 261.963867188 349.924804688 314.473632812 c 2
 337.92578125 478.474609375 l 2
 334.92578125 519.4921875 332.547851562 560.7265625 336.180664062 601.692382812 c 0
 339.814453125 642.659179688 349.177734375 683.157226562 364.540039062 721.305664062 c 1
 462.838867188 790.134765625 l 1
-80.8388671875 565.283203125 m 1
 -86.57421875 573.474609375 l 1
 -1.5751953125 642.473632812 l 1
 96.7236328125 711.302734375 l 1
 123.430664062 684.359375 159.145507812 666.50390625 196.723632812 661.302734375 c 0
 225.067382812 657.381835938 254.702148438 660.715820312 281.147460938 670.485351562 c 1
 352.1015625 727.040039062 l 1
 357.836914062 718.848632812 l 1
 339.01953125 687.916015625 328.498046875 647.311523438 323.21484375 611.490234375 c 0
 317.931640625 575.668945312 319.817382812 539.223632812 322.458984375 503.111328125 c 2
 334.458984375 339.111328125 l 2
 338.305664062 286.5703125 344.180664062 233.073242188 332.622070312 181.674804688 c 0
 326.842773438 155.975585938 316.31640625 131.313476562 301.338867188 109.6484375 c 0
 286.357421875 87.98046875 267.040039062 69.7333984375 247.458984375 52.111328125 c 2
 187.458984375 -1.888671875 l 1
 89.1611328125 -70.7177734375 l 1
 8.1611328125 -25.716796875 l 1
 2.42578125 -17.525390625 l 1
 100.723632812 51.3037109375 l 1
 167.59375 14.1533203125 l 1
 177.973632812 24.5322265625 188.594726562 36.4130859375 197.3046875 49.0107421875 c 0
 212.282226562 70.67578125 222.80859375 95.337890625 228.587890625 121.037109375 c 0
 240.146484375 172.435546875 234.271484375 225.932617188 230.42578125 278.473632812 c 2
 218.424804688 442.473632812 l 2
 215.783203125 478.5859375 213.8984375 515.032226562 219.181640625 550.853515625 c 0
 222.807617188 575.448242188 229.63671875 599.506835938 239.69921875 622.310546875 c 1
 228.143554688 614.21875 l 2
 216.430664062 606.015625 203.719726562 599.237304688 190.362304688 594.131835938 c 0
 163.061523438 583.69921875 133.112304688 580.276367188 104.161132812 584.282226562 c 0
 69.1484375 589.127929688 35.9765625 604.818359375 9.86328125 628.79296875 c 1
 -80.8388671875 565.283203125 l 1
EndSplineSet
EndChar
StartChar: J
Encoding: 74 74 41
Width: 485
VWidth: 0
Flags: MW
LayerCount: 3
Fore
SplineSet
466.0078125 810.374023438 m 1
 454.2890625 821.96484375 l 1
 369.436523438 737.112304688 l 2
 365.802734375 733.478515625 362.354492188 729.65625 359.23828125 725.569335938 c 0
 356.11328125 721.46875 353.173828125 717.223632812 350.504882812 712.8125 c 0
 347.84375 708.415039062 345.48828125 703.833984375 343.432617188 699.122070312 c 0
 339.547851562 690.215820312 336.68359375 680.87890625 334.650390625 671.376953125 c 0
 332.600585938 661.796875 331.393554688 652.051757812 330.609375 642.28515625 c 0
 329.825195312 632.506835938 329.541992188 622.696289062 329.379882812 612.887695312 c 2
 319.379882812 6.8876953125 l 2
 319.232421875 -2.0419921875 318.983398438 -10.9736328125 318.280273438 -19.876953125 c 0
 317.577148438 -28.76953125 317.83984375 -38.0341796875 314.686523438 -46.3798828125 c 0
 304.923828125 -72.2216796875 287.415039062 -95.017578125 287.415039062 -95.017578125 c 9
 298.7578125 -105.721679688 l 17
 374.274414062 -30.3310546875 l 2
 377.743164062 -26.8681640625 381.009765625 -23.2021484375 383.947265625 -19.2783203125 c 0
 386.893554688 -15.3427734375 389.671875 -11.27734375 392.1875 -7.052734375 c 0
 394.6953125 -2.83984375 396.8984375 1.552734375 398.807617188 6.068359375 c 0
 402.252929688 14.2197265625 404.80078125 22.7392578125 406.610351562 31.40234375 c 0
 408.435546875 40.134765625 409.506835938 49.0107421875 410.204101562 57.9052734375 c 0
 410.901367188 66.80859375 411.15625 75.740234375 411.303710938 84.669921875 c 2
 421.303710938 690.668945312 l 2
 421.465820312 700.4765625 421.942382812 710.276367188 422.533203125 720.067382812 c 0
 423.125 729.860351562 423.991210938 739.694335938 426.57421875 749.159179688 c 0
 427.8515625 753.840820312 428.705078125 758.71484375 430.8125 763.0859375 c 0
 439.923828125 781.987304688 466.0078125 810.374023438 466.0078125 810.374023438 c 1
149.340820312 399.778320312 m 1
 218.340820312 468.778320312 l 1
 218.340820312 319.778320312 l 1
 149.340820312 399.778320312 l 1
  Spiro
    149.341 399.778 v
    218.341 468.778 v
    218.341 319.778 v
    14865.2 -5344 z
  EndSpiro
77.068359375 819.740234375 m 1
 84.1396484375 812.668945312 l 2
 127.833007812 767.709960938 171.747070312 722.954101562 215.434570312 678 c 1
 305.068359375 741.740234375 l 1
 312.139648438 734.668945312 l 1
 312.118164062 733.356445312 l 1
 304.139648438 242.668945312 l 2
 302.952148438 169.612304688 299.6171875 95.625 277.696289062 25.9248046875 c 0
 257.534179688 -38.18359375 222.345703125 -97.708984375 174.848632812 -145.186523438 c 2
 89.9951171875 -230.0390625 l 2
 85.8525390625 -234.180664062 81.615234375 -238.23046875 77.287109375 -242.18359375 c 1
 11.287109375 -208.18359375 l 1
 4.2158203125 -201.112304688 l 1
 89.068359375 -116.259765625 l 1
 144.016601562 -144.56640625 l 1
 161.196289062 -116.005859375 175.58984375 -84.234375 185.772460938 -51.8564453125 c 0
 207.693359375 17.84375 211.028320312 91.8310546875 212.215820312 164.887695312 c 2
 220.015625 644.592773438 l 1
 192.743164062 625.19921875 164.856445312 605.420898438 137.286132812 585.81640625 c 1
 130.215820312 592.88671875 l 1
 128.530273438 594.62109375 l 1
 -7.7841796875 734.887695312 l 1
 77.068359375 819.740234375 l 1
  Spiro
    77.0684 819.74 v
    84.1396 812.668 ]
    127.846 767.807 o
    171.732 722.857 o
    215.435 677.999 v
    305.068 741.74 v
    312.14 734.668 v
    312.118 733.356 v
    304.14 242.668 ]
    301.632 169.568 o
    294.019 96.7882 o
    277.696 25.9242 o
    252.656 -36.3198 o
    218.103 -94.0247 o
    174.849 -145.187 [
    89.9951 -230.04 ]
    85.8253 -234.146 o
    81.5805 -238.203 o
    77.2871 -242.184 v
    11.2871 -208.184 v
    4.21581 -201.113 v
    89.0684 -116.26 v
    144.017 -144.567 v
    160.2 -115.063 o
    174.252 -83.9046 o
    185.772 -51.857 o
    202.096 19.007 o
    209.708 91.7866 o
    212.216 164.887 [
    220.016 644.592 v
    192.6 625.111 o
    164.9 605.438 o
    137.286 585.816 v
    130.216 592.886 v
    128.53 594.621 v
    -7.78419 734.887 v
    0 0 z
  EndSpiro
EndSplineSet
EndChar
StartChar: M
Encoding: 77 77 20
Width: 825
VWidth: 0
Flags: MW
LayerCount: 3
Back
SplineSet
451.1171875 359.600585938 m 4
 442.0078125 383.315429688 436.918945312 408.620117188 436.653320312 434.0234375 c 4
 436.387695312 459.42578125 440.884765625 485.334960938 453.1171875 507.600585938 c 4
 457.184570312 515.004882812 462.155273438 521.91796875 467.956054688 528.059570312 c 4
 473.756835938 534.201171875 480.401367188 539.475585938 487.1171875 544.600585938 c 6
 563.1171875 602.600585938 l 5
 748.1171875 222.600585938 l 6
 755.450195312 207.538085938 762.668945312 192.311523438 767.151367188 176.170898438 c 4
 771.6328125 160.029296875 773.341796875 143.01953125 771.090820312 126.418945312 c 4
 768.83984375 109.819335938 762.645507812 93.759765625 753.095703125 79.99609375 c 4
 743.545898438 66.232421875 730.7265625 54.796875 716.1171875 46.6005859375 c 4
 692.630859375 33.423828125 664.633789062 28.7001953125 638.010742188 32.74609375 c 4
 611.38671875 36.791015625 586.176757812 49.576171875 567.1171875 68.6005859375 c 1028
  Spiro
    451.117 359.6 {
    453.117 507.6 o
    487.117 544.6 [
    563.117 602.6 v
    748.117 222.6 ]
    716.117 46.6003 o
    567.117 68.6003 o
    0 0 z
  EndSpiro
271.1171875 90.6005859375 m 5
 214.1171875 33.6005859375 l 5
 27.1171875 126.600585938 l 5
 42.505859375 140.219726562 56.626953125 155.282226562 69.1171875 171.600585938 c 4
 87.126953125 195.129882812 101.661132812 221.482421875 110.404296875 249.793945312 c 4
 119.146484375 278.106445312 121.24609375 307.982421875 122.1171875 337.600585938 c 6
 124.1171875 405.600585938 l 6
 124.819335938 429.489257812 126.333984375 453.754882812 134.631835938 476.166992188 c 4
 142.9296875 498.579101562 157.7109375 518.651367188 177.1171875 532.600585938 c 6
 264.1171875 610.600585938 l 5
 407.1171875 6.6005859375 l 1029
  Spiro
    271.117 90.6003 {
    214.117 33.6003 v
    27.121 126.6 v
    69.121 171.6 o
    122.121 337.6 [
    124.121 405.6 ]
    177.121 532.6 v
    264.117 610.6 v
    407.117 6.60028 v
    0 0 z
  EndSpiro
EndSplineSet
Fore
SplineSet
725.12890625 87.52734375 m 0
 729.774052624 94.375 725.670898438 121.137695312 721.189453125 137.280273438 c 0
 716.70703125 153.420898438 709.48828125 168.647460938 702.155273438 183.709960938 c 2
 521.581054688 554.620117188 l 1
 513.401367188 548.286132812 l 2
 486.858176491 527.732272395 482.403771827 493.136723476 482.615234375 472.9140625 c 0
 482.880859375 447.51171875 487.969726562 422.206054688 497.079101562 398.491210938 c 1
 412.225585938 313.638671875 l 1
 405.155273438 320.708984375 l 1
 396.045898438 344.424804688 390.95703125 369.729492188 390.69140625 395.1328125 c 0
 390.42578125 420.53515625 394.922851562 446.444335938 407.155273438 468.709960938 c 0
 411.22265625 476.114257812 416.193359375 483.02734375 421.994140625 489.16796875 c 0
 422.604492188 489.815429688 423.224609375 490.452148438 423.852539062 491.080078125 c 2
 508.706054688 575.932617188 l 2
 514.047851562 581.272460938 519.999023438 585.977539062 526.0078125 590.5625 c 2
 602.0078125 648.5625 l 1
 609.079101562 641.491210938 l 1
 609.966796875 639.668945312 l 1
 794.079101562 261.491210938 l 2
 801.412109375 246.428710938 808.630859375 231.202148438 813.11328125 215.061523438 c 0
 817.594726562 198.919921875 819.303710938 181.91015625 817.052734375 165.309570312 c 0
 814.801757812 148.709960938 808.607421875 132.651367188 799.057617188 118.88671875 c 0
 795.374023438 113.578125 791.204101562 108.615234375 786.6328125 104.051757812 c 2
 701.780273438 19.19921875 l 2
 694.5 11.9306640625 686.201171875 5.673828125 677.2265625 0.638671875 c 0
 653.740234375 -12.5380859375 625.7421875 -17.26171875 599.120117188 -13.2158203125 c 0
 572.49609375 -9.1708984375 547.286132812 3.6142578125 528.2265625 22.638671875 c 2
 521.155273438 29.7099609375 l 1
 606.0078125 114.5625 l 1
 625.067382812 95.5380859375 655.918846283 83.4558453377 676.901367188 78.7080078125 c 0
 690.388549805 75.656184248 716.546117256 74.875 725.12890625 87.52734375 c 0
274.329101562 86.7412109375 m 17
 260.079101562 72.4912109375 l 1
 175.2265625 -12.361328125 l 1
 -11.7734375 80.638671875 l 1
 -18.8447265625 87.7099609375 l 1
 9.2041015625 115.758789062 l 1
 14.392578125 121.641601562 18.7021484375 126.892578125 23.1552734375 132.709960938 c 0
 41.1650390625 156.239257812 55.69921875 182.591796875 64.4423828125 210.90234375 c 0
 73.1845703125 239.215820312 75.2841796875 269.091796875 76.1552734375 298.709960938 c 2
 78.1552734375 366.709960938 l 2
 78.857421875 390.598632812 80.3720703125 414.864257812 88.669921875 437.276367188 c 0
 94.8232421875 453.895507812 104.541015625 469.227539062 117.06640625 481.731445312 c 2
 201.918945312 566.583984375 l 2
 206.28515625 570.942382812 210.9921875 574.95703125 216.008789062 578.5625 c 1
 303.0078125 656.5625 l 1
 310.079101562 649.491210938 l 1
 310.59765625 647.301757812 l 1
 453.079101562 45.4912109375 l 1
 368.2265625 -39.361328125 l 1
 361.155273438 -32.2900390625 l 1
 220.774414062 560.647460938 l 1
 202.57421875 544.541015625 l 2
 193.44909668 536.465647363 184.428356375 525.416137695 180.59375 515.05859375 c 0
 172.295898438 492.645507812 170.78125 468.379882812 170.079101562 444.4921875 c 2
 168.079101562 376.491210938 l 2
 167.208007812 346.874023438 165.108398438 316.997070312 156.366210938 288.684570312 c 0
 147.623046875 260.373046875 133.088867188 234.020507812 115.079101562 210.491210938 c 0
 106.8203125 199.702148438 98.1201171875 189.741210938 88.111328125 179.665039062 c 0
 88.111328125 179.665039062 87.712890625 179.264648438 87.3935546875 178.9453125 c 2
 76.02734375 167.580078125 l 1
 253.0078125 79.5625 l 1
 267.411132812 93.9169921875 l 9
 274.329101562 86.7412109375 l 17
EndSplineSet
Substitution2: "'salt' Stylistic Alternatives in Latin lookup 3-1" M.alt
EndChar
StartChar: N
Encoding: 78 78 73
Width: 816
VWidth: 0
Flags: M
LayerCount: 3
Back
Fore
SplineSet
331.875 533.474609375 m 1
 334.125 514.724609375 l 1
 314.125 505.224609375 l 1
 308.375 513.474609375 l 1
 320.625 526.224609375 l 1
 331.875 533.474609375 l 1
  Spiro
    334.125 514.725 v
    314.125 505.225 v
    308.375 513.475 v
    320.625 526.225 v
    331.875 533.475 v
    615.875 533.475 z
  EndSpiro
547.248046875 698.997070312 m 1
 553.676757812 691.336914062 l 1
 586.676757812 633.336914062 l 2
 646.431640625 528.314453125 699.780273438 417.979492188 722.676757812 299.336914062 c 0
 729.924804688 261.778320312 733.270507812 222.431640625 722.418945312 185.751953125 c 0
 713.923828125 157.03515625 696.889648438 130.833007812 674.005859375 111.6171875 c 2
 658.883789062 98.927734375 l 1
 766.29296875 42.8955078125 l 1
 790.249023438 62.9970703125 l 1
 796.676757812 55.3369140625 l 1
 773.676757812 34.7373046875 l 1
 681.750976562 -42.3974609375 l 1
 561.750976562 20.2021484375 l 1
 555.323242188 27.86328125 l 1
 593.491210938 59.8896484375 l 1
 607.241210938 76.091796875 617.950195312 95.603515625 624.065429688 116.27734375 c 0
 634.916992188 152.958007812 631.572265625 192.3046875 624.323242188 229.86328125 c 0
 601.427734375 348.505859375 548.078125 458.83984375 488.323242188 563.86328125 c 2
 455.323242188 621.862304688 l 1
 547.248046875 698.997070312 l 1
  Spiro
    547.248 698.997 v
    553.677 691.337 v
    586.677 633.337 ]
    643.353 526.542 o
    690.561 415.208 o
    722.677 299.337 o
    728.239 261.386 o
    728.917 223.118 o
    722.419 185.752 o
    711.191 158.066 o
    694.821 132.973 o
    674.006 111.617 [
    658.884 98.9277 v
    766.293 42.8955 v
    790.249 62.9971 v
    796.677 55.3369 v
    773.677 34.7373 v
    681.751 -42.3975 v
    561.751 20.2021 v
    555.323 27.8633 v
    593.491 59.8896 v
    606.158 77.0973 o
    616.485 96.0901 o
    624.065 116.277 o
    630.564 153.644 o
    629.886 191.912 o
    624.323 229.863 o
    592.208 345.734 o
    545 457.068 o
    488.323 563.863 [
    455.323 621.862 v
    0 0 z
  EndSpiro
418.78125 595.110351562 m 1
 424.517578125 586.918945312 l 1
 414.608398438 547.063476562 409.908203125 505.986328125 409.517578125 464.918945312 c 0
 409.498046875 462.893554688 409.48828125 460.8671875 409.48828125 458.842773438 c 0
 409.48828125 404.142578125 416.293945312 349.62109375 417.516601562 294.918945312 c 0
 417.65234375 288.844726562 417.721679688 282.76953125 417.72265625 276.694335938 c 0
 417.72265625 253.401367188 416.704101562 230.107421875 414.516601562 206.918945312 c 0
 411.333984375 173.169921875 405.013671875 139.329101562 390.794921875 108.555664062 c 0
 376.577148438 77.783203125 354.778320312 50.466796875 327.516601562 30.318359375 c 1
 229.21875 -38.5107421875 l 1
 223.482421875 -30.3193359375 l 1
 250.744140625 -10.1708984375 272.54296875 17.1455078125 286.760742188 47.91796875 c 0
 300.979492188 78.69140625 307.299804688 112.532226562 310.482421875 146.28125 c 0
 312.669921875 169.469726562 313.688476562 192.763671875 313.688476562 216.056640625 c 0
 313.6875 222.131835938 313.618164062 228.20703125 313.483398438 234.28125 c 0
 312.259765625 288.983398438 305.454101562 343.504882812 305.455078125 398.205078125 c 0
 305.454101562 400.229492188 305.463867188 402.255859375 305.483398438 404.28125 c 0
 305.874023438 445.348632812 310.57421875 486.42578125 320.483398438 526.28125 c 1
 418.78125 595.110351562 l 1
  Spiro
    418.781 595.11 v
    424.518 586.919 v
    416.318 546.742 o
    411.375 505.903 o
    409.518 464.919 o
    409.501 462.895 o
    409.492 460.866 o
    409.488 458.843 o
    411.295 404.243 o
    414.895 349.52 o
    417.517 294.919 o
    417.63 288.851 o
    417.699 282.763 o
    417.723 276.694 o
    417.378 253.428 o
    416.319 230.115 o
    414.517 206.919 o
    410.118 173.29 o
    402.548 140.202 o
    390.795 108.556 o
    374.148 79.1008 o
    352.856 52.6941 o
    327.517 30.3184 v
    229.219 -38.5107 v
    223.482 -30.3193 v
    248.821 -7.94357 o
    270.113 18.4631 o
    286.761 47.918 o
    298.514 79.5644 o
    306.083 112.652 o
    310.482 146.281 o
    312.284 169.478 o
    313.344 192.791 o
    313.688 216.057 o
    313.665 222.126 o
    313.596 228.213 o
    313.483 234.281 o
    310.861 288.882 o
    307.261 343.606 o
    305.455 398.205 o
    305.458 400.228 o
    305.467 402.258 o
    305.483 404.281 o
    307.34 445.265 o
    312.284 486.105 o
    320.483 526.281 v
    0 0 z
  EndSpiro
212.5 132.599609375 m 25
 132.5 186.599609375 l 25
 200.5 229.599609375 l 25
 128.5 259.599609375 l 25
 192.5 301.599609375 l 25
 120.5 337.599609375 l 25
 192.5 375.599609375 l 25
 215.5 318.599609375 l 25
 222.5 163.599609375 l 25
 212.5 132.599609375 l 25
  Spiro
    212.5 132.6 v
    132.5 186.6 v
    200.5 229.6 v
    128.5 259.6 v
    192.5 301.6 v
    120.5 337.6 v
    192.5 375.6 v
    215.5 318.6 v
    222.5 163.6 v
    0 0 z
  EndSpiro
308.28125 513.510742188 m 1
 314.017578125 505.319335938 l 1
 299.2734375 476.665039062 289.935546875 445.3046875 286.017578125 413.319335938 c 0
 280.60546875 369.15234375 285.81640625 324.46484375 291.194335938 280.294921875 c 0
 296.573242188 236.125 301.181640625 191.234375 294.016601562 147.318359375 c 0
 288.079101562 110.918945312 273.852539062 75.8974609375 252.533203125 45.802734375 c 0
 231.212890625 15.7080078125 203.227539062 -8.9248046875 175.017578125 -32.6806640625 c 2
 156.017578125 -48.681640625 l 1
 57.71875 -117.510742188 l 1
 15.71875 -89.5107421875 l 1
 9.982421875 -81.3193359375 l 1
 108.28125 -12.490234375 l 1
 136.034179688 -30.9921875 l 1
 140.22265625 -25.9638671875 144.568359375 -20.3837890625 148.499023438 -14.8349609375 c 0
 169.818359375 15.259765625 184.044921875 50.28125 189.983398438 86.681640625 c 0
 197.147460938 130.596679688 192.5390625 175.487304688 187.161132812 219.657226562 c 0
 181.782226562 263.828125 176.572265625 308.514648438 181.983398438 352.681640625 c 0
 185.901367188 384.666992188 195.239257812 416.02734375 209.983398438 444.681640625 c 1
 308.28125 513.510742188 l 1
  Spiro
    308.281 513.511 v
    314.018 505.319 v
    301.087 475.87 o
    291.734 444.988 o
    286.018 413.319 o
    283.759 369.062 o
    286.263 324.555 o
    291.194 280.295 o
    295.905 235.992 o
    297.664 191.452 o
    294.017 147.318 o
    285.372 111.545 o
    271.428 77.3753 o
    252.533 45.8027 o
    229.255 17.3858 o
    202.887 -8.48752 o
    175.018 -32.6807 [
    156.018 -48.6816 v
    57.7188 -117.511 v
    15.7188 -89.5107 v
    9.98242 -81.3193 v
    108.281 -12.4902 v
    136.034 -30.9922 v
    140.25 -25.8069 o
    144.455 -20.3671 o
    148.499 -14.835 o
    167.393 16.7376 o
    181.338 50.9074 o
    189.983 86.6816 o
    193.63 130.815 o
    191.871 175.354 o
    187.161 219.657 o
    182.23 263.917 o
    179.725 308.424 o
    181.983 352.682 o
    187.7 384.35 o
    197.053 415.233 o
    209.983 444.682 v
    0 0 z
  EndSpiro
EndSplineSet
Layer: 2
SplineSet
-140.670410156 787 m 5
 -231.670410156 865 l 5
 -206.442919777 879.902596893 -186.971363268 903.938457047 -176.615127826 931.347617057 c 4
 -166.258892384 958.756777067 -165.394003552 988.70089994 -165.670410156 1018 c 6
 -166.670410156 1124 l 6
 -167.301666657 1190.9131891 -165.21888579 1259.39754869 -140.786312199 1321.69379824 c 4
 -116.353738607 1383.99004778 -70.4506002958 1438.02090359 -11.6704101562 1470 c 5
 138.329589844 1130 l 6
 158.969123704 1083.21705658 177.977479685 1034.05415974 176.923004685 982.931540135 c 4
 175.868529685 931.80892053 154.572045892 881.037602946 117.329589844 846 c 5
 273.329589844 779 l 1029
  Spiro
    -140.67 787 {
    -231.67 865 v
    -165.67 1018 [
    -166.67 1124 ]
    -11.6704 1470 v
    138.33 1130 ]
    117.33 846 v
    273.33 779 v
    0 0 z
  EndSpiro
-257.670410156 1295 m 4
 -274.153305425 1275.14739928 -285.542956515 1251.21258931 -291.220594456 1226.0416533 c 4
 -296.898232396 1200.8707173 -296.611510797 1174.78615756 -295.670410156 1149 c 6
 -290.670410156 1012 l 6
 -289.188976501 971.408717833 -289.344051084 929.804523118 -303.261492829 891.644967972 c 4
 -317.178934574 853.485412827 -344.356949553 820.070035721 -379.670410156 800 c 1028
  Spiro
    -257.67 1295 {
    -295.67 1149 [
    -290.67 1012 ]
    -379.67 800 v
    0 0 z
  EndSpiro
504.5 656.599609375 m 1
 537.5 598.599609375 l 2
 597.25390625 493.577148438 650.604492188 383.243164062 673.5 264.599609375 c 0
 680.748046875 227.041015625 684.09375 187.6953125 673.2421875 151.014648438 c 0
 662.391601562 114.333984375 637.608398438 81.7578125 604.5 62.599609375 c 1
 724.5 0 l 1
 747.5 20.599609375 l 1025
  Spiro
    504.5 656.6 {
    537.5 598.6 ]
    673.5 264.6 ]
    604.5 62.5999 v
    724.5 0 v
    747.5 20.5999 v
    0 0 z
  EndSpiro
372.5 556.599609375 m 0
 362.590820312 516.744140625 357.890625 475.666992188 357.5 434.599609375 c 0
 356.959960938 377.861328125 364.232421875 321.327148438 365.5 264.599609375 c 0
 366.15625 235.240234375 365.2578125 205.837890625 362.5 176.599609375 c 0
 359.31640625 142.8515625 352.99609375 109.009765625 338.77734375 78.2373046875 c 0
 324.559570312 47.46484375 302.76171875 20.1474609375 275.5 0 c 1024
  Spiro
    372.5 556.6 {
    357.5 434.6 o
    365.5 264.6 o
    362.5 176.6 ]
    275.5 0 o
    0 0 z
  EndSpiro
262 475 m 0
 247.256835938 446.345703125 237.918945312 414.985351562 234 383 c 0
 228.588867188 338.833984375 233.799804688 294.146484375 239.177734375 249.9765625 c 0
 244.556640625 205.805664062 249.1640625 160.916015625 242 117 c 0
 236.061523438 80.6005859375 221.8359375 45.578125 200.516601562 15.484375 c 0
 179.196289062 -14.6103515625 151.2109375 -39.244140625 123 -63 c 2
 104 -79 l 1
 62 -51 l 1025
  Spiro
    262 475 {
    234 383 o
    242 117 o
    123 -63.0001 [
    104 -79.0001 v
    62 -51.0001 v
    0 0 z
  EndSpiro
EndSplineSet
Substitution2: "'salt' Stylistic Alternatives in Latin lookup 3-1" N.alt
EndChar
StartChar: P
Encoding: 80 80 10
Width: 710
VWidth: 0
Flags: MW
LayerCount: 3
Back
SplineSet
181.537109375 481.596679688 m 17
 181.537109375 481.596679688 273.928710938 602.108398438 402.537109375 604.596679688 c 0
 511.551757812 606.706054688 646.311523438 507.401367188 645.537109375 365.596679688 c 0
 644.98046875 263.590820312 580.006835938 138.086914062 472.537109375 74.5966796875 c 9
 421.836914062 87.0771484375 391.704101562 89.0224609375 342.537109375 106.596679688 c 24
 294.080078125 123.916992188 269.947265625 141.366210938 223.537109375 163.596679688 c 1049
-91.462890625 583.596679688 m 1
 -91.462890625 583.596679688 -50.462890625 542.079101562 3.87109375 536.59765625 c 0
 63.537109375 530.578125 113.537109375 563.596679688 113.537109375 563.596679688 c 1
 105.537109375 -129.403320312 l 1025
EndSplineSet
Fore
SplineSet
349.657226562 417.83203125 m 5
 434.510742188 332.979492188 l 5
 349.657226562 248.126953125 l 5
 264.8046875 332.979492188 l 5
 349.657226562 417.83203125 l 5
105.109375 169.038085938 m 25
 19.109375 230.038085938 l 25
 84.109375 285.038085938 l 25
 119.109375 223.038085938 l 25
 105.109375 169.038085938 l 25
99.109375 253.038085938 m 25
 14.109375 288.038085938 l 25
 92.109375 338.038085938 l 25
 99.109375 253.038085938 l 25
88.109375 403.038085938 m 25
 99.109375 333.038085938 l 25
 9.109375 361.038085938 l 25
 88.109375 403.038085938 l 25
587.217773438 156.537109375 m 0
 546.248541208 113.154045593 460.405273438 34.365234375 436.21875 20.076171875 c 1
 385.518554688 32.556640625 355.385742188 34.501953125 306.21875 52.076171875 c 0
 257.76171875 69.396484375 233.627929688 86.845703125 187.217773438 109.076171875 c 1
 180.147460938 116.146484375 l 1
 265 201 l 1
 311.41015625 178.76953125 335.54296875 161.3203125 384 144 c 0
 433.166992188 126.42578125 463.299804688 124.48046875 514 112 c 1
 572.113972663 169.47346266 598.009523885 252.373661406 602.147460938 318.147460938 c 0
 606.143662999 381.668338597 575.62109375 436.75390625 535.9140625 478.021484375 c 0
 487.9296875 524.211914062 423.418945312 551.182617188 366.217773438 550.076171875 c 0
 297.192382812 548.740234375 238.815429688 513.579101562 198.974609375 480.83203125 c 1
 145.21875 427.076171875 l 1
 138.147460938 434.147460938 l 1
 138.147460938 434.147460938 146.948242188 445.625976562 162.897460938 461.572265625 c 2
 247.75 546.424804688 l 2
 283.479492188 582.145507812 355.083984375 640.279296875 444 642 c 0
 502.657226562 643.134765625 568.767578125 614.908203125 617.208984375 566.499023438 c 2
 617.267578125 566.440429688 l 1
 624.674804688 559.032226562 l 2
 666.046875 517.510742188 694.427734375 461.225585938 694.071289062 395.928710938 c 0
 693.640625 316.994140625 668.869873047 243 587.217773438 156.537109375 c 0
154.071289062 -137.961914062 m 9
 62.1474609375 -137.961914062 l 17
 70.0166015625 504.845703125 l 1
 54.3291015625 496.26171875 13.7763671875 477.4140625 -32.447265625 482.077148438 c 0
 -85.38671875 487.41796875 -125.66796875 526.969726562 -127.700195312 528.99609375 c 2
 -127.717773438 529.012695312 l 1
 -127.720703125 529.016601562 l 1
 -127.724609375 529.01953125 l 1
 -134.799804688 536.094726562 l 2
 -134.834960938 536.129882812 -134.852539062 536.147460938 -134.852539062 536.147460938 c 1
 -49.9990234375 621 l 1
 -49.880859375 620.881835938 l 2
 -47.4033203125 618.420898438 -7.29296875 579.310546875 45.333984375 574.000976562 c 0
 105 567.981445312 155 601 155 601 c 2
 162.071289062 593.928710938 l 1
 154.071289062 -137.961914062 l 9
EndSplineSet
Substitution2: "'salt' Stylistic Alternatives in Latin lookup 3-1" P.alt
EndChar
StartChar: R
Encoding: 82 82 31
Width: 858
VWidth: 0
Flags: HMW
LayerCount: 3
Back
SplineSet
248 181 m 1
 319 232 l 1
 319 584 l 1
 419 664 l 1
 463.041015625 631.1875 493.237304688 580.369140625 501 526 c 0
 506.649414062 486.434570312 500.6328125 445.275390625 483.895507812 408.982421875 c 0
 467.158203125 372.689453125 439.759765625 341.391601562 406 320 c 1
 484.879882812 290.958984375 551.228515625 236.099609375 611 177 c 2
 789 1 l 1025
  Spiro
    248 181 {
    319 232 v
    319 584 v
    419 664 v
    501 526 o
    406 320 v
    611 177 [
    789 1 v
    0 0 z
  EndSpiro
259 554 m 0
 232.365234375 531.803710938 212.0234375 502.34765625 199.763671875 469.916015625 c 0
 187.50390625 437.484375 183.743164062 402.5625 181 368 c 2
 176 305 l 2
 173.083007812 268.251953125 168.713867188 230.859375 153.010742188 197.506835938 c 0
 137.307617188 164.154296875 110.8203125 135.78515625 78 119 c 1
 260 0 l 1025
  Spiro
    259 554 {
    181 368 [
    176 305 ]
    78 119 v
    260 0 v
    0 0 z
  EndSpiro
119 650 m 25
 169 534 l 1049
  Spiro
    119 650 {
    169 534 v
    0 0 z
  EndSpiro
EndSplineSet
Fore
SplineSet
458.4296875 699.6328125 m 21
 466.303710938 693.765625 473.735351562 687.323242188 480.67578125 680.387695312 c 6
 480.734375 680.328125 l 5
 487.93359375 673.12890625 l 5
 487.999023438 673.063476562 l 5
 488.05859375 673.004882812 l 6
 519.76171875 641.186523438 541.146484375 599.063476562 547.5 554.560546875 c 4
 553.1484375 514.995117188 547.1328125 473.836914062 530.395507812 437.543945312 c 4
 520.061523438 415.134765625 505.663085938 394.630859375 488.212890625 377.186523438 c 4
 479.0546875 368.029296875 469.806640625 358.684570312 460.736328125 349.61328125 c 5
 532.953125 319.40234375 594.563476562 267.869140625 650.428710938 212.631835938 c 6
 835.5 29.5615234375 l 5
 750.647460938 -55.2919921875 l 5
 572.647460938 120.708007812 l 6
 512.875976562 179.807617188 446.526367188 234.666992188 367.647460938 263.708007812 c 5
 280.646484375 175.708007812 l 5
 209.647460938 124.708007812 l 5
 202.576171875 131.779296875 l 5
 225.900390625 155.103515625 252.055664062 181.342773438 273.576171875 202.86328125 c 5
 273.576171875 534.779296875 l 13
 458.4296875 699.6328125 l 21
365.5 275.703125 m 5
 424.215820312 334.418945312 l 5
 429.404296875 342.592773438 434.516601562 351.184570312 438.471679688 359.76171875 c 4
 455.208984375 396.0546875 461.224609375 437.213867188 455.576171875 476.779296875 c 4
 449.442382812 519.739257812 429.302734375 560.482421875 399.393554688 591.876953125 c 4
 393.52734375 597.466796875 387.206054688 602.822265625 380.647460938 607.708984375 c 5
 365.552734375 595.6328125 l 5
 365.5 275.703125 l 5
  Spiro
    365.5 275.703 v
    424.216 334.419 v
    429.334 342.708 o
    434.176 351.204 o
    438.472 359.762 o
    451.591 397.399 o
    457.374 436.962 o
    455.576 476.78 o
    444.946 518.696 o
    425.866 557.667 o
    399.394 591.877 o
    393.39 597.375 o
    387.113 602.68 o
    380.647 607.709 v
    365.553 595.633 v
    0 0 z
  EndSpiro
458.4296875 699.6328125 m 5
 314 569.33984375 l 5
 287.364257812 547.143554688 267.0234375 517.6875 254.763671875 485.255859375 c 4
 242.50390625 452.82421875 238.7421875 417.90234375 236 383.33984375 c 6
 231 320.33984375 l 6
 228.083007812 283.591796875 223.713867188 246.19921875 208.010742188 212.846679688 c 4
 193.423828125 181.865234375 169.53125 155.184570312 139.901367188 138.092773438 c 6
 137.56640625 136.745117188 l 5
 310 24 l 5
 315 15.33984375 l 5
 211.077148438 -44.66015625 l 5
 29.076171875 74.33984375 l 5
 24.076171875 83 l 5
 37.8271484375 90.939453125 l 5
 63.9462890625 107.84375 85.595703125 132.8515625 99.0869140625 161.506835938 c 4
 114.790039062 194.859375 119.16015625 232.251953125 122.077148438 269 c 6
 127.077148438 332 l 6
 129.819335938 366.5625 133.581054688 401.485351562 145.840820312 433.916015625 c 4
 158.100585938 466.34765625 178.44140625 495.803710938 205.076171875 518 c 5
 458.4296875 699.6328125 l 5
171.802734375 669.55859375 m 5
 176.029296875 660.49609375 l 5
 226.029296875 544.49609375 l 5
 117.272460938 493.78125 l 5
 113.046875 502.844726562 l 5
 63.0458984375 618.844726562 l 5
 171.802734375 669.55859375 l 5
  Spiro
    171.803 669.559 v
    176.029 660.496 v
    226.029 544.496 v
    117.272 493.781 v
    113.047 502.845 v
    63.0459 618.845 v
    0 0 z
  EndSpiro
EndSplineSet
Substitution2: "'salt' Stylistic Alternatives in Latin lookup 3-1" R.alt
EndChar
StartChar: S
Encoding: 83 83 28
Width: 697
VWidth: 0
Flags: MW
LayerCount: 3
Fore
SplineSet
627.038085938 370.432617188 m 1
 634.291992188 363.178710938 l 2
 636.94921875 360.51171875 639.508789062 357.747070312 641.961914062 354.890625 c 0
 666.243164062 326.616210938 679.674804688 289.391601562 679.673828125 252.125976562 c 0
 679.674804688 210.596679688 663.900390625 172.286132812 637.961914062 141.890625 c 0
 634.848632812 138.2421875 631.598632812 134.73046875 628.223632812 131.354492188 c 2
 543.370117188 46.5009765625 l 1
 543.12109375 46.2529296875 l 2
 507.362304688 10.6640625 458.029296875 -9.6474609375 407.974609375 -16.2314453125 c 0
 393.337890625 -18.1572265625 378.629882812 -19.029296875 363.908203125 -19.029296875 c 0
 323.34375 -19.029296875 282.674804688 -12.408203125 243.109375 -2.9619140625 c 0
 158.706054688 17.189453125 77.3662109375 48.70703125 -1.890625 84.0380859375 c 1
 -8.9619140625 91.109375 l 1
 75.890625 175.961914062 l 1
 155.1484375 140.630859375 236.487304688 109.11328125 320.890625 88.9619140625 c 0
 360.45703125 79.515625 401.125 72.89453125 441.690429688 72.89453125 c 0
 456.412109375 72.89453125 471.120117188 73.7666015625 485.755859375 75.6923828125 c 0
 515.26953125 79.57421875 544.322265625 88.1494140625 570.924804688 101.987304688 c 1
 581.483398438 123.682617188 587.75 148.604492188 587.75 174.34375 c 0
 587.750976562 211.610351562 574.319335938 248.833984375 550.038085938 277.108398438 c 0
 548.615234375 278.765625 547.125 280.42578125 545.647460938 282.001953125 c 0
 530.931640625 295.788085938 513.282226562 306.834960938 494.303710938 313.94140625 c 0
 477.102539062 320.381835938 458.735351562 323.666015625 440.37109375 323.666015625 c 0
 432.923828125 323.666992188 425.477539062 323.125976562 418.109375 322.038085938 c 1
 293.109375 215.038085938 l 1
 286.038085938 222.109375 l 1
 269.119140625 332.08203125 l 1
 248.961914062 309.890625 l 1
 164.109375 225.038085938 l 1
 134.171875 231.432617188 106.2890625 246.822265625 84.6123046875 268.416992188 c 2
 84.5537109375 268.475585938 l 1
 84.4892578125 268.5390625 l 1
 77.294921875 275.733398438 l 2
 71.2060546875 281.826171875 65.609375 288.409179688 60.599609375 295.420898438 c 0
 40.759765625 323.184570312 30.298828125 357.333984375 30.298828125 391.461914062 c 0
 30.298828125 396.685546875 30.5439453125 401.909179688 31.0380859375 407.108398438 c 0
 35.173828125 450.633789062 56.4658203125 491.619140625 87.4140625 522.604492188 c 2
 172.266601562 607.45703125 l 2
 175.54296875 610.737304688 178.927734375 613.905273438 182.411132812 616.952148438 c 0
 218.803710938 648.784179688 265.1953125 668.03515625 312.890625 675.961914062 c 0
 331.219726562 679.0078125 349.755859375 680.459960938 368.307617188 680.459960938 c 0
 412.3671875 680.458984375 456.518554688 672.272460938 498.2109375 657.813476562 c 0
 557.45703125 637.266601562 612.14453125 603.852539062 657.891601562 560.961914062 c 2
 664.961914062 553.890625 l 1
 580.109375 469.038085938 l 1
 534.36328125 511.928710938 479.674804688 545.342773438 420.428710938 565.889648438 c 0
 378.737304688 580.348632812 334.5859375 588.53515625 290.526367188 588.536132812 c 0
 271.974609375 588.536132812 253.438476562 587.083984375 235.109375 584.038085938 c 0
 203.211914062 578.736328125 171.52734375 568.151367188 143.795898438 552.580078125 c 1
 132.505859375 531.446289062 125.215820312 508.608398438 122.961914062 484.890625 c 0
 122.467773438 479.690429688 122.22265625 474.467773438 122.22265625 469.243164062 c 0
 122.22265625 435.116210938 132.68359375 400.966796875 152.5234375 373.202148438 c 0
 156.556640625 367.557617188 161.1171875 362.029296875 165.771484375 357.073242188 c 0
 185.322265625 338.706054688 209.619140625 325.177734375 235.487304688 318.474609375 c 1
 266.038085938 352.108398438 l 1
 350.890625 436.961914062 l 1
 357.961914062 429.890625 l 1
 376.177734375 311.487304688 l 1
 495.890625 413.961914062 l 1
 503.258789062 415.05078125 510.706054688 415.590820312 518.15234375 415.58984375 c 0
 536.516601562 415.58984375 554.884765625 412.305664062 572.084960938 405.865234375 c 0
 592.626953125 398.173828125 611.463867188 385.994140625 626.979492188 370.4921875 c 2
 627.038085938 370.432617188 l 1
EndSplineSet
Substitution2: "'salt' Stylistic Alternatives in Latin lookup 3-1" S.alt
EndChar
StartChar: T
Encoding: 84 84 50
Width: 670
VWidth: 0
Flags: HMW
LayerCount: 3
Fore
SplineSet
271.146484375 172.147460938 m 1
 295.060546875 196.060546875 l 1
 289.986328125 205.327148438 268.42578125 248.260742188 249.146484375 341.147460938 c 0
 239.216796875 388.991210938 235.6875 428.3671875 234.776367188 456.336914062 c 1
 218.999023438 419.184570312 210.391601562 380.666992188 209.0703125 341.928710938 c 0
 206.399414062 263.567382812 229.090820312 207.491210938 280.412109375 154.7578125 c 0
 284.483398438 150.79296875 288.634765625 146.91796875 293 143 c 0
 357.438476562 85.154296875 418.430664062 74.888671875 505 77 c 0
 525.629882812 77.50390625 548.813476562 85.5576171875 571.235351562 100.236328125 c 1
 635.999023438 165 l 1
 643.0703125 157.928710938 l 1
 633.34375 144.068359375 623.026367188 131.8046875 612.390625 121.166015625 c 2
 527.537109375 36.3134765625 l 2
 494.43359375 3.201171875 458.248046875 -14.1669921875 427.21875 -14.923828125 c 0
 340.649414062 -17.03515625 279.657226562 -6.76953125 215.217773438 51.076171875 c 0
 209.700195312 56.029296875 204.444335938 60.98828125 199.446289062 65.970703125 c 0
 199.305664062 66.111328125 l 2
 199.176757812 66.240234375 199.224609375 66.1923828125 199.165039062 66.251953125 c 0
 199.036132812 66.380859375 199.083984375 66.3330078125 199.025390625 66.3916015625 c 2
 191.954101562 73.462890625 l 2
 138.055664062 127.369140625 114.4140625 183.98828125 117.146484375 264.147460938 c 0
 119.922851562 345.564453125 155.15234375 426.907226562 219.973632812 491.853515625 c 2
 305.087890625 576.967773438 l 2
 310.208984375 582.084960938 315.513671875 587.098632812 321 592 c 1
 328.0703125 584.928710938 l 1
 328.0703125 584.928710938 319.622070312 522.2734375 341.0703125 418.928710938 c 0
 363.071289062 312.928710938 388.071289062 271.9296875 388.071289062 271.9296875 c 1
 303.21875 187.076171875 l 1
 278.217773438 165.076171875 l 1
 271.146484375 172.147460938 l 1
  Spiro
    271.146 172.147 v
    295.061 196.061 v
    285.2 217.119 o
    268.472 264.37 o
    249.146 341.147 o
    241.216 386.018 o
    236.697 424.709 o
    234.776 456.337 v
    221.404 418.81 o
    212.81 380.513 o
    209.07 341.929 o
    214.96 270.36 o
    238.546 209.25 o
    280.412 154.758 o
    284.511 150.822 o
    288.705 146.905 o
    293 143 o
    357.299 99.7406 o
    425.954 80.3081 o
    505 77 o
    526.336 79.9808 o
    548.705 87.8104 o
    571.235 100.236 v
    635.999 165 v
    643.07 157.929 v
    633.167 144.614 o
    622.9 132.334 o
    612.391 121.166 [
    527.537 36.3135 ]
    493.746 8.50386 o
    459.628 -8.67373 o
    427.219 -14.9238 o
    348.173 -11.6157 o
    279.518 7.81672 o
    215.218 51.0762 o
    209.793 56.0269 o
    204.525 61.0004 o
    199.446 65.9707 o
    199.417 66.0009 o
    199.412 66.0057 o
    199.382 66.0352 [
    199.306 66.1113 v
    199.235 66.1816 o
    199.165 66.252 o
    199.134 66.283 o
    199.127 66.2906 o
    199.096 66.3223 o
    199.064 66.3533 o
    199.056 66.3606 o
    199.025 66.3916 [
    191.954 73.4629 ]
    148.032 128.987 o
    123.334 191.13 o
    117.147 264.147 o
    130.611 344.856 o
    165.167 422.12 o
    219.974 491.854 [
    220.235 492.115 v
    305.088 576.968 ]
    310.265 582.045 o
    315.58 587.066 o
    321 592 v
    328.07 584.929 ]
    326.676 564.896 o
    328.173 507.823 o
    341.07 418.929 o
    363.013 333.772 o
    380.789 286.455 o
    388.071 271.93 v
    303.219 187.076 v
    278.218 165.076 v
    0 0 z
  EndSpiro
24.1474609375 575.147460938 m 1
 109 660 l 1
 699 660 l 1
 706.071289062 652.9296875 l 1
 621.21875 568.076171875 l 1
 31.2177734375 568.076171875 l 1
 24.1474609375 575.147460938 l 1
  Spiro
    24.1475 575.147 v
    109 660 v
    699 660 v
    706.071 652.93 v
    621.219 568.076 v
    31.2178 568.076 v
    0 0 z
  EndSpiro
EndSplineSet
Substitution2: "'salt' Stylistic Alternatives in Latin lookup 3-1" T.alt
EndChar
StartChar: V
Encoding: 86 86 94
Width: 785
VWidth: 0
Flags: MW
LayerCount: 3
Back
SplineSet
-4.998046875 679 m 1
 64.001953125 560 l 2
 86.5078125 521.186523438 109.313476562 482.46875 128.640625 441.978515625 c 0
 147.967773438 401.48828125 163.93359375 358.681640625 168.001953125 314 c 0
 170.762695312 283.680664062 167.450195312 252.6171875 156.453125 224.227539062 c 0
 145.456054688 195.838867188 126.61328125 171.287109375 107.001953125 148 c 2
 75.001953125 110 l 1
 112.8515625 122.540039062 153.244140625 127.013671875 193.001953125 124 c 0
 246.641601562 119.93359375 298.239257812 102.510742188 349.157226562 85.1591796875 c 0
 400.075195312 67.806640625 451.694335938 52.5537109375 504.001953125 40 c 2
 554.001953125 28 l 1
 717.001953125 189 l 1
 737.447265625 259.369140625 727.647460938 338.129882812 690.001953125 401 c 0
 667.997070312 437.75 636.77734375 469.03125 599.728515625 490.530273438 c 0
 562.6796875 512.029296875 519.833007812 523.596679688 477.001953125 523 c 0
 405.506835938 522.002929688 335.271484375 485.390625 294.001953125 427 c 1024
  Spiro
    -4.99769 679 {
    64.0023 560 ]
    168.002 314 o
    107.002 148 [
    75.0023 110 v
    193.002 124 o
    504.002 40 [
    554.002 28 v
    717.002 189 v
    690.002 401 o
    477.002 523 o
    294.002 427 o
    0 0 z
  EndSpiro
EndSplineSet
Fore
SplineSet
367.075195312 277.866210938 m 5
 459 355 l 5
 516 288 l 5
 522.427734375 280.33984375 l 5
 430.502929688 203.205078125 l 5
 373.502929688 270.205078125 l 5
 367.075195312 277.866210938 l 5
  Spiro
    367.075 277.867 v
    459 355 v
    516 288 v
    522.428 280.34 v
    430.503 203.206 v
    373.503 270.206 v
    0 0 z
  EndSpiro
689.905273438 496.940429688 m 1
 697.03515625 489.809570312 l 2
 711.986328125 474.849609375 725.098632812 458.037109375 735.963867188 439.891601562 c 0
 773.609375 377.020507812 783.409179688 298.259765625 762.963867188 227.890625 c 1
 678.111328125 143.038085938 l 1
 515.111328125 -17.9619140625 l 1
 465.111328125 -5.9619140625 l 2
 412.803710938 6.591796875 361.18359375 21.8447265625 310.265625 39.197265625 c 0
 259.348632812 56.548828125 207.750976562 73.9716796875 154.111328125 78.0380859375 c 0
 115.47265625 80.966796875 76.234375 76.82421875 39.3134765625 65.078125 c 0
 38.244140625 64.7373046875 37.1767578125 64.390625 36.1103515625 64.0380859375 c 2
 29.0400390625 71.1083984375 l 1
 61.0400390625 109.109375 l 2
 80.6513671875 132.396484375 99.494140625 156.948242188 110.491210938 185.336914062 c 0
 121.48828125 213.7265625 124.80078125 244.790039062 122.040039062 275.108398438 c 0
 117.971679688 319.791015625 102.005859375 362.596679688 82.6787109375 403.087890625 c 0
 63.3515625 443.578125 40.5458984375 482.294921875 18.0400390625 521.108398438 c 2
 -50.9599609375 640.109375 l 1
 33.892578125 724.961914062 l 1
 40.9638671875 717.890625 l 1
 109.963867188 598.890625 l 2
 132.469726562 560.077148438 155.275390625 521.359375 174.602539062 480.869140625 c 0
 193.9296875 440.37890625 209.895507812 397.573242188 213.963867188 352.890625 c 0
 216.724609375 322.571289062 213.412109375 291.5078125 202.415039062 263.118164062 c 0
 191.41796875 234.729492188 172.575195312 210.177734375 152.963867188 186.890625 c 2
 131.25 161.10546875 l 1
 164.102539062 169.713867188 198.147460938 172.51953125 231.892578125 169.961914062 c 0
 285.533203125 165.895507812 337.129882812 148.47265625 388.047851562 131.12109375 c 0
 438.965820312 113.768554688 490.584960938 98.515625 542.892578125 85.9619140625 c 2
 592.892578125 73.9619140625 l 1
 671.458007812 151.5625 l 1
 691.349609375 221.5625 681.426757812 299.671875 644.040039062 362.109375 c 0
 634.025390625 378.834960938 622.029296875 394.501953125 608.559570312 408.510742188 c 0
 594.180664062 422.342773438 578.124023438 434.537109375 560.836914062 444.568359375 c 0
 523.7890625 466.067382812 480.942382812 477.634765625 438.111328125 477.038085938 c 0
 391.491210938 476.388671875 345.182617188 460.3828125 307.633789062 433.560546875 c 1
 255.111328125 381.038085938 l 1
 248.040039062 388.109375 l 1
 255.100585938 398.098632812 262.932617188 407.372070312 271.684570312 416.155273438 c 2
 356.763671875 501.234375 l 2
 398.49609375 542.952148438 456.763671875 568.137695312 515.893554688 568.961914062 c 0
 558.724609375 569.55859375 601.5703125 557.991210938 638.619140625 536.4921875 c 0
 657.228515625 525.693359375 674.3671875 512.426757812 689.606445312 497.23828125 c 2
 689.666015625 497.1796875 l 1
 689.725585938 497.119140625 l 1
 689.905273438 496.940429688 l 1
EndSplineSet
Substitution2: "'salt' Stylistic Alternatives in Latin lookup 3-1" V.alt
EndChar
StartChar: W
Encoding: 87 87 144
Width: 777
VWidth: 0
Flags: MW
LayerCount: 3
Fore
SplineSet
266.009765625 272.609375 m 5
 350.862304688 357.461914062 l 5
 560.862304688 357.461914062 l 5
 567.93359375 350.390625 l 5
 483.081054688 265.538085938 l 5
 273.081054688 265.538085938 l 5
 266.009765625 272.609375 l 5
412.862304688 152.961914062 m 1
 419.93359375 145.890625 l 2
 424.825195312 138.309570312 430.557617188 131.037109375 436.620117188 124.57421875 c 0
 461.961914062 100.813476562 495.225585938 85.40234375 529.86328125 81.9619140625 c 0
 564.470703125 78.5244140625 614.221679688 83 630.39453125 103.138671875 c 0
 675.131835938 158.845703125 673.060546875 220.381835938 669.0859375 282.204101562 c 0
 665.012695312 345.583984375 644.736328125 407.6796875 612.009765625 462.108398438 c 0
 595.345703125 489.82421875 575.349609375 515.65625 552.80859375 538.74609375 c 0
 544.810546875 546.553710938 536.625976562 553.932617188 528.081054688 561.038085938 c 1
 501.081054688 535.038085938 l 1
 494.009765625 542.109375 l 1
 578.86328125 626.961914062 l 1
 605.86328125 652.961914062 l 1
 615.506835938 644.94140625 624.788085938 636.484375 633.671875 627.62890625 c 0
 633.731445312 627.5703125 633.671875 627.62890625 633.731445312 627.5703125 c 2
 633.791015625 627.510742188 l 2
 633.849609375 627.451171875 633.791992188 627.509765625 633.850585938 627.451171875 c 0
 633.909179688 627.391601562 633.850585938 627.450195312 633.91015625 627.391601562 c 0
 633.96875 627.333007812 633.91015625 627.391601562 633.969726562 627.33203125 c 0
 634.028320312 627.2734375 633.969726562 627.33203125 634.028320312 627.272460938 c 0
 634.087890625 627.213867188 634.029296875 627.272460938 634.087890625 627.213867188 c 0
 634.147460938 627.154296875 634.088867188 627.212890625 634.147460938 627.154296875 c 2
 641.21875 620.083007812 l 2
 665.2734375 596.02734375 686.403320312 569.045898438 703.93359375 539.890625 c 0
 736.66015625 485.4609375 756.936523438 423.365234375 761.009765625 359.985351562 c 0
 765.083984375 296.60546875 752.774414062 231.250976562 719.93359375 176.890625 c 0
 710.024414062 160.48828125 698.198242188 145.159179688 684.65625 131.603515625 c 2
 599.803710938 46.7509765625 l 2
 587.303710938 34.2373046875 573.342773438 23.2353515625 558.079101562 14.2939453125 c 0
 526.28125 -4.3330078125 488.752929688 -13.6044921875 452.081054688 -9.9619140625 c 0
 415.883789062 -6.3671875 381.1875 10.3017578125 355.463867188 35.9111328125 c 0
 355.404296875 35.9697265625 355.463867188 35.9111328125 355.404296875 35.9697265625 c 2
 355.337890625 36.0361328125 l 2
 355.279296875 36.0947265625 355.333984375 36.0390625 355.275390625 36.0986328125 c 0
 355.216796875 36.1572265625 355.271484375 36.1025390625 355.212890625 36.1611328125 c 2
 348.141601562 43.232421875 l 2
 340.587890625 50.7861328125 333.814453125 59.11328125 328.009765625 68.109375 c 1
 412.862304688 152.961914062 l 1
  Spiro
    412.862 152.962 v
    419.934 145.891 ]
    425.081 138.438 o
    430.692 131.281 o
    436.62 124.574 o
    464.33 103.749 o
    495.959 89.2474 o
    529.863 81.9619 o
    564.542 82.2777 o
    598.592 89.6095 o
    630.395 103.139 v
    655.092 159.564 o
    667.729 220.264 o
    669.086 282.204 o
    659.765 344.858 o
    640.423 405.419 o
    612.01 462.108 o
    594.283 489.138 o
    574.451 514.799 o
    552.809 538.746 o
    544.75 546.409 o
    536.504 553.843 o
    528.081 561.038 v
    501.081 535.038 v
    494.01 542.109 v
    578.863 626.962 v
    605.863 652.962 v
    615.375 644.806 o
    624.666 636.342 o
    633.672 627.629 o
    633.732 627.57 v
    633.791 627.511 ]
    633.82 627.482 o
    633.822 627.479 o
    633.851 627.451 o
    633.879 627.422 o
    633.881 627.42 o
    633.91 627.392 o
    633.97 627.332 o
    633.998 627.304 o
    634 627.301 o
    634.028 627.272 o
    634.057 627.244 o
    634.06 627.242 o
    634.088 627.214 o
    634.148 627.154 v
    641.219 620.083 ]
    664.252 595.106 o
    685.248 568.266 o
    703.934 539.891 o
    732.347 483.201 o
    751.689 422.639 o
    761.01 359.985 o
    759.476 296.491 o
    746.065 234.375 o
    719.934 176.891 o
    709.404 160.888 o
    697.607 145.71 o
    684.656 131.604 [
    599.804 46.751 ]
    586.836 34.773 o
    572.888 23.8916 o
    558.079 14.2939 o
    524.65 -1.07072 o
    488.758 -9.43617 o
    452.081 -9.96191 o
    416.695 -2.17407 o
    383.871 13.4542 o
    355.464 35.9111 o
    355.404 35.9697 v
    355.338 36.0361 ]
    355.309 36.0651 o
    355.305 36.069 o
    355.275 36.0986 o
    355.213 36.1611 v
    348.142 43.2324 ]
    340.862 51.032 o
    334.124 59.3487 o
    328.01 68.1094 v
    0 0 z
  EndSpiro
264.93359375 610.890625 m 1
 183.416992188 529.375 l 1
 161.518554688 499.111328125 144.499023438 466.067382812 132.93359375 430.890625 c 0
 114.745117188 375.568359375 110.0859375 315.55859375 121.59765625 258.471679688 c 0
 131.001953125 211.8359375 151.845703125 166.149414062 184.33203125 132.0234375 c 0
 189.65234375 126.96484375 195.056640625 122.359375 200.862304688 117.961914062 c 0
 227.814453125 97.546875 261.051757812 84.78515625 294.86328125 84.9619140625 c 0
 311.890625 85.05078125 335.994140625 88.80859375 344.70703125 94.701171875 c 0
 366.221679688 109.25 369.264648438 187.90234375 370.009765625 236.109375 c 0
 370.90234375 293.814453125 367.438476562 351.498046875 364.009765625 409.109375 c 1
 448.862304688 493.961914062 l 1
 455.93359375 486.890625 l 1
 459.362304688 429.280273438 462.826171875 371.596679688 461.93359375 313.890625 c 0
 461.112304688 260.760742188 455.6015625 205.908203125 430.026367188 159.33203125 c 0
 422.172851562 145.030273438 412.393554688 131.70703125 400.87109375 120.177734375 c 2
 316.018554688 35.3251953125 l 2
 308.778320312 28.0810546875 300.848632812 21.544921875 292.27734375 15.919921875 c 0
 270.064453125 1.34375 243.6484375 -6.8232421875 217.081054688 -6.9619140625 c 0
 183.26953125 -7.138671875 150.033203125 5.623046875 123.081054688 26.0380859375 c 0
 116.068359375 31.349609375 109.466796875 37.12109375 103.2734375 43.2900390625 c 0
 103.213867188 43.3486328125 103.2734375 43.2900390625 103.213867188 43.3486328125 c 2
 103.149414062 43.4130859375 l 2
 103.090820312 43.47265625 103.146484375 43.416015625 103.087890625 43.4755859375 c 0
 103.028320312 43.5341796875 103.084960938 43.4775390625 103.025390625 43.537109375 c 0
 102.966796875 43.595703125 103.022460938 43.5400390625 102.963867188 43.5986328125 c 2
 95.892578125 50.669921875 l 2
 61.26171875 85.30859375 39.4169921875 132.370117188 29.673828125 180.690429688 c 0
 18.162109375 237.77734375 22.8203125 297.787109375 41.009765625 353.109375 c 0
 58.6142578125 406.654296875 89.2080078125 455.786132812 129.046875 495.653320312 c 2
 213.899414062 580.506835938 l 2
 227.522460938 594.139648438 242.2265625 606.689453125 257.862304688 617.961914062 c 1
 264.93359375 610.890625 l 1
  Spiro
    264.934 610.891 v
    183.417 529.375 v
    163.185 498.241 o
    146.281 465.299 o
    132.934 430.891 o
    119.362 374.345 o
    115.379 316.193 o
    121.598 258.472 o
    134.806 212.59 o
    155.744 169.569 o
    184.332 132.023 o
    189.687 127.112 o
    195.184 122.433 o
    200.862 117.962 o
    229.668 100.308 o
    261.488 88.8944 o
    294.863 84.9619 o
    311.888 86.1615 o
    328.687 89.475 o
    344.707 94.7012 v
    359.983 140.048 o
    367.57 187.794 o
    370.01 236.109 o
    369.614 293.748 o
    367.285 351.533 o
    364.01 409.109 v
    448.862 493.962 v
    455.934 486.891 v
    459.208 429.315 o
    461.538 371.53 o
    461.934 313.891 o
    458.985 260.61 o
    449.469 208.246 o
    430.026 159.332 o
    421.547 145.4 o
    411.795 132.262 o
    400.871 120.178 [
    316.019 35.3252 ]
    308.558 28.3313 o
    300.625 21.8349 o
    292.277 15.9199 o
    268.838 3.55024 o
    243.422 -4.21241 o
    217.081 -6.96191 o
    183.706 -3.02945 o
    151.886 8.38463 o
    123.081 26.0381 o
    116.212 31.495 o
    109.597 37.2618 o
    103.273 43.29 o
    103.214 43.3486 v
    103.149 43.4131 ]
    103.121 43.4425 o
    103.117 43.4462 o
    103.088 43.4756 o
    103.059 43.5043 o
    103.055 43.5077 o
    103.025 43.5371 o
    102.964 43.5986 v
    95.8926 50.6699 ]
    65.5247 88.9944 o
    43.4584 133.249 o
    29.6739 180.69 o
    23.4554 238.412 o
    27.4374 296.564 o
    41.0098 353.109 o
    62.7796 404.954 o
    92.4617 452.923 o
    129.047 495.653 [
    213.899 580.507 ]
    227.863 593.759 o
    242.558 606.283 o
    257.862 617.962 v
    0 0 z
  EndSpiro
EndSplineSet
EndChar
StartChar: X
Encoding: 88 88 55
Width: 830
VWidth: 0
Flags: MW
LayerCount: 3
Fore
SplineSet
15.0546875 37.681640625 m 1
 113.352539062 106.510742188 l 1
 206.352539062 62.509765625 l 1
 257.352539062 91.5107421875 l 2
 261.233398438 93.716796875 265.578125 96.20703125 269.1484375 98.2734375 c 1
 282.104492188 110.216796875 293.858398438 122.939453125 304.341796875 137.053710938 c 0
 341.38671875 186.928710938 359.158203125 251.083007812 351.0546875 312.681640625 c 0
 345.900390625 351.854492188 330.844726562 389.610351562 308.80859375 422.345703125 c 0
 305.2421875 427.243164062 301.622070312 431.888671875 297.790039062 436.489257812 c 0
 253.333984375 489.865234375 189.180664062 526.16796875 120.807617188 538.310546875 c 1
 76.7900390625 507.489257812 l 1
 71.0546875 515.681640625 l 1
 114.053710938 546.680664062 l 1
 212.352539062 615.509765625 l 1
 281.131835938 603.56640625 345.67578125 567.150390625 390.352539062 513.510742188 c 0
 395.140625 507.762695312 399.696289062 501.814453125 404.000976562 495.688476562 c 0
 404.048828125 495.620117188 404.000976562 495.688476562 404.048828125 495.620117188 c 2
 404.100585938 495.547851562 l 2
 404.1484375 495.479492188 404.1015625 495.544921875 404.149414062 495.477539062 c 0
 404.197265625 495.409179688 404.151367188 495.474609375 404.19921875 495.40625 c 0
 404.247070312 495.337890625 404.200195312 495.404296875 404.248046875 495.3359375 c 0
 404.295898438 495.267578125 404.25 495.333984375 404.297851562 495.265625 c 2
 410.033203125 487.07421875 l 2
 433.674804688 453.301757812 449.715820312 414.153320312 455.088867188 373.319335938 c 0
 463.192382812 311.720703125 445.420898438 247.56640625 408.375976562 197.69140625 c 0
 387.1953125 169.174804688 360.396484375 145.918945312 331.233398438 125.489257812 c 2
 232.935546875 56.66015625 l 2
 211.090820312 41.3583984375 187.919921875 27.6416015625 164.790039062 14.490234375 c 2
 113.790039062 -14.5107421875 l 1
 20.7900390625 29.4892578125 l 1
 15.0546875 37.681640625 l 1
  Spiro
    15.0547 37.6816 v
    113.353 106.511 v
    206.353 62.5098 v
    257.353 91.5107 ]
    261.338 93.783 o
    265.37 96.0942 o
    269.148 98.2734 v
    281.689 110.487 o
    293.449 123.394 o
    304.342 137.054 o
    334.694 191.007 o
    350.786 250.916 o
    351.055 312.682 o
    342.72 351.211 o
    328.393 388.106 o
    308.809 422.346 o
    305.222 427.162 o
    301.554 431.871 o
    297.79 436.489 o
    247.397 483.87 o
    187.137 518.405 o
    120.808 538.311 v
    76.79 507.489 v
    71.0547 515.682 v
    114.054 546.681 v
    212.353 615.51 v
    279.077 595.705 o
    339.689 561.099 o
    390.353 513.511 o
    395.058 507.703 o
    399.618 501.748 o
    404.001 495.688 o
    404.049 495.62 v
    404.101 495.548 ]
    404.124 495.514 o
    404.126 495.511 o
    404.149 495.478 o
    404.173 495.444 o
    404.176 495.44 o
    404.199 495.406 o
    404.223 495.373 o
    404.225 495.369 o
    404.248 495.336 o
    404.272 495.303 o
    404.274 495.299 o
    404.298 495.266 [
    410.033 487.074 ]
    431.009 451.683 o
    446.286 413.415 o
    455.089 373.319 o
    454.82 311.554 o
    438.728 251.645 o
    408.376 197.691 o
    385.468 170.863 o
    359.461 146.929 o
    331.233 125.489 [
    232.936 56.6602 ]
    210.722 41.8633 o
    187.86 27.8542 o
    164.79 14.4902 [
    113.79 -14.5107 v
    20.79 29.4893 v
    0 0 z
  EndSpiro
430.848632812 105.780273438 m 1
 425.063476562 114.041992188 l 2
 396.322265625 155.106445312 378.280273438 203.712890625 374.053710938 253.680664062 c 0
 368.959960938 313.912109375 383.717773438 375.65625 415.497070312 427.07421875 c 0
 435.805664062 459.932617188 462.994140625 488.459960938 494.630859375 510.61328125 c 2
 592.928710938 579.442382812 l 2
 610.797851562 591.954101562 630.084960938 602.432617188 650.352539062 610.509765625 c 1
 797.352539062 531.509765625 l 1
 803.087890625 523.318359375 l 1
 704.790039062 454.489257812 l 1
 557.790039062 533.489257812 l 2
 556.235351562 532.870117188 554.239257812 532.048828125 553.000976562 531.528320312 c 1
 540.479492188 518.08203125 529.211914062 503.375 519.53125 487.711914062 c 0
 487.750976562 436.293945312 472.994140625 374.548828125 478.087890625 314.318359375 c 0
 482.173828125 266.01953125 499.288085938 218.782226562 526.315429688 178.73046875 c 0
 538.477539062 161.990234375 552.446289062 146.572265625 568 132.909179688 c 0
 622.016601562 85.462890625 694.73046875 59.732421875 766.404296875 62.4296875 c 1
 849.352539062 120.510742188 l 1
 855.087890625 112.318359375 l 1
 774.087890625 54.318359375 l 1
 675.790039062 -14.5107421875 l 1
 603.317382812 -17.76953125 529.943359375 8.0126953125 475.4375 55.888671875 c 0
 458.73828125 70.556640625 443.8671875 87.2490234375 431.095703125 105.427734375 c 2
 431.047851562 105.495117188 l 1
 430.997070312 105.568359375 l 1
 430.848632812 105.780273438 l 1
  Spiro
    430.849 105.78 v
    425.063 114.042 ]
    400.025 157.346 o
    382.757 204.444 o
    374.054 253.681 o
    375.465 313.918 o
    389.517 372.71 o
    415.497 427.074 o
    437.984 458.384 o
    464.595 486.437 o
    494.631 510.613 [
    592.929 579.442 ]
    611.236 591.252 o
    630.448 601.655 o
    650.353 610.51 v
    797.353 531.51 v
    803.088 523.318 v
    704.79 454.489 v
    557.79 533.489 ]
    556.134 532.822 o
    554.446 532.13 o
    553.001 531.528 v
    540.921 517.687 o
    529.718 503.03 o
    519.531 487.712 o
    493.55 433.347 o
    479.498 374.555 o
    478.088 314.318 o
    486.389 266.647 o
    502.728 220.906 o
    526.315 178.73 o
    539.058 162.463 o
    552.997 147.126 o
    568 132.909 o
    627.454 92.9823 o
    695.185 68.9442 o
    766.404 62.4297 v
    849.353 120.511 v
    855.088 112.318 v
    774.088 54.3184 v
    675.79 -14.5107 v
    603.82 -8.36182 o
    535.436 15.667 o
    475.438 55.8887 o
    459.373 71.1956 o
    444.543 87.7815 o
    431.096 105.428 [
    431.048 105.495 v
    430.997 105.568 v
    0 0 z
  EndSpiro
EndSplineSet
EndChar
StartChar: bracketleft
Encoding: 91 91 232
Width: 232
VWidth: 0
Flags: MW
LayerCount: 3
Fore
SplineSet
208.633789062 18.8466796875 m 1
 143.1015625 -27.0390625 l 1
 31.1025390625 -27.0380859375 l 1
 25.3662109375 -18.8466796875 l 1
 25.3662109375 594.15234375 l 1
 90.8974609375 640.0390625 l 1
 202.8984375 640.0390625 l 1
 208.633789062 631.846679688 l 1
 143.1015625 585.9609375 l 1
 96.6337890625 585.9609375 l 1
 96.634765625 27.0390625 l 1
 202.897460938 27.0390625 l 1
 208.633789062 18.8466796875 l 1
EndSplineSet
EndChar
StartChar: bracketright
Encoding: 93 93 233
Width: 212
VWidth: 0
Flags: MW
LayerCount: 3
Fore
SplineSet
13.8662109375 -18.84765625 m 1
 79.3984375 27.0390625 l 1
 125.866210938 27.0390625 l 1
 125.866210938 585.9609375 l 1
 19.6015625 585.9609375 l 1
 13.8662109375 594.15234375 l 1
 79.3984375 640.0390625 l 1
 191.3984375 640.0390625 l 1
 197.133789062 631.84765625 l 1
 197.133789062 18.84765625 l 1
 131.6015625 -27.0390625 l 1
 19.6015625 -27.0390625 l 1
 13.8662109375 -18.84765625 l 1
EndSplineSet
EndChar
StartChar: glyph237
Encoding: 95 95 237
Width: 588
VWidth: 0
Flags: MW
LayerCount: 3
Fore
SplineSet
42 -0 m 1
 83.986328125 42.5732421875 l 1
 585.986328125 42.5732421875 l 1
 544 -0 l 1
 502.013671875 -42.5732421875 l 1
 0.013671875 -42.5732421875 l 1
 42 -0 l 1
EndSplineSet
EndChar
StartChar: grave
Encoding: 96 96 244
Width: 264
VWidth: 0
Flags: MW
LayerCount: 3
Fore
SplineSet
116.890625 658.961914062 m 1
 123.961914062 651.890625 l 1
 241.961914062 490.890625 l 1
 157.108398438 406.038085938 l 1
 150.038085938 413.108398438 l 1
 32.0380859375 574.109375 l 1
 116.890625 658.961914062 l 1
EndSplineSet
EndChar
StartChar: a
Encoding: 97 97 7
Width: 360
VWidth: 0
Flags: MW
LayerCount: 3
Fore
SplineSet
205.184570312 431.05078125 m 0
 245.974609375 430.25 323.56640625 390.26953125 324.186523438 348.086914062 c 2
 329.185546875 8.0517578125 l 1
 329.185546875 -1.9482421875 l 1
 209.185546875 -1.9482421875 l 1
 207.872070312 85.7744140625 l 1
 180.120117188 53.0849609375 152.291015625 20.4736328125 124.448242188 -12.125 c 1
 88.400390625 5.5595703125 40.853515625 21.0751953125 10.7880859375 46.302734375 c 1
 75.6552734375 126.158203125 139.604492188 206.930664062 204.869140625 286.387695312 c 1
 204.185546875 332.051757812 l 2
 204.055664062 340.696289062 135.526367188 364.334960938 115.051757812 365.106445312 c 0
 113.119140625 362.211914062 111.310546875 359.234375 109.63671875 356.1796875 c 0
 91.46875 323.028320312 89.27734375 281.387695312 103.86328125 246.51171875 c 1
 99.251953125 244.583007812 l 1
 94.638671875 242.653320312 l 1
 78.849609375 280.40234375 81.203125 325.102539062 100.8671875 360.985351562 c 0
 121.818359375 399.219726562 161.594726562 431.90625 205.184570312 431.05078125 c 0
207.625 102.301757812 m 1
 205.150390625 267.618164062 l 1
 97.1259765625 133.712890625 l 1
 193.922851562 86.228515625 l 1
 207.625 102.301757812 l 1
EndSplineSet
Substitution2: "'salt' Stylistic Alternatives in Latin lookup 3-1" a.alt
EndChar
StartChar: b
Encoding: 98 98 21
Width: 417
VWidth: 0
Flags: MW
LayerCount: 3
Fore
SplineSet
14.5390625 612 m 17
 14.5390625 50.330078125 l 1
 19.5390625 41.669921875 l 1
 173.5390625 -27.330078125 l 1
 277.461914062 32.669921875 l 1
 302.461914062 48.669921875 l 2
 323.751953125 62.2958984375 345.008789062 76.37109375 362.772460938 94.3525390625 c 0
 380.538085938 112.334960938 394.643554688 134.094726562 402.611328125 158.083007812 c 0
 410.579101562 182.071289062 412.395507812 207.984375 408.556640625 232.96875 c 0
 404.876953125 256.915039062 396.172851562 279.96484375 384.055664062 300.954101562 c 2
 379.055664062 309.614257812 l 2
 379.014648438 309.686523438 379.0546875 309.615234375 379.013671875 309.6875 c 0
 378.971679688 309.759765625 379.012695312 309.689453125 378.970703125 309.76171875 c 0
 378.928710938 309.833984375 378.969726562 309.762695312 378.927734375 309.834960938 c 2
 378.884765625 309.91015625 l 2
 378.842773438 309.982421875 378.884765625 309.91015625 378.842773438 309.982421875 c 0
 378.387695312 310.767578125 377.926757812 311.55078125 377.461914062 312.330078125 c 0
 350.54296875 357.458984375 308.474609375 392.974609375 260.461914062 414.330078125 c 1
 156.5390625 354.330078125 l 1
 103.333984375 321.994140625 l 1
 108.333984375 313.333984375 l 1
 163.10546875 344.966796875 l 1
 209.8515625 323.802734375 250.91015625 289.16015625 277.575195312 245.271484375 c 0
 288.375 225.53515625 296.208007812 203.918945312 299.633789062 181.62890625 c 0
 303.471679688 156.64453125 301.65625 130.731445312 293.688476562 106.743164062 c 0
 286.3984375 84.796875 274.087890625 64.8583984375 258.296875 47.6767578125 c 1
 123.461914062 108.08984375 l 1
 123.461914062 612 l 9
 14.5390625 612 l 17
EndSplineSet
Substitution2: "'salt' Stylistic Alternatives in Latin lookup 3-1" b.alt
EndChar
StartChar: c
Encoding: 99 99 45
Width: 393
VWidth: 0
Flags: MW
LayerCount: 3
Fore
SplineSet
105.009765625 27.8837890625 m 5
 97.94921875 34.73046875 l 6
 69.1357421875 62.69140625 47.974609375 98.052734375 36.8037109375 136.10546875 c 4
 26.1337890625 172.454101562 24.509765625 211.6640625 35.02734375 248.0546875 c 4
 42.5576171875 274.114257812 56.6669921875 298.53125 76.4287109375 317.80859375 c 6
 76.4287109375 317.80859375 76.572265625 317.947265625 76.6865234375 318.05859375 c 6
 160.69140625 399.517578125 l 6
 168.374023438 406.963867188 176.884765625 413.587890625 186.147460938 419.163085938 c 4
 209.534179688 433.239257812 237.360351562 440.400390625 264.84375 438.940429688 c 4
 292.326171875 437.479492188 319.26171875 427.396484375 340.587890625 410.5234375 c 6
 347.588867188 403.735351562 l 5
 263.583007812 322.276367188 l 5
 242.2578125 339.149414062 215.323242188 349.232421875 187.83984375 350.693359375 c 4
 169.260742188 351.680664062 150.116210938 348.584960938 133.098632812 342.357421875 c 5
 130.180664062 335.616210938 127.967773438 329.426757812 126.03125 322.724609375 c 4
 115.514648438 286.333984375 117.137695312 247.124023438 127.80859375 210.775390625 c 4
 138.524414062 174.2734375 158.5859375 140.06640625 185.544921875 112.779296875 c 4
 190.208984375 108.448242188 195.000976562 104.358398438 200.0078125 100.443359375 c 4
 230.140625 76.8828125 266.697265625 61.080078125 304.948242188 55.3232421875 c 5
 359.505859375 81.759765625 l 5
 374.356445312 65.4404296875 l 5
 260.614257812 -13.7236328125 l 5
 227.944335938 -32.923828125 l 5
 189.694335938 -27.1669921875 153.13671875 -11.36328125 123.00390625 12.1962890625 c 4
 116.829101562 17.0244140625 110.92578125 22.1669921875 105.3125 27.5908203125 c 4
 105.25390625 27.6474609375 105.3125 27.5908203125 105.25390625 27.6474609375 c 6
 105.19140625 27.70703125 l 5
 105.009765625 27.8837890625 l 5
EndSplineSet
EndChar
StartChar: d
Encoding: 100 100 27
Width: 434
VWidth: 0
Flags: HMW
LayerCount: 3
Fore
SplineSet
283.033203125 457 m 2
 398.033203125 394 l 1
 403.76953125 385.80859375 l 1
 305.470703125 316.979492188 l 1
 190.470703125 379.978515625 l 1
 190.470703125 379.978515625 167.874023438 368.989257812 157.501953125 357.743164062 c 0
 137.098632812 335.622070312 124.834960938 303.305664062 121.768554688 269.807617188 c 0
 117.811523438 226.571289062 130.09765625 182.203125 154.059570312 146.083984375 c 0
 178.327148438 113.216796875 212.5625 87.79296875 251.033203125 74 c 1
 270.033203125 85 l 1
 275.768554688 76.8076171875 l 9
 158.470703125 -3.0205078125 l 17
 118.525390625 11.30078125 83.146484375 38.162109375 58.751953125 72.8740234375 c 2
 58.650390625 73.01953125 l 2
 58.55078125 73.16015625 58.595703125 73.095703125 58.5478515625 73.1640625 c 2
 52.8125 81.35546875 l 2
 52.083984375 82.396484375 51.365234375 83.4443359375 50.65625 84.4990234375 c 0
 26.2138671875 120.873046875 13.740234375 165.529296875 17.7353515625 209.170898438 c 0
 20.8017578125 242.668945312 33.517578125 275.614257812 55.4677734375 301.10546875 c 0
 117.375976562 373 283.033203125 457 283.033203125 457 c 2
292.751953125 620.489257812 m 1
 412.751953125 620.489257812 l 1
 412.751953125 11.4892578125 l 1
 412.751953125 1.4892578125 l 1
 292.751953125 1.4892578125 l 1
 292.751953125 610.489257812 l 1
 292.751953125 620.489257812 l 1
EndSplineSet
EndChar
StartChar: e
Encoding: 101 101 32
Width: 353
VWidth: 0
Flags: HMW
LayerCount: 3
Back
SplineSet
101 196 m 5
 256 322 l 5
 146 390 l 5
 107.453125 364.703125 78.3017578125 325.424804688 65.2529296875 281.204101562 c 4
 52.2041015625 236.983398438 55.3623046875 188.170898438 74 146 c 4
 88.701171875 112.735351562 112.833984375 83.701171875 142.848632812 63.1640625 c 4
 172.864257812 42.626953125 208.668945312 30.65234375 245 29 c 5
 277 55 l 1029
  Spiro
    101 196 {
    256 322 v
    146 390 v
    73.9999 146 o
    245 29 v
    277 55 v
    0 0 z
  EndSpiro
EndSplineSet
Fore
SplineSet
121.286132812 212.122070312 m 1
 152.599609375 238.397460938 l 1
 211.416015625 286.208984375 l 1
 130.526367188 336.212890625 l 1
 127.653320312 329.389648438 125.328125 322.876953125 123.28125 315.94140625 c 0
 113.372070312 282.36328125 112.818359375 246.1015625 121.286132812 212.122070312 c 1
124.615234375 200.354492188 m 1
 126.729492188 193.689453125 129.203125 187.12890625 132.028320312 180.737304688 c 0
 138.817382812 165.374023438 147.771484375 150.70703125 158.141601562 137.701171875 c 0
 168.953125 125.461914062 181.055664062 114.725585938 194.44921875 105.561523438 c 0
 224.463867188 85.0244140625 260.26953125 73.0498046875 296.599609375 71.3974609375 c 1
 328.600585938 97.3974609375 l 1
 335.028320312 89.7373046875 l 1
 243.102539062 12.6025390625 l 1
 211.102539062 -13.3974609375 l 1
 174.771484375 -11.7451171875 138.966796875 0.2294921875 108.951171875 20.7666015625 c 0
 94.29296875 30.796875 81.037109375 42.853515625 69.59765625 56.4404296875 c 0
 69.5439453125 56.50390625 69.59765625 56.4404296875 69.5439453125 56.50390625 c 2
 69.48828125 56.5693359375 l 2
 69.435546875 56.6337890625 69.48828125 56.5703125 69.4345703125 56.6337890625 c 0
 69.380859375 56.6982421875 69.43359375 56.634765625 69.3798828125 56.69921875 c 2
 62.9521484375 64.359375 l 2
 51.0654296875 78.5263671875 41.150390625 94.34765625 33.6748046875 111.262695312 c 0
 30.0126953125 119.549804688 26.9482421875 128.092773438 24.4873046875 136.806640625 c 0
 14.421875 172.439453125 14.443359375 210.935546875 24.927734375 246.466796875 c 0
 35.802734375 283.318359375 57.7724609375 316.6640625 87.3173828125 341.577148438 c 2
 87.3173828125 341.577148438 87.48828125 341.720703125 87.625 341.8359375 c 2
 179.55078125 418.970703125 l 2
 185.298828125 423.791015625 191.325195312 428.279296875 197.599609375 432.397460938 c 1
 307.600585938 364.397460938 l 1
 314.028320312 356.737304688 l 1
 222.102539062 279.602539062 l 1
 124.615234375 200.354492188 l 1
EndSplineSet
EndChar
StartChar: f
Encoding: 102 102 36
Width: 410
VWidth: 0
Flags: HMW
LayerCount: 3
Fore
SplineSet
305.923828125 433.890625 m 5
 221.071289062 349.037109375 l 5
 24.0712890625 349.037109375 l 5
 17 356.109375 l 5
 101.852539062 440.9609375 l 5
 298.852539062 440.9609375 l 5
 305.923828125 433.890625 l 5
  Spiro
    305.924 433.891 v
    221.071 349.038 v
    24.0712 349.038 v
    17 356.109 v
    101.853 440.962 v
    298.852 440.962 v
    0 0 z
  EndSpiro
188.744140625 594 m 5
 220.744140625 612 l 5
 250.911132812 606.83203125 l 5
 176.411132812 555.5 l 5
 188.744140625 594 l 5
  Spiro
    188.744 594 v
    220.744 612 v
    250.911 606.833 v
    176.411 555.5 v
    -14180.5 8790 z
  EndSpiro
268.744140625 661.5 m 5
 391.744140625 610 l 5
 301.244140625 537 l 5
 188.744140625 594 l 5
 268.744140625 661.5 l 5
  Spiro
    268.744 661.5 v
    391.744 610 v
    301.244 537 v
    188.744 594 v
    0 0 z
  EndSpiro
68.744140625 0 m 5
 68.744140625 514 l 5
 188.744140625 594 l 5
 188.744140625 0 l 5
 68.744140625 0 l 5
  Spiro
    68.7441 0 v
    68.7441 514 v
    188.744 594 v
    188.744 0 v
    0 0 z
  EndSpiro
EndSplineSet
EndChar
StartChar: glyph46
Encoding: 102 102 36
Width: 402
VWidth: 0
Flags: MW
LayerCount: 3
Fore
SplineSet
303.1796875 433.890625 m 5
 218.327148438 349.037109375 l 5
 21.3271484375 349.037109375 l 5
 14.255859375 356.109375 l 5
 99.1083984375 440.9609375 l 5
 296.108398438 440.9609375 l 5
 303.1796875 433.890625 l 5
  Spiro
    303.18 433.891 v
    218.327 349.038 v
    21.3271 349.038 v
    14.2559 356.109 v
    99.1084 440.962 v
    296.108 440.962 v
    0 0 z
  EndSpiro
186 594 m 5
 218 612 l 5
 248.166992188 606.83203125 l 5
 173.666992188 555.5 l 5
 186 594 l 5
  Spiro
    186 594 v
    218 612 v
    248.167 606.833 v
    173.667 555.5 v
    -14180.5 8790 z
  EndSpiro
266 661.5 m 5
 389 610 l 5
 298.5 537 l 5
 186 594 l 5
 266 661.5 l 5
  Spiro
    266 661.5 v
    389 610 v
    298.5 537 v
    186 594 v
    0 0 z
  EndSpiro
66 0 m 5
 66 514 l 5
 186 594 l 5
 186 0 l 5
 66 0 l 5
  Spiro
    66 0 v
    66 514 v
    186 594 v
    186 0 v
    0 0 z
  EndSpiro
EndSplineSet
EndChar
StartChar: g
Encoding: 103 103 33
Width: 426
VWidth: 0
Flags: HMW
LayerCount: 3
Back
SplineSet
351.467773438 370.887695312 m 5
 357.895507812 363.227539062 l 5
 364.895507812 128.227539062 l 6
 367.209960938 50.51171875 374.051757812 -27.7685546875 397.895507812 -101.772460938 c 5
 305.970703125 -178.907226562 l 5
 288.25390625 -193.515625 l 5
 191.969726562 -272.907226562 l 5
 145.743164062 -260.305664062 103.248046875 -234.317382812 70.9697265625 -198.907226562 c 4
 68.6533203125 -196.366210938 66.388671875 -193.77734375 64.1787109375 -191.14453125 c 6
 57.7509765625 -183.483398438 l 6
 57.642578125 -183.35546875 57.6953125 -183.41796875 57.6416015625 -183.354492188 c 4
 57.5341796875 -183.225585938 57.5595703125 -183.255859375 57.505859375 -183.19140625 c 4
 40.9033203125 -163.331054688 27.396484375 -141.047851562 17.5419921875 -117.247070312 c 5
 43.5419921875 -95.2470703125 l 5
 135.467773438 -18.1123046875 l 5
 141.895507812 -25.7724609375 l 5
 115.895507812 -47.7724609375 l 5
 125.16796875 -70.16796875 137.672851562 -91.21875 152.881835938 -110.091796875 c 4
 154.033203125 -111.41015625 155.26171875 -112.790039062 156.466796875 -114.112304688 c 4
 188.74609375 -149.522460938 231.240234375 -175.510742188 277.466796875 -188.112304688 c 5
 299.03515625 -170.329101562 l 5
 275.4921875 -96.6845703125 268.845703125 -18.5771484375 266.541992188 58.7529296875 c 6
 259.541992188 293.752929688 l 5
 351.467773438 370.887695312 l 5
271.736328125 61.8095703125 m 5
 173.4375 -7.01953125 l 5
 129.4375 9.98046875 l 6
 111.721679688 16.8251953125 93.8974609375 24.4931640625 79.7890625 37.2080078125 c 4
 74.83984375 41.6689453125 70.396484375 46.69921875 66.57421875 52.1591796875 c 6
 60.837890625 60.3505859375 l 5
 60.7392578125 60.4921875 l 6
 53.6953125 70.61328125 48.796875 82.1083984375 46.701171875 94.1708984375 c 6
 40.7021484375 215.171875 l 6
 39.453125 240.359375 39.4384765625 266.31640625 48.7783203125 289.7421875 c 4
 56.5625 309.263671875 70.451171875 326.106445312 87.6884765625 338.145507812 c 6
 185.987304688 406.974609375 l 6
 189.434570312 409.3828125 193.015625 411.598632812 196.708984375 413.604492188 c 4
 218.868164062 425.64453125 244.233398438 430.567382812 269.376953125 432.517578125 c 4
 294.520507812 434.467773438 319.78125 434.000976562 345 434 c 6
 548 434 l 5
 553.735351562 425.80859375 l 5
 455.4375 356.979492188 l 5
 252.4375 356.979492188 l 6
 227.21875 356.98046875 201.958007812 357.447265625 176.814453125 355.497070312 c 4
 169.155273438 354.90234375 161.475585938 354.033203125 153.872070312 352.770507812 c 5
 153.717773438 352.407226562 153.100585938 351.102539062 152.8125 350.379882812 c 4
 143.47265625 326.954101562 143.486328125 300.997070312 144.736328125 275.809570312 c 6
 150.735351562 154.80859375 l 6
 152.557617188 144.31640625 156.500976562 134.254882812 162.100585938 125.197265625 c 4
 165.193359375 121.275390625 168.633789062 117.580078125 172.3515625 114.229492188 c 4
 186.459960938 101.514648438 204.284179688 93.845703125 222 87.0009765625 c 6
 266 70.0009765625 l 5
 271.736328125 61.8095703125 l 5
  Spiro
    271.736 61.8094 v
    173.438 -7.01965 v
    129.438 9.98035 ]
    111.845 17.2481 o
    94.9783 26.0287 o
    79.7891 37.2079 o
    75.0173 41.8486 o
    70.595 46.8527 o
    66.5742 52.1591 [
    60.8379 60.3505 v
    60.7393 60.4921 ]
    54.4404 71.0303 o
    49.7029 82.3389 o
    46.7012 94.1708 [
    40.7021 215.172 ]
    40.1649 240.468 o
    42.2599 265.62 o
    48.7783 289.742 o
    58.4837 308.274 o
    71.6842 324.599 o
    87.6885 338.145 [
    185.987 406.974 ]
    189.475 409.316 o
    193.057 411.531 o
    196.709 413.604 o
    219.786 423.418 o
    244.311 429.427 o
    269.377 432.517 o
    294.528 433.768 o
    319.798 434.049 o
    345 434 [
    548 434 v
    553.735 425.808 v
    455.438 356.979 v
    252.438 356.979 ]
    227.236 357.029 o
    201.966 356.748 o
    176.814 355.497 o
    169.16 354.807 o
    161.49 353.905 o
    153.872 352.77 v
    153.593 352.151 o
    153.181 351.239 o
    152.812 350.38 o
    146.294 326.257 o
    144.199 301.106 o
    144.736 275.809 [
    150.735 154.808 ]
    153.244 144.491 o
    157.075 134.559 o
    162.101 125.197 o
    165.303 121.359 o
    168.732 117.687 o
    172.352 114.229 o
    187.541 103.05 o
    204.407 94.2688 o
    222 87.0009 [
    266 70.0009 v
    0 0 z
  EndSpiro
EndSplineSet
Fore
SplineSet
350.92578125 370.887695312 m 1
 357.353515625 363.227539062 l 1
 364.353515625 128.227539062 l 2
 366.66796875 50.51171875 373.509765625 -27.7685546875 397.353515625 -101.772460938 c 1
 305.428710938 -178.907226562 l 1
 287.711914062 -193.515625 l 1
 191.427734375 -272.907226562 l 1
 145.201171875 -260.305664062 102.706054688 -234.317382812 70.427734375 -198.907226562 c 0
 68.111328125 -196.366210938 65.8466796875 -193.77734375 63.63671875 -191.14453125 c 2
 57.208984375 -183.483398438 l 2
 57.1005859375 -183.35546875 57.1533203125 -183.41796875 57.099609375 -183.354492188 c 0
 56.9921875 -183.225585938 57.017578125 -183.255859375 56.9638671875 -183.19140625 c 0
 40.361328125 -163.331054688 26.8544921875 -141.047851562 17 -117.247070312 c 1
 43 -95.2470703125 l 1
 134.92578125 -18.1123046875 l 1
 141.353515625 -25.7724609375 l 1
 115.353515625 -47.7724609375 l 1
 124.625976562 -70.16796875 137.130859375 -91.21875 152.33984375 -110.091796875 c 0
 153.491210938 -111.41015625 154.719726562 -112.790039062 155.924804688 -114.112304688 c 0
 188.204101562 -149.522460938 230.698242188 -175.510742188 276.924804688 -188.112304688 c 1
 298.493164062 -170.329101562 l 1
 274.950195312 -96.6845703125 268.303710938 -18.5771484375 266 58.7529296875 c 2
 259 293.752929688 l 1
 350.92578125 370.887695312 l 1
271.194335938 61.8095703125 m 1
 172.895507812 -7.01953125 l 1
 128.895507812 9.98046875 l 2
 111.1796875 16.8251953125 93.35546875 24.4931640625 79.2470703125 37.2080078125 c 0
 74.2978515625 41.6689453125 69.8544921875 46.69921875 66.0322265625 52.1591796875 c 2
 60.2958984375 60.3505859375 l 1
 60.197265625 60.4921875 l 2
 53.1533203125 70.61328125 48.2548828125 82.1083984375 46.1591796875 94.1708984375 c 2
 40.16015625 215.171875 l 2
 38.9111328125 240.359375 38.896484375 266.31640625 48.236328125 289.7421875 c 0
 56.0205078125 309.263671875 69.9091796875 326.106445312 87.146484375 338.145507812 c 2
 185.4453125 406.974609375 l 2
 188.892578125 409.3828125 192.473632812 411.598632812 196.166992188 413.604492188 c 0
 218.326171875 425.64453125 243.69140625 430.567382812 268.834960938 432.517578125 c 0
 293.978515625 434.467773438 319.239257812 434.000976562 344.458007812 434 c 2
 547.458007812 434 l 1
 553.193359375 425.80859375 l 1
 454.895507812 356.979492188 l 1
 251.895507812 356.979492188 l 2
 226.676757812 356.98046875 201.416015625 357.447265625 176.272460938 355.497070312 c 0
 168.61328125 354.90234375 160.93359375 354.033203125 153.330078125 352.770507812 c 1
 153.17578125 352.407226562 152.55859375 351.102539062 152.270507812 350.379882812 c 0
 142.930664062 326.954101562 142.944335938 300.997070312 144.194335938 275.809570312 c 2
 150.193359375 154.80859375 l 2
 152.015625 144.31640625 155.958984375 134.254882812 161.55859375 125.197265625 c 0
 164.651367188 121.275390625 168.091796875 117.580078125 171.809570312 114.229492188 c 0
 185.91796875 101.514648438 203.7421875 93.845703125 221.458007812 87.0009765625 c 2
 265.458007812 70.0009765625 l 1
 271.194335938 61.8095703125 l 1
  Spiro
    271.194 61.8094 v
    172.896 -7.01965 v
    128.896 9.98035 ]
    111.303 17.2481 o
    94.4363 26.0287 o
    79.2471 37.2079 o
    74.4753 41.8486 o
    70.053 46.8527 o
    66.0322 52.1591 [
    60.2959 60.3505 v
    60.1973 60.4921 ]
    53.8984 71.0303 o
    49.1609 82.3389 o
    46.1592 94.1708 [
    40.1601 215.172 ]
    39.6229 240.468 o
    41.7179 265.62 o
    48.2363 289.742 o
    57.9417 308.274 o
    71.1422 324.599 o
    87.1465 338.145 [
    185.445 406.974 ]
    188.933 409.316 o
    192.515 411.531 o
    196.167 413.604 o
    219.244 423.418 o
    243.769 429.427 o
    268.835 432.517 o
    293.986 433.768 o
    319.256 434.049 o
    344.458 434 [
    547.458 434 v
    553.193 425.808 v
    454.896 356.979 v
    251.896 356.979 ]
    226.694 357.029 o
    201.424 356.748 o
    176.272 355.497 o
    168.618 354.807 o
    160.948 353.905 o
    153.33 352.77 v
    153.051 352.151 o
    152.639 351.239 o
    152.27 350.38 o
    145.752 326.257 o
    143.657 301.106 o
    144.194 275.809 [
    150.193 154.808 ]
    152.702 144.491 o
    156.533 134.559 o
    161.559 125.197 o
    164.761 121.359 o
    168.19 117.687 o
    171.81 114.229 o
    186.999 103.05 o
    203.865 94.2688 o
    221.458 87.0009 [
    265.458 70.0009 v
    0 0 z
  EndSpiro
EndSplineSet
EndChar
StartChar: h
Encoding: 104 104 47
Width: 413
VWidth: 0
Flags: MW
LayerCount: 3
Back
SplineSet
138.3828125 348 m 5
 205.3828125 403 l 5
 234.610351562 394.83984375 261.694335938 379.150390625 283.358398438 357.900390625 c 4
 305.022460938 336.650390625 321.181640625 309.91796875 330.3828125 281 c 4
 340.482421875 249.254882812 342.21484375 215.072265625 336.866210938 182.192382812 c 4
 331.518554688 149.311523438 319.283203125 117.70703125 302.3828125 89 c 4
 273.982421875 40.7607421875 232.600585938 0.435546875 184.3828125 -28 c 1028
  Spiro
    138.383 348 {
    205.383 403 v
    330.383 281 o
    302.383 89 o
    184.383 -28 o
    0 0 z
  EndSpiro
64.3828125 0 m 29
 64.3828125 582 l 1053
  Spiro
    64.3828 0 {
    64.3828 582 v
    0 0 z
  EndSpiro
EndSplineSet
Fore
SplineSet
95.7724609375 316.567382812 m 1
 251.950195312 451.86328125 l 1
 281.178710938 443.703125 308.262695312 428.014648438 329.926757812 406.764648438 c 0
 332.555664062 404.186523438 335.103515625 401.526367188 337.567382812 398.791992188 c 2
 337.624023438 398.73046875 l 1
 344.430664062 391.169921875 l 1
 344.489257812 391.104492188 l 1
 344.544921875 391.04296875 l 2
 362.245117188 371.30859375 375.600585938 347.705078125 383.641601562 322.432617188 c 0
 393.741210938 290.688476562 395.473632812 256.504882812 390.125976562 223.624023438 c 0
 384.776367188 190.743164062 372.541992188 159.139648438 355.641601562 130.432617188 c 0
 338.830078125 101.876953125 309.916992188 67.7470703125 270.040039062 34.5 c 2
 148.463867188 -66.86328125 l 1
 141.772460938 -59.431640625 l 1
 141.772460938 -59.431640625 214.540039062 -0.5 259.772460938 57.568359375 c 0
 280.244140625 83.8486328125 288.908203125 117.87890625 294.256835938 150.759765625 c 0
 299.604492188 183.640625 297.873046875 217.82421875 287.772460938 249.568359375 c 0
 280.197265625 273.37890625 267.981445312 295.59375 251.7421875 314.670898438 c 0
 250.463867188 316.014648438 248.896484375 317.609375 247.440429688 319.038085938 c 0
 225.776367188 340.288085938 198.692382812 355.975585938 169.463867188 364.135742188 c 1
 102.463867188 309.13671875 l 1
 95.7724609375 316.567382812 l 1
129.70703125 0 m 1
 9.70703125 0 l 1
 9.70703125 582 l 1
 9.70703125 592 l 1
 129.70703125 592 l 1
 129.70703125 10 l 1
 129.70703125 0 l 1
EndSplineSet
EndChar
StartChar: i
Encoding: 105 105 15
Width: 208
VWidth: 0
Flags: MW
LayerCount: 3
Fore
SplineSet
41.4990234375 434 m 5
 162.499023438 434 l 5
 162.5 0 l 1
 41.5 0 l 1
 41.4990234375 434 l 5
EndSplineSet
Substitution2: "'salt' Stylistic Alternatives in Latin lookup 3-1" i.alt
EndChar
StartChar: j
Encoding: 106 106 70
Width: 165
VWidth: 0
Flags: MW
LayerCount: 3
Fore
SplineSet
134.34375 434 m 17
 134.34375 -58 l 1
 -73.046875 -262.961914062 l 1
 -80.1181640625 -255.890625 l 1
 13.8818359375 -155.890625 l 1
 13.8818359375 434 l 9
 134.34375 434 l 17
EndSplineSet
EndChar
StartChar: k
Encoding: 107 107 71
Width: 408
VWidth: 0
Flags: HMW
LayerCount: 3
Fore
SplineSet
158.596679688 104.467773438 m 1
 153.524414062 113.25390625 l 2
 126.610351562 159.875 129.251953125 179.33203125 129.251953125 179.33203125 c 1
 221.255859375 267.315429688 l 1
 226.255859375 258.655273438 l 1
 226.255859375 258.655273438 233.956054688 212.413085938 260.033203125 168.85546875 c 0
 262.2578125 165.139648438 264.555664062 161.466796875 267.049804688 157.66015625 c 0
 309.328125 93.12890625 341.547851562 64.5927734375 354.1875 54.841796875 c 1
 385.048828125 72.66015625 l 1
 390.048828125 64 l 1
 365.048828125 42 l 1
 261.125976562 -18 l 1
 261.125976562 -18 223.161132812 5 168.125976562 89 c 0
 164.778320312 94.1103515625 161.706054688 99.107421875 158.887695312 103.965820312 c 2
 158.596679688 104.467773438 l 1
80.6142578125 140.109375 m 17
 232.7109375 284.119140625 l 1
 158.685546875 353.038085938 l 1
 65.685546875 262.038085938 l 1
 58.6142578125 269.109375 l 1
 143.467773438 353.961914062 l 1
 236.467773438 444.961914062 l 1
 323.467773438 363.961914062 l 1
 330.5390625 356.890625 l 1
 90.29296875 127 l 1
 80.6142578125 140.109375 l 17
139 0 m 1
 19 0 l 1
 19 602 l 5
 19 612 l 5
 139 612 l 5
 139 10 l 1
 139 0 l 1
EndSplineSet
EndChar
StartChar: l
Encoding: 108 108 37
Width: 194
VWidth: 0
Flags: MW
LayerCount: 3
Back
SplineSet
18.4248046875 561.5 m 5
 138.424804688 561.5 l 5
 138.424804688 106.487304688 l 5
 194.87109375 69.5029296875 l 5
 199.275390625 60.525390625 l 5
 93.9248046875 -3 l 5
 18.4248046875 54.6591796875 l 5
 18.4248046875 551.5 l 5
 18.4248046875 561.5 l 5
EndSplineSet
Fore
SplineSet
18.4248046875 611.5 m 1
 138.424804688 611.5 l 1
 138.424804688 106.487304688 l 1
 194.87109375 69.5029296875 l 1
 199.275390625 60.525390625 l 1
 93.9248046875 -3 l 1
 18.4248046875 54.6591796875 l 1
 18.4248046875 601.5 l 1
 18.4248046875 611.5 l 1
EndSplineSet
EndChar
StartChar: m
Encoding: 109 109 16
Width: 567
VWidth: 0
Flags: HMW
LayerCount: 3
Back
SplineSet
493.822265625 1.2626953125 m 29
 493.822265625 324.262695312 l 22
 493.822265625 381.793945312 423.822265625 396.262695312 423.822265625 396.262695312 c 13
 397.822265625 378.262695312 l 1053
285.822265625 1.2626953125 m 29
 285.822265625 324.262695312 l 22
 285.822265625 371.793945312 215.822265625 396.262695312 215.822265625 396.262695312 c 13
 189.822265625 378.262695312 l 1053
83.822265625 391.262695312 m 29
 83.822265625 8.2626953125 l 1053
EndSplineSet
Fore
SplineSet
316.678710938 323.333984375 m 17
 325.02734375 309.669921875 l 1
 381.009765625 349.333984375 l 1
 381.009765625 349.333984375 410.008789062 349.170898438 427.435546875 324.94140625 c 0
 434.25 315.466796875 439.001953125 303.333007812 439.001953125 288.525390625 c 2
 439.001953125 1 l 1
 547.35546875 1 l 1
 547.353515625 356.999023438 l 2
 547.35546875 373.928710938 541.29296875 389.129882812 532.73828125 399.330078125 c 2
 526.310546875 406.990234375 l 1
 526.310546875 406.990234375 526.3046875 406.995117188 526.21875 407.098632812 c 0
 526.1640625 407.163085938 526.21875 407.098632812 526.1640625 407.163085938 c 0
 505.626953125 431.487304688 460.927734375 438.66015625 460.927734375 438.66015625 c 9
 316.678710938 323.333984375 l 17
102.177734375 317.166992188 m 17
 111.35546875 303.666015625 l 1
 173.177734375 351.166992188 l 2
 173.19921875 351.18359375 202.166015625 345.30078125 220.021484375 320.887695312 c 0
 226.525390625 311.995117188 231.001953125 301.40234375 231.001953125 289.525390625 c 2
 231.001953125 1 l 1
 339.35546875 1 l 1
 339.35546875 357 l 2
 339.35546875 370.630859375 333.59765625 384.365234375 325.384765625 394.169921875 c 2
 318.88671875 401.915039062 l 1
 318.7421875 402.0859375 l 2
 298.28515625 426.30078125 252.92578125 438.66015625 252.92578125 438.66015625 c 9
 102.177734375 317.166992188 l 17
139.353515625 1 m 1
 139.353515625 426 l 1
 132.92578125 433.66015625 l 1
 19 433.525390625 l 1
 19.001953125 1 l 1
 139.353515625 1 l 1
EndSplineSet
Substitution2: "'salt' Stylistic Alternatives in Latin lookup 3-1" m.ss03
EndChar
StartChar: n
Encoding: 110 110 35
Width: 416
VWidth: 0
Flags: HMW
LayerCount: 3
Fore
SplineSet
386 0 m 9
 273.016601562 0 l 17
 273.016601562 263.348632812 l 2
 273.016601562 263.348632812 272.916015625 289.826171875 270.765625 302.856445312 c 0
 269.438476562 310.895507812 267.323242188 318.838867188 264.278320312 326.388671875 c 0
 263.537109375 327.779296875 262.611328125 329.415039062 261.7265625 330.861328125 c 0
 254.833007812 342.125976562 245.28125 351.797851562 233.919921875 358.530273438 c 0
 222.55859375 365.262695312 203.839508252 372.78028456 183.331054688 363 c 2
 114.831054688 330.333007812 l 1
 106.6640625 349.583007812 l 1
 300.7734375 436.063476562 l 1
 313.9765625 435.798828125 327.088867188 432.040039062 338.451171875 425.307617188 c 0
 349.811523438 418.575195312 359.36328125 408.903320312 366.256835938 397.638671875 c 0
 368.002929688 394.787109375 369.577148438 391.837890625 370.989257812 388.8125 c 2
 375.26953125 379.634765625 l 1
 375.322265625 379.520507812 l 2
 379.4296875 370.663085938 382.15625 361.155273438 383.748046875 351.506835938 c 0
 385.899414062 338.477539062 386 325.20703125 386 312 c 2
 386 0 l 9
40.16796875 434 m 5
 160.16796875 434 l 5
 160.16796875 8 l 1
 160.16796875 -2 l 1
 40.16796875 -2 l 1
 40.16796875 424 l 5
 40.16796875 434 l 5
EndSplineSet
Substitution2: "'salt' Stylistic Alternatives in Latin lookup 3-1" n.ss03
EndChar
StartChar: o
Encoding: 111 111 6
Width: 471
VWidth: 0
Flags: HMW
LayerCount: 3
Fore
SplineSet
46.1806640625 93.23828125 m 5
 41.09375 102.048828125 l 5
 41.0498046875 102.125976562 l 5
 41.0078125 102.198242188 l 6
 40.509765625 103.065429688 40.0185546875 103.936523438 39.53515625 104.8125 c 4
 25.916015625 129.495117188 18.30078125 157.413085938 17.15625 185.581054688 c 4
 16.0126953125 213.748046875 21.201171875 242.065429688 31.44140625 268.330078125 c 4
 47.92578125 310.612304688 77.3935546875 347.620117188 114.44140625 373.830078125 c 5
 218.364257812 433.830078125 l 1
 261.912109375 438.595703125 306.893554688 429.497070312 345.103515625 408.0703125 c 4
 377.20703125 390.069335938 404.471679688 363.376953125 422.860351562 331.537109375 c 6
 428.077148438 322.500976562 l 6
 431.490234375 316.561523438 434.594726562 310.443359375 437.364257812 304.169921875 c 4
 458.456054688 256.395507812 458.630859375 199.6953125 437.006835938 152.16015625 c 4
 426.194335938 128.391601562 410.390625 107.0703125 391.857421875 88.6767578125 c 4
 373.323242188 70.283203125 352.112304688 54.8466796875 330.864257812 39.669921875 c 6
 320.364257812 32.169921875 l 5
 216.44140625 -27.830078125 l 1
 173.94140625 -7.830078125 l 6
 148.434570312 4.1728515625 122.907226562 16.5947265625 100.301757812 33.4384765625 c 4
 78.6123046875 49.59765625 59.74609375 69.7587890625 46.2216796875 93.166015625 c 6
 46.1806640625 93.23828125 l 5
295.139648438 50.34765625 m 5
 308.086914062 65.1962890625 319.733398438 82.4658203125 328.083984375 100.8203125 c 4
 349.708007812 148.35546875 349.533203125 205.055664062 328.44140625 252.830078125 c 4
 326.288085938 257.706054688 323.944335938 262.466796875 321.392578125 267.158203125 c 4
 303.108398438 297.041992188 276.8203125 322.229492188 246.180664062 339.41015625 c 4
 221.083007812 353.484375 193.09765625 362.232421875 164.454101562 365.239257812 c 5
 154.837890625 351.118164062 146.62109375 335.717773438 140.364257812 319.669921875 c 4
 130.124023438 293.405273438 124.935546875 265.086914062 126.079101562 236.919921875 c 4
 127.202148438 209.2734375 134.51953125 181.96875 147.686523438 157.56640625 c 4
 160.911132812 136.094726562 178.885742188 117.251953125 199.224609375 102.098632812 c 4
 221.830078125 85.2548828125 247.357421875 72.833984375 272.864257812 60.830078125 c 6
 295.139648438 50.34765625 l 5
EndSplineSet
Substitution2: "'salt' Stylistic Alternatives in Latin lookup 3-1" o.alt
EndChar
